SchikulskiHandwriting-Regular.ufo
<glyph name="exclam" format="1">
  <advance width="154.7"/>
  <unicode hex="0021"/>
  <outline>
    <contour>
      <point x="79.3894" y="273.7" type="curve" smooth="yes"/>
      <point x="100.918" y="273.7"/>
      <point x="98.5855" y="284.765"/>
      <point x="117.3" y="294.1" type="curve"/>
      <point x="124.328" y="294.138"/>
      <point x="124.1" y="276.153"/>
      <point x="124.1" y="272" type="curve" smooth="yes"/>
      <point x="124.1" y="260.1" type="line" smooth="yes"/>
      <point x="124.1" y="199.06"/>
      <point x="86.0151" y="238.131"/>
      <point x="56.6663" y="207.879" type="curve" smooth="yes"/>
      <point x="54.7188" y="205.872"/>
      <point x="48.8521" y="199.48"/>
      <point x="41.3667" y="199.467" type="curve"/>
      <point x="34" y="202.3" type="line"/>
      <point x="29.292" y="218.518"/>
      <point x="18.7" y="244.132"/>
      <point x="18.7" y="262.925" type="curve" smooth="yes"/>
      <point x="18.7" y="276.138"/>
      <point x="23.9352" y="280.5"/>
      <point x="35.3687" y="280.5" type="curve" smooth="yes"/>
      <point x="49.6438" y="280.5"/>
      <point x="62.5126" y="273.7"/>
    </contour>
    <contour>
      <point x="106.25" y="1091.4" type="curve"/>
      <point x="109.49" y="1094.35"/>
      <point x="114.636" y="1096.5"/>
      <point x="118.502" y="1096.5" type="curve" smooth="yes"/>
      <point x="141.767" y="1096.5"/>
      <point x="134.3" y="1018.54"/>
      <point x="134.3" y="991.957" type="curve" smooth="yes"/>
      <point x="134.3" y="974.376"/>
      <point x="131.034" y="941.081"/>
      <point x="123.955" y="896.069" type="curve" smooth="yes"/>
      <point x="107.022" y="788.4"/>
      <point x="98.6001" y="663.159"/>
      <point x="98.6001" y="562.556" type="curve" smooth="yes"/>
      <point x="98.6001" y="536.103"/>
      <point x="98.0178" y="491.3"/>
      <point x="108.8" y="491.3" type="curve"/>
      <point x="111.642" y="491.3"/>
      <point x="120.783" y="491.53"/>
      <point x="120.9" y="486.318" type="curve"/>
      <point x="114.735" y="469.193"/>
      <point x="90.7823" y="464.1"/>
      <point x="77.9856" y="464.1" type="curve" smooth="yes"/>
      <point x="59.9437" y="464.1"/>
      <point x="54.4001" y="474.224"/>
      <point x="54.4001" y="488.013" type="curve" smooth="yes"/>
      <point x="54.4001" y="496.525"/>
      <point x="56.5123" y="506.602"/>
      <point x="58.6035" y="520.401" type="curve" smooth="yes"/>
      <point x="65.9812" y="569.085"/>
      <point x="67.1196" y="624.651"/>
      <point x="68.9089" y="662.44" type="curve" smooth="yes"/>
      <point x="72.1842" y="731.613"/>
      <point x="70.1262" y="793.77"/>
      <point x="86.1771" y="856.066" type="curve" smooth="yes"/>
      <point x="98.3974" y="903.495"/>
      <point x="103.7" y="964.734"/>
      <point x="103.7" y="1015.32" type="curve" smooth="yes"/>
      <point x="103.7" y="1046.76"/>
      <point x="101.651" y="1070.18"/>
    </contour>
  </outline>
</glyph>
<glyph name="quotedbl" format="1">
  <advance width="704.223"/>
  <unicode hex="0022"/>
  <outline>
    <contour>
      <point x="694.294" y="2156" type="curve"/>
      <point x="708.993" y="2142.94"/>
      <point x="708.22" y="2108.67"/>
      <point x="708.22" y="2091.22" type="curve" smooth="yes"/>
      <point x="708.22" y="1840.36"/>
      <point x="572.438" y="1594.39"/>
      <point x="572.438" y="1333.63" type="curve" smooth="yes"/>
      <point x="572.438" y="1313.63"/>
      <point x="571.92" y="1289.39"/>
      <point x="582.883" y="1271.67" type="curve"/>
      <point x="609.965" y="1287.87"/>
      <point x="628.573" y="1314.54"/>
      <point x="649.033" y="1337.82" type="curve"/>
      <point x="649.033" y="1299.53" type="line" smooth="yes"/>
      <point x="649.033" y="1262.69"/>
      <point x="609.037" y="1128.93"/>
      <point x="564.313" y="1128.93" type="curve" smooth="yes"/>
      <point x="511.644" y="1128.93"/>
      <point x="512.757" y="1312.12"/>
      <point x="512.757" y="1347.4" type="curve"/>
      <point x="513.251" y="1399.3" type="line"/>
      <point x="513.251" y="1534.66"/>
      <point x="611.192" y="1965.36"/>
      <point x="678.709" y="2078.82" type="curve" smooth="yes"/>
      <point x="683.249" y="2086.45"/>
      <point x="689.072" y="2094.24"/>
      <point x="689.072" y="2103.62" type="curve" smooth="yes"/>
      <point x="689.072" y="2118.27"/>
      <point x="672.33" y="2123.9"/>
      <point x="667.245" y="2137.52" type="curve"/>
      <point x="671.845" y="2148.42"/>
      <point x="682.647" y="2155.29"/>
    </contour>
    <contour>
      <point x="183.363" y="2211.71" type="curve" smooth="yes"/>
      <point x="215.597" y="2211.71"/>
      <point x="220.796" y="2152.98"/>
      <point x="220.796" y="2129.76" type="curve" smooth="yes"/>
      <point x="220.796" y="2074.52"/>
      <point x="183.056" y="1881.08"/>
      <point x="163.783" y="1827.17" type="curve" smooth="yes"/>
      <point x="144.609" y="1773.54"/>
      <point x="119.83" y="1559.21"/>
      <point x="119.83" y="1497.98" type="curve" smooth="yes"/>
      <point x="119.83" y="1492.44"/>
      <point x="121.279" y="1484.87"/>
      <point x="128.569" y="1484.87" type="curve" smooth="yes"/>
      <point x="143.582" y="1484.87"/>
      <point x="161.541" y="1510.29"/>
      <point x="178.174" y="1514.57" type="curve"/>
      <point x="183.321" y="1510.81"/>
      <point x="185.98" y="1504.22"/>
      <point x="185.98" y="1497.98" type="curve" smooth="yes"/>
      <point x="185.98" y="1491.4"/>
      <point x="145.279" y="1404.89"/>
      <point x="139.989" y="1390.24" type="curve" smooth="yes"/>
      <point x="129.98" y="1362.53"/>
      <point x="123.21" y="1335.04"/>
      <point x="120.471" y="1305.68" type="curve" smooth="yes"/>
      <point x="118.392" y="1283.39"/>
      <point x="110.422" y="1198.56"/>
      <point x="79.6818" y="1198.56" type="curve" smooth="yes"/>
      <point x="43.2085" y="1198.56"/>
      <point x="46.3465" y="1331.62"/>
      <point x="46.3465" y="1354.73" type="curve" smooth="yes"/>
      <point x="46.3465" y="1525.34"/>
      <point x="54.0149" y="1704.02"/>
      <point x="99.4141" y="1869.39" type="curve" smooth="yes"/>
      <point x="110.211" y="1908.71"/>
      <point x="117.363" y="1948.67"/>
      <point x="122.743" y="1989.07" type="curve" smooth="yes"/>
      <point x="127.317" y="2023.43"/>
      <point x="134.42" y="2211.71"/>
    </contour>
  </outline>
</glyph>
<glyph name="parenleft" format="1">
  <advance width="825.139"/>
  <unicode hex="0028"/>
  <outline>
    <contour>
      <point x="609.28" y="2113.33" type="curve"/>
      <point x="615.672" y="2113.33"/>
      <point x="625.345" y="2111.49"/>
      <point x="630.17" y="2106.37" type="curve"/>
      <point x="610.135" y="2077.29"/>
      <point x="585.111" y="2051.46"/>
      <point x="578.748" y="2044.94" type="curve" smooth="yes"/>
      <point x="309.132" y="1768.82"/>
      <point x="104.448" y="1191.27"/>
      <point x="104.448" y="821.081" type="curve" smooth="yes"/>
      <point x="104.448" y="746.727"/>
      <point x="112.705" y="654.887"/>
      <point x="194.079" y="493.242" type="curve" smooth="yes"/>
      <point x="234.012" y="413.918"/>
      <point x="331.582" y="201.934"/>
      <point x="524.478" y="201.934" type="curve" smooth="yes"/>
      <point x="607.897" y="201.934"/>
      <point x="616.696" y="241.579"/>
      <point x="644.698" y="243.303" type="curve"/>
      <point x="658.022" y="233.268" type="line"/>
      <point x="659.57" y="223.21" type="line"/>
      <point x="659.57" y="175.463"/>
      <point x="551.385" y="135.783"/>
      <point x="495.31" y="135.783" type="curve" smooth="yes"/>
      <point x="437.722" y="135.783"/>
      <point x="369.041" y="177.634"/>
      <point x="316.874" y="219.96" type="curve" smooth="yes"/>
      <point x="141.847" y="361.967"/>
      <point x="38.2977" y="602.147"/>
      <point x="38.2977" y="835.333" type="curve" smooth="yes"/>
      <point x="38.2977" y="1090.11"/>
      <point x="161.907" y="1534.1"/>
      <point x="290.091" y="1745.11" type="curve" smooth="yes"/>
      <point x="356.356" y="1854.19"/>
      <point x="474.738" y="2113.33"/>
    </contour>
    <contour>
      <point x="733.401" y="2186.44" type="curve" smooth="yes"/>
      <point x="756.788" y="2186.44"/>
      <point x="786.842" y="2183.34"/>
      <point x="786.842" y="2148.56" type="curve" smooth="yes"/>
      <point x="786.842" y="2129.69"/>
      <point x="777.991" y="2119.8"/>
      <point x="745.486" y="2119.8" type="curve" smooth="yes"/>
      <point x="724.745" y="2119.8"/>
      <point x="651.017" y="2123.82"/>
      <point x="651.059" y="2158.59" type="curve"/>
      <point x="668.946" y="2183.28"/>
      <point x="709.781" y="2186.44"/>
    </contour>
  </outline>
</glyph>
<glyph name="parenright" format="1">
  <advance width="304.3"/>
  <unicode hex="0029"/>
  <outline>
    <contour>
      <point x="55.6364" y="1083.32" type="curve" smooth="yes"/>
      <point x="55.6364" y="1086.67"/>
      <point x="63.4962" y="1099.05"/>
      <point x="71.4359" y="1099.05" type="curve" smooth="yes"/>
      <point x="84.0557" y="1099.05"/>
      <point x="89.9231" y="1067.78"/>
      <point x="131.349" y="1016.26" type="curve" smooth="yes"/>
      <point x="239.093" y="882.265"/>
      <point x="285.6" y="662.238"/>
      <point x="285.6" y="424.355" type="curve" smooth="yes"/>
      <point x="285.6" y="357.06"/>
      <point x="281.878" y="131.555"/>
      <point x="223.871" y="45.2876" type="curve" smooth="yes"/>
      <point x="193.473" y="0.0793536"/>
      <point x="117.491" y="-52.5112"/>
      <point x="38.0192" y="-52.5112" type="curve" smooth="yes"/>
      <point x="27.3658" y="-52.5112"/>
      <point x="18.2143" y="-51.5661"/>
      <point x="18.2143" y="-36.3611" type="curve" smooth="yes"/>
      <point x="18.2143" y="-11.1123"/>
      <point x="43.4493" y="-23.8"/>
      <point x="67.7423" y="-23.8" type="curve" smooth="yes"/>
      <point x="130.068" y="-23.8"/>
      <point x="210.467" y="59.7133"/>
      <point x="230.505" y="125.709" type="curve" smooth="yes"/>
      <point x="249.004" y="186.637"/>
      <point x="253.3" y="355.304"/>
      <point x="253.3" y="422.359" type="curve" smooth="yes"/>
      <point x="253.3" y="571.277"/>
      <point x="232.11" y="791.168"/>
      <point x="160.703" y="896.519" type="curve" smooth="yes"/>
      <point x="136.856" y="931.701"/>
      <point x="55.6364" y="1072.57"/>
    </contour>
  </outline>
</glyph>
<glyph name="comma" format="1">
  <advance width="301.491"/>
  <unicode hex="002C"/>
  <outline>
    <contour>
      <point x="165.623" y="347.578" type="curve" smooth="yes"/>
      <point x="193.366" y="347.578"/>
      <point x="199.32" y="323.903"/>
      <point x="199.32" y="301.453" type="curve" smooth="yes"/>
      <point x="199.32" y="278.18"/>
      <point x="198.026" y="243.386"/>
      <point x="180.291" y="225.532" type="curve" smooth="yes"/>
      <point x="162.039" y="207.157"/>
      <point x="132.734" y="220.248"/>
      <point x="132.734" y="185.594" type="curve" smooth="yes"/>
      <point x="132.734" y="115.281"/>
      <point x="20.9848" y="-78.0289"/>
      <point x="-16.9899" y="-144.096" type="curve" smooth="yes"/>
      <point x="-22.985" y="-154.526"/>
      <point x="-63.7061" y="-222.267"/>
      <point x="-65.7172" y="-230.368" type="curve"/>
      <point x="-81.291" y="-258.612"/>
      <point x="-108.926" y="-290.237"/>
      <point x="-138.831" y="-303.482" type="curve"/>
      <point x="-144.294" y="-301.293"/>
      <point x="-149.276" y="-295.735"/>
      <point x="-149.276" y="-289.555" type="curve" smooth="yes"/>
      <point x="-149.276" y="-238.652"/>
      <point x="61.7897" y="139.17"/>
      <point x="105.855" y="198.203" type="curve" smooth="yes"/>
      <point x="117.753" y="214.141"/>
      <point x="115.326" y="235.794"/>
      <point x="115.326" y="254.762" type="curve" smooth="yes"/>
      <point x="115.326" y="287.32"/>
      <point x="121.325" y="347.578"/>
    </contour>
  </outline>
</glyph>
<glyph name="period" format="1">
  <advance width="149.6"/>
  <unicode hex="002E"/>
  <outline>
    <contour>
      <point x="90.2163" y="265.2" type="curve" smooth="yes"/>
      <point x="110.194" y="265.2"/>
      <point x="132.6" y="263.964"/>
      <point x="132.6" y="234.438" type="curve" smooth="yes"/>
      <point x="132.6" y="210.793"/>
      <point x="118.23" y="170"/>
      <point x="92.1739" y="170" type="curve" smooth="yes"/>
      <point x="67.8703" y="170"/>
      <point x="90.9311" y="205.488"/>
      <point x="40.2838" y="205.488" type="curve" smooth="yes"/>
      <point x="29.6885" y="205.488"/>
      <point x="16.8314" y="207.042"/>
      <point x="16.8314" y="218.012" type="curve" smooth="yes"/>
      <point x="16.8314" y="233.285"/>
      <point x="41.7533" y="234.898"/>
      <point x="47.1327" y="250.265" type="curve" smooth="yes"/>
      <point x="52.0189" y="264.223"/>
      <point x="72.4571" y="265.2"/>
    </contour>
  </outline>
</glyph>
<glyph name="zero" format="1">
  <advance width="1512.72"/>
  <unicode hex="0030"/>
  <outline>
    <contour>
      <point x="297.41" y="544.117" type="curve" smooth="yes"/>
      <point x="366.188" y="246.208"/>
      <point x="435.761" y="-2.98694"/>
      <point x="702.963" y="58.7016" type="curve" smooth="yes"/>
      <point x="1035.34" y="135.436"/>
      <point x="1308.89" y="697.375"/>
      <point x="1217.79" y="1092" type="curve" smooth="yes"/>
      <point x="1177.52" y="1266.41"/>
      <point x="1080.98" y="1405.28"/>
      <point x="974.244" y="1513" type="curve" smooth="yes"/>
      <point x="944.429" y="1543.09"/>
      <point x="920.113" y="1567.21"/>
      <point x="885.213" y="1559.16" type="curve" smooth="yes"/>
      <point x="854.264" y="1552.01"/>
      <point x="866.647" y="1579.62"/>
      <point x="824.161" y="1592.27" type="curve" smooth="yes"/>
      <point x="807.783" y="1597.15"/>
      <point x="759.477" y="1583.49"/>
      <point x="742.913" y="1579.67" type="curve" smooth="yes"/>
      <point x="715.631" y="1573.37"/>
      <point x="689.323" y="1567.3"/>
      <point x="663.015" y="1561.22" type="curve" smooth="yes"/>
      <point x="359.011" y="1491.04"/>
      <point x="305.05" y="1314.86"/>
      <point x="271.359" y="1050.29" type="curve" smooth="yes"/>
      <point x="250.219" y="884.279"/>
      <point x="254.487" y="730.039"/>
    </contour>
    <contour>
      <point x="666.605" y="1639.03" type="curve" smooth="yes"/>
      <point x="675.375" y="1641.05"/>
      <point x="681.07" y="1647.5"/>
      <point x="678.821" y="1657.24" type="curve" smooth="yes"/>
      <point x="676.796" y="1666.01"/>
      <point x="668.851" y="1669.31"/>
      <point x="660.082" y="1667.28" type="curve" smooth="yes"/>
      <point x="651.312" y="1665.26"/>
      <point x="646.591" y="1659.04"/>
      <point x="648.615" y="1650.27" type="curve" smooth="yes"/>
      <point x="650.64" y="1641.5"/>
      <point x="657.836" y="1637"/>
    </contour>
    <contour>
      <point x="599.001" y="1602.89" type="curve"/>
      <point x="581.16" y="1622.38"/>
      <point x="562.57" y="1640.67"/>
      <point x="543.98" y="1658.95" type="curve"/>
      <point x="543.531" y="1647.56"/>
      <point x="550.056" y="1605.96"/>
      <point x="534.466" y="1602.36" type="curve"/>
      <point x="523.598" y="1604.98"/>
      <point x="503.284" y="1621.85"/>
      <point x="496.238" y="1621.25" type="curve"/>
      <point x="490.992" y="1612.85"/>
      <point x="492.043" y="1603.86"/>
      <point x="494.067" y="1595.09" type="curve" smooth="yes"/>
      <point x="496.317" y="1585.34"/>
      <point x="499.766" y="1574.85"/>
      <point x="506.887" y="1566.23" type="curve"/>
      <point x="511.759" y="1567.36"/>
      <point x="518.055" y="1566.76"/>
      <point x="522.927" y="1567.88" type="curve" smooth="yes"/>
      <point x="550.209" y="1574.18"/>
      <point x="576.142" y="1586.33"/>
    </contour>
    <contour>
      <point x="1281.39" y="1083.22" type="curve" smooth="yes"/>
      <point x="1349.09" y="790.002"/>
      <point x="1260.73" y="604.072"/>
      <point x="1126.56" y="366.89" type="curve" smooth="yes"/>
      <point x="1021.67" y="181.464"/>
      <point x="916.932" y="36.2588"/>
      <point x="728.167" y="-7.32104" type="curve" smooth="yes"/>
      <point x="650.581" y="-25.2331"/>
      <point x="594.077" y="-15.2982"/>
      <point x="535.869" y="12.7501" type="curve" smooth="yes"/>
      <point x="383.405" y="86.216"/>
      <point x="305.699" y="225.986"/>
      <point x="249.63" y="468.847" type="curve" smooth="yes"/>
      <point x="198.845" y="688.82"/>
      <point x="196.59" y="886.163"/>
      <point x="235.257" y="1088.65" type="curve" smooth="yes"/>
      <point x="243.386" y="1131.21"/>
      <point x="247.877" y="1177.16"/>
      <point x="258.392" y="1218.11" type="curve" smooth="yes"/>
      <point x="270.804" y="1266.45"/>
      <point x="290.244" y="1310.58"/>
      <point x="308.478" y="1353.82" type="curve" smooth="yes"/>
      <point x="328.463" y="1401.21"/>
      <point x="353.625" y="1443.5"/>
      <point x="399.862" y="1483.02" type="curve" smooth="yes"/>
      <point x="414.483" y="1495.52"/>
      <point x="446.629" y="1520.5"/>
      <point x="448.725" y="1542.54" type="curve"/>
      <point x="444.977" y="1549.89"/>
      <point x="441.454" y="1556.26"/>
      <point x="439.654" y="1564.05" type="curve" smooth="yes"/>
      <point x="415.359" y="1669.28"/>
      <point x="451.768" y="1685.9"/>
      <point x="509.695" y="1699.27" type="curve" smooth="yes"/>
      <point x="545.438" y="1707.53"/>
      <point x="586.849" y="1716.25"/>
      <point x="635.729" y="1699.63" type="curve" smooth="yes"/>
      <point x="665.958" y="1689.36"/>
      <point x="754.391" y="1659.29"/>
      <point x="780.757" y="1665.38" type="curve" smooth="yes"/>
      <point x="806.299" y="1671.28"/>
      <point x="885.298" y="1618.79"/>
      <point x="911.031" y="1601.06" type="curve" smooth="yes"/>
      <point x="1106.15" y="1466.61"/>
      <point x="1221.79" y="1341.38"/>
    </contour>
  </outline>
</glyph>
<glyph name="one" format="1">
  <advance width="640.614"/>
  <unicode hex="0031"/>
  <outline>
    <contour>
      <point x="118.374" y="1664.2" type="curve"/>
      <point x="118.374" y="1667.16"/>
      <point x="120.915" y="1671.82"/>
      <point x="121.856" y="1674.65" type="curve"/>
      <point x="128.819" y="1664.2" type="line"/>
      <point x="128.819" y="1653.76" type="line"/>
      <point x="123.327" y="1654.36"/>
      <point x="118.374" y="1658.4"/>
    </contour>
    <contour>
      <point x="584.909" y="2242.15" type="curve"/>
      <point x="602.359" y="2242.15"/>
      <point x="602.317" y="2165.06"/>
      <point x="602.317" y="2158.57" type="curve" smooth="yes"/>
      <point x="602.317" y="1961.96"/>
      <point x="563.157" y="1775.41"/>
      <point x="515.499" y="1615.24" type="curve" smooth="yes"/>
      <point x="387.892" y="1186.37"/>
      <point x="377.155" y="756.417"/>
      <point x="362.086" y="337.715" type="curve"/>
      <point x="381.647" y="345.6"/>
      <point x="413.374" y="361.432"/>
      <point x="433.459" y="362.087" type="curve"/>
      <point x="445.645" y="351.642" type="line"/>
      <point x="444.929" y="324.428"/>
      <point x="389.939" y="319.071"/>
      <point x="389.939" y="260.357" type="curve" smooth="yes"/>
      <point x="389.939" y="241.542"/>
      <point x="384.293" y="203.565"/>
      <point x="356.656" y="203.565" type="curve" smooth="yes"/>
      <point x="308.771" y="203.565"/>
      <point x="316.826" y="317.578"/>
      <point x="316.826" y="465.424" type="curve" smooth="yes"/>
      <point x="316.826" y="766.443"/>
      <point x="350.217" y="1182.26"/>
      <point x="427.603" y="1526.35" type="curve" smooth="yes"/>
      <point x="468.849" y="1709.75"/>
      <point x="532.685" y="1917.64"/>
      <point x="532.685" y="2036.74" type="curve"/>
      <point x="532.685" y="2040.94"/>
      <point x="530.226" y="2046.57"/>
      <point x="529.203" y="2050.66" type="curve"/>
      <point x="494.177" y="2010.71"/>
      <point x="477.635" y="1954.52"/>
      <point x="449.09" y="1916.04" type="curve" smooth="yes"/>
      <point x="431.376" y="1892.17"/>
      <point x="359.596" y="1808.46"/>
      <point x="358.605" y="1786.06" type="curve"/>
      <point x="323.389" y="1730.72"/>
      <point x="143.651" y="1486.64"/>
      <point x="79.6316" y="1486.64" type="curve" smooth="yes"/>
      <point x="54.276" y="1486.64"/>
      <point x="36.992" y="1524.93"/>
      <point x="36.992" y="1549.29" type="curve" smooth="yes"/>
      <point x="36.992" y="1554.06"/>
      <point x="36.3285" y="1567.11"/>
      <point x="50.3655" y="1567.11" type="curve" smooth="yes"/>
      <point x="66.2176" y="1567.11"/>
      <point x="78.7559" y="1550.47"/>
      <point x="89.1719" y="1550.47" type="curve" smooth="yes"/>
      <point x="139.466" y="1550.47"/>
      <point x="403.866" y="1938.29"/>
      <point x="403.866" y="1956.18" type="curve" smooth="yes"/>
      <point x="403.866" y="1969.83"/>
      <point x="557.756" y="2242.15"/>
    </contour>
  </outline>
</glyph>
<glyph name="two" format="1">
  <advance width="807.5"/>
  <unicode hex="0032"/>
  <outline>
    <contour>
      <point x="348.166" y="1016.6" type="curve" smooth="yes"/>
      <point x="446.367" y="1016.6"/>
      <point x="549.1" y="977.581"/>
      <point x="549.1" y="894.413" type="curve" smooth="yes"/>
      <point x="549.1" y="728.879"/>
      <point x="142.12" y="232.376"/>
      <point x="142.12" y="229.5" type="curve"/>
      <point x="142.12" y="223.491"/>
      <point x="154.13" y="223.947"/>
      <point x="156.929" y="223.947" type="curve"/>
      <point x="162.855" y="223.947"/>
      <point x="167.709" y="224.807"/>
      <point x="173.225" y="226.06" type="curve" smooth="yes"/>
      <point x="215.6" y="235.69"/>
      <point x="266.397" y="232.9"/>
      <point x="321.054" y="232.9" type="curve" smooth="yes"/>
      <point x="356.33" y="232.9"/>
      <point x="406.05" y="234.062"/>
      <point x="456.74" y="223.449" type="curve" smooth="yes"/>
      <point x="475.022" y="219.622"/>
      <point x="501.851" y="212.5"/>
      <point x="524.519" y="212.5" type="curve" smooth="yes"/>
      <point x="559.341" y="212.5"/>
      <point x="618.516" y="195.695"/>
      <point x="649.624" y="192.855" type="curve" smooth="yes"/>
      <point x="675.818" y="190.464"/>
      <point x="788.8" y="188.234"/>
      <point x="788.8" y="158.583" type="curve" smooth="yes"/>
      <point x="788.8" y="147.239"/>
      <point x="772.264" y="146.2"/>
      <point x="758.467" y="146.2" type="curve" smooth="yes"/>
      <point x="701.175" y="146.2"/>
      <point x="634.126" y="164.113"/>
      <point x="551.741" y="174.182" type="curve" smooth="yes"/>
      <point x="469.872" y="184.188"/>
      <point x="372.386" y="205.7"/>
      <point x="307.753" y="205.7" type="curve" smooth="yes"/>
      <point x="226.946" y="205.7"/>
      <point x="92.7584" y="172.076"/>
      <point x="51.06" y="147.294" type="curve" smooth="yes"/>
      <point x="49.372" y="146.291"/>
      <point x="40.764" y="141.1"/>
      <point x="31.1843" y="141.1" type="curve" smooth="yes"/>
      <point x="23.9575" y="141.1"/>
      <point x="18.6999" y="144.054"/>
      <point x="18.6999" y="149.071" type="curve" smooth="yes"/>
      <point x="18.6999" y="160.223"/>
      <point x="44.6833" y="173.367"/>
      <point x="49.7326" y="176.111" type="curve" smooth="yes"/>
      <point x="139.086" y="224.671"/>
      <point x="474.595" y="712.961"/>
      <point x="490.177" y="782.835" type="curve" smooth="yes"/>
      <point x="494.557" y="802.475"/>
      <point x="518.5" y="829.555"/>
      <point x="518.5" y="868.874" type="curve" smooth="yes"/>
      <point x="518.5" y="932.102"/>
      <point x="456.584" y="986"/>
      <point x="364.387" y="986" type="curve" smooth="yes"/>
      <point x="315.205" y="986"/>
      <point x="235.409" y="970.663"/>
      <point x="166.851" y="939.947" type="curve" smooth="yes"/>
      <point x="153.804" y="934.102"/>
      <point x="117.3" y="918.487"/>
      <point x="117.3" y="905.176" type="curve" smooth="yes"/>
      <point x="117.3" y="896.86"/>
      <point x="103.049" y="895.9"/>
      <point x="96.2668" y="895.9" type="curve" smooth="yes"/>
      <point x="88.5113" y="895.9"/>
      <point x="70.0187" y="897.155"/>
      <point x="70.0187" y="907.204" type="curve" smooth="yes"/>
      <point x="70.0187" y="939.212"/>
      <point x="257.649" y="1004.43"/>
      <point x="298.937" y="1012.83" type="curve" smooth="yes"/>
      <point x="316.811" y="1016.47"/>
      <point x="342.397" y="1016.6"/>
    </contour>
  </outline>
</glyph>
<glyph name="three" format="1">
  <advance width="1678.13"/>
  <unicode hex="0033"/>
  <outline>
    <contour>
      <point x="548.476" y="2036.74" type="curve" smooth="yes"/>
      <point x="562.984" y="2036.74"/>
      <point x="573.42" y="2033.17"/>
      <point x="577.946" y="2026.29" type="curve"/>
      <point x="614.12" y="2014.23"/>
      <point x="665.814" y="2012.36"/>
      <point x="719.38" y="2012.36" type="curve" smooth="yes"/>
      <point x="926.56" y="2012.36"/>
      <point x="1382.2" y="1984.51"/>
      <point x="1382.2" y="1712.36" type="curve" smooth="yes"/>
      <point x="1382.2" y="1541.04"/>
      <point x="1201.65" y="1378.91"/>
      <point x="1114.11" y="1295.16" type="curve"/>
      <point x="1298.16" y="1273.07"/>
      <point x="1498.19" y="1251.51"/>
      <point x="1614.01" y="1064.8" type="curve" smooth="yes"/>
      <point x="1620.29" y="1054.67"/>
      <point x="1639.83" y="1022.29"/>
      <point x="1639.83" y="990.892" type="curve" smooth="yes"/>
      <point x="1639.83" y="882.238"/>
      <point x="1405.75" y="678.912"/>
      <point x="1350.92" y="678.912" type="curve" smooth="yes"/>
      <point x="1332.04" y="678.912"/>
      <point x="1302.36" y="654.804"/>
      <point x="1289.17" y="644.836" type="curve" smooth="yes"/>
      <point x="1188.89" y="569.016"/>
      <point x="700.805" y="296.505"/>
      <point x="595.224" y="276.351" type="curve" smooth="yes"/>
      <point x="573.677" y="272.238"/>
      <point x="555.909" y="261.377"/>
      <point x="545.667" y="255.59" type="curve" smooth="yes"/>
      <point x="447.694" y="200.24"/>
      <point x="268.082" y="174.08"/>
      <point x="197.393" y="174.08" type="curve" smooth="yes"/>
      <point x="87.2389" y="174.08"/>
      <point x="38.2976" y="237.606"/>
      <point x="38.2976" y="301.864" type="curve" smooth="yes"/>
      <point x="38.2976" y="348.47"/>
      <point x="64.0432" y="424.755"/>
      <point x="114.893" y="424.755" type="curve"/>
      <point x="130.042" y="417.637"/>
      <point x="146.227" y="409.129"/>
      <point x="146.227" y="386.222" type="curve" smooth="yes"/>
      <point x="146.227" y="341.063"/>
      <point x="83.3263" y="315.252"/>
      <point x="83.3263" y="275.156" type="curve" smooth="yes"/>
      <point x="83.3263" y="225.216"/>
      <point x="180.899" y="229.786"/>
      <point x="210.87" y="229.786" type="curve" smooth="yes"/>
      <point x="324.069" y="229.786"/>
      <point x="599.009" y="294.973"/>
      <point x="672.801" y="357.447" type="curve" smooth="yes"/>
      <point x="694.996" y="376.238"/>
      <point x="716.035" y="378.889"/>
      <point x="725.302" y="381.397" type="curve" smooth="yes"/>
      <point x="765.792" y="392.355"/>
      <point x="920.526" y="492.309"/>
      <point x="1047.51" y="554.139" type="curve" smooth="yes"/>
      <point x="1123.56" y="591.167"/>
      <point x="1275.95" y="674.194"/>
      <point x="1394.18" y="766.708" type="curve" smooth="yes"/>
      <point x="1439.2" y="801.93"/>
      <point x="1471.69" y="822.108"/>
      <point x="1482" y="827.988" type="curve" smooth="yes"/>
      <point x="1546.43" y="864.729"/>
      <point x="1580.65" y="948.481"/>
      <point x="1580.65" y="985.167" type="curve" smooth="yes"/>
      <point x="1580.65" y="1022.84"/>
      <point x="1544.56" y="1060.67"/>
      <point x="1538.54" y="1066.91" type="curve" smooth="yes"/>
      <point x="1394.49" y="1216.51"/>
      <point x="1191.41" y="1229"/>
      <point x="1068.02" y="1229" type="curve" smooth="yes"/>
      <point x="955.213" y="1229"/>
      <point x="896.895" y="1218.56"/>
      <point x="835.845" y="1218.56" type="curve" smooth="yes"/>
      <point x="830.342" y="1218.56"/>
      <point x="807.731" y="1218.48"/>
      <point x="807.731" y="1236.97" type="curve" smooth="yes"/>
      <point x="807.731" y="1266.98"/>
      <point x="867.29" y="1274.24"/>
      <point x="887.924" y="1277.26" type="curve" smooth="yes"/>
      <point x="1059.94" y="1302.4"/>
      <point x="1228.63" y="1428.1"/>
      <point x="1306.93" y="1602.61" type="curve" smooth="yes"/>
      <point x="1310.67" y="1610.95"/>
      <point x="1333.45" y="1662.29"/>
      <point x="1333.45" y="1710.11" type="curve" smooth="yes"/>
      <point x="1333.45" y="1930.84"/>
      <point x="847.88" y="1942.73"/>
      <point x="693.316" y="1942.73" type="curve" smooth="yes"/>
      <point x="666.664" y="1942.73"/>
      <point x="641.726" y="1942.38"/>
      <point x="619.725" y="1935.77" type="curve"/>
      <point x="630.68" y="1924.59"/>
      <point x="649.056" y="1920.69"/>
      <point x="661.504" y="1909.66" type="curve"/>
      <point x="659.763" y="1892.25" type="line"/>
      <point x="645.432" y="1882.92"/>
      <point x="632.663" y="1880.06"/>
      <point x="619.785" y="1880.06" type="curve" smooth="yes"/>
      <point x="562.975" y="1880.06"/>
      <point x="459.571" y="1935.6"/>
      <point x="459.571" y="1987.58" type="curve" smooth="yes"/>
      <point x="459.571" y="2030.05"/>
      <point x="528.599" y="2036.74"/>
    </contour>
  </outline>
</glyph>
<glyph name="four" format="1">
  <advance width="1761.72"/>
  <unicode hex="0034"/>
  <outline>
    <contour>
      <point x="850.023" y="1014.48" type="curve" smooth="yes"/>
      <point x="850.023" y="1023.21"/>
      <point x="850.651" y="1032.67"/>
      <point x="855.245" y="1040.34" type="curve"/>
      <point x="870.694" y="1033.94"/>
      <point x="888.321" y="1011.75"/>
      <point x="888.321" y="994.683" type="curve" smooth="yes"/>
      <point x="888.321" y="984.512"/>
      <point x="882.345" y="975.928"/>
      <point x="871.508" y="975.928" type="curve" smooth="yes"/>
      <point x="852.565" y="975.928"/>
      <point x="850.023" y="1000.29"/>
    </contour>
    <contour>
      <point x="949.259" y="1922.92" type="curve" smooth="yes"/>
      <point x="975.556" y="1922.92"/>
      <point x="978.842" y="1875.43"/>
      <point x="978.842" y="1857.15" type="curve" smooth="yes"/>
      <point x="978.842" y="1790.21"/>
      <point x="925.725" y="1623.91"/>
      <point x="888.321" y="1567.8" type="curve"/>
      <point x="881.357" y="1578.24" type="line"/>
      <point x="883.829" y="1659.4"/>
      <point x="940.545" y="1729.29"/>
      <point x="940.545" y="1811.51" type="curve" smooth="yes"/>
      <point x="940.545" y="1816.4"/>
      <point x="940.623" y="1829.14"/>
      <point x="932.833" y="1829.14" type="curve" smooth="yes"/>
      <point x="929.499" y="1829.14"/>
      <point x="918.54" y="1820.9"/>
      <point x="916.173" y="1818.48" type="curve" smooth="yes"/>
      <point x="893.95" y="1795.69"/>
      <point x="882.064" y="1767.84"/>
      <point x="871.323" y="1738.42" type="curve" smooth="yes"/>
      <point x="781.381" y="1492.1"/>
      <point x="418.305" y="1051.94"/>
      <point x="418.305" y="811.359" type="curve" smooth="yes"/>
      <point x="418.305" y="768.865"/>
      <point x="433.568" y="728.734"/>
      <point x="482.563" y="728.734" type="curve" smooth="yes"/>
      <point x="585.402" y="728.734"/>
      <point x="884.465" y="851.178"/>
      <point x="1002.42" y="887.787" type="curve" smooth="yes"/>
      <point x="1028.49" y="895.878"/>
      <point x="1054.86" y="902.177"/>
      <point x="1081.7" y="907.132" type="curve" smooth="yes"/>
      <point x="1108.33" y="912.049"/>
      <point x="1230.92" y="926.018"/>
      <point x="1247.16" y="938.193" type="curve" smooth="yes"/>
      <point x="1301.91" y="979.227"/>
      <point x="1329.14" y="1455.39"/>
      <point x="1336.34" y="1550.15" type="curve" smooth="yes"/>
      <point x="1339.41" y="1590.5"/>
      <point x="1352.51" y="1835.88"/>
      <point x="1401.1" y="1835.88" type="curve" smooth="yes"/>
      <point x="1422.5" y="1835.88"/>
      <point x="1441.42" y="1877.8"/>
      <point x="1465.85" y="1877.8" type="curve" smooth="yes"/>
      <point x="1469.8" y="1877.8"/>
      <point x="1469.92" y="1871.97"/>
      <point x="1469.92" y="1869.96" type="curve"/>
      <point x="1469.75" y="1867.22" type="line" smooth="yes"/>
      <point x="1467.22" y="1855.73"/>
      <point x="1447.84" y="1822.89"/>
      <point x="1441.98" y="1811.15" type="curve" smooth="yes"/>
      <point x="1426.45" y="1780.03"/>
      <point x="1413.07" y="1749.01"/>
      <point x="1405.65" y="1714.9" type="curve" smooth="yes"/>
      <point x="1397.78" y="1678.73"/>
      <point x="1399.39" y="1636.77"/>
      <point x="1398.13" y="1599.93" type="curve" smooth="yes"/>
      <point x="1396.18" y="1542.84"/>
      <point x="1394.31" y="1485.74"/>
      <point x="1392.09" y="1428.65" type="curve" smooth="yes"/>
      <point x="1385.66" y="1263.05"/>
      <point x="1371.97" y="1093.35"/>
      <point x="1323.52" y="934.149" type="curve"/>
      <point x="1384.98" y="939.968"/>
      <point x="1446.14" y="951.557"/>
      <point x="1508.04" y="951.557" type="curve" smooth="yes"/>
      <point x="1515.45" y="951.557"/>
      <point x="1523.33" y="949.738"/>
      <point x="1528.93" y="944.594" type="curve"/>
      <point x="1493.89" y="884.243"/>
      <point x="1385.43" y="900.479"/>
      <point x="1335.74" y="862.426" type="curve" smooth="yes"/>
      <point x="1280.78" y="820.342"/>
      <point x="1255.16" y="603.91"/>
      <point x="1248.31" y="531.367" type="curve" smooth="yes"/>
      <point x="1240.28" y="446.4"/>
      <point x="1229.33" y="361.545"/>
      <point x="1217.44" y="277.042" type="curve" smooth="yes"/>
      <point x="1209.67" y="221.858"/>
      <point x="1204.12" y="162.108"/>
      <point x="1187.35" y="108.823" type="curve" smooth="yes"/>
      <point x="1179.57" y="84.1471"/>
      <point x="1177.29" y="57.9331"/>
      <point x="1177.29" y="32.1444" type="curve" smooth="yes"/>
      <point x="1177.29" y="14.3129"/>
      <point x="1175.55" y="-26.7728"/>
      <point x="1149.44" y="-26.7728" type="curve" smooth="yes"/>
      <point x="1142.11" y="-26.7728"/>
      <point x="1138.78" y="-22.4507"/>
      <point x="1132.45" y="-18.7557" type="curve" smooth="yes"/>
      <point x="1100.92" y="-0.343824"/>
      <point x="1090.25" y="30.9557"/>
      <point x="1090.25" y="65.8696" type="curve" smooth="yes"/>
      <point x="1090.25" y="88.8784"/>
      <point x="1092.71" y="99.0745"/>
      <point x="1105.78" y="117.305" type="curve" smooth="yes"/>
      <point x="1139.07" y="163.718"/>
      <point x="1144.31" y="230.865"/>
      <point x="1152.61" y="286.261" type="curve" smooth="yes"/>
      <point x="1160.27" y="337.317"/>
      <point x="1166.14" y="388.573"/>
      <point x="1172.59" y="439.786" type="curve" smooth="yes"/>
      <point x="1183.99" y="530.233"/>
      <point x="1201.33" y="619.869"/>
      <point x="1216.68" y="709.695" type="curve" smooth="yes"/>
      <point x="1224.66" y="756.384"/>
      <point x="1236.06" y="806.587"/>
      <point x="1236.48" y="854.072" type="curve"/>
      <point x="1224.08" y="863.406"/>
      <point x="1207.89" y="864.517"/>
      <point x="1193" y="864.517" type="curve" smooth="yes"/>
      <point x="1122.02" y="864.517"/>
      <point x="1063.64" y="819.256"/>
      <point x="1011.42" y="819.256" type="curve" smooth="yes"/>
      <point x="978.823" y="819.256"/>
      <point x="923.365" y="797.671"/>
      <point x="892.766" y="785.887" type="curve" smooth="yes"/>
      <point x="791.811" y="747.01"/>
      <point x="598.186" y="655.621"/>
      <point x="495.898" y="655.621" type="curve" smooth="yes"/>
      <point x="404.057" y="655.621"/>
      <point x="362.598" y="730.03"/>
      <point x="362.598" y="813.106" type="curve" smooth="yes"/>
      <point x="362.598" y="1042.29"/>
      <point x="713.355" y="1523.4"/>
      <point x="826.483" y="1750.1" type="curve" smooth="yes"/>
      <point x="844.746" y="1786.7"/>
      <point x="904.666" y="1922.92"/>
    </contour>
  </outline>
</glyph>
<glyph name="five" format="1">
  <advance width="822.8"/>
  <unicode hex="0035"/>
  <outline>
    <contour>
      <point x="54.4" y="221" type="curve"/>
      <point x="54.4" y="223.726"/>
      <point x="54.6475" y="227.083"/>
      <point x="56.1" y="229.5" type="curve"/>
      <point x="59.4741" y="227.969"/>
      <point x="65.1254" y="223.15"/>
      <point x="65.1254" y="219.196" type="curve"/>
      <point x="65.1254" y="216.835"/>
      <point x="63.3051" y="215.037"/>
      <point x="61.2" y="214.2" type="curve"/>
      <point x="58.2823" y="215.169"/>
      <point x="54.4" y="217.53"/>
    </contour>
    <contour>
      <point x="225.284" y="1047.54" type="curve"/>
      <point x="232.9" y="1042.1" type="line"/>
      <point x="233.679" y="1038.53"/>
      <point x="232.9" y="1035.46"/>
      <point x="232.9" y="1028.13" type="curve" smooth="yes"/>
      <point x="232.9" y="1023.69"/>
      <point x="232.615" y="1020.11"/>
      <point x="235.245" y="1018.17" type="curve" smooth="yes"/>
      <point x="257.28" y="1001.98"/>
      <point x="653.316" y="977.5"/>
      <point x="693.6" y="977.5" type="curve" smooth="yes"/>
      <point x="719.1" y="977.5" type="line" smooth="yes"/>
      <point x="738.299" y="977.5"/>
      <point x="780.707" y="978.143"/>
      <point x="798.788" y="972.719" type="curve"/>
      <point x="800.396" y="972.236"/>
      <point x="804.018" y="971.266"/>
      <point x="804.1" y="969" type="curve"/>
      <point x="769.043" y="951.462"/>
      <point x="712.639" y="946.9"/>
      <point x="651.379" y="946.9" type="curve" smooth="yes"/>
      <point x="524.622" y="946.9"/>
      <point x="374.297" y="966.433"/>
      <point x="226.1" y="975.8" type="curve"/>
      <point x="221" y="975.8" type="line" smooth="yes"/>
      <point x="195.511" y="975.8"/>
      <point x="120.7" y="769.647"/>
      <point x="120.7" y="689.733" type="curve" smooth="yes"/>
      <point x="120.7" y="511.054"/>
      <point x="494.7" y="718.839"/>
      <point x="494.7" y="514.143" type="curve" smooth="yes"/>
      <point x="494.7" y="373.193"/>
      <point x="317.367" y="115.6"/>
      <point x="160.849" y="115.6" type="curve" smooth="yes"/>
      <point x="155.888" y="115.6"/>
      <point x="132.334" y="115.859"/>
      <point x="112.077" y="121.928" type="curve" smooth="yes"/>
      <point x="55.7584" y="138.8"/>
      <point x="18.7" y="202.44"/>
      <point x="18.7" y="256.728" type="curve" smooth="yes"/>
      <point x="18.7" y="281.425"/>
      <point x="26.3692" y="380.157"/>
      <point x="56.1" y="389.3" type="curve"/>
      <point x="57.3954" y="387.823"/>
      <point x="57.6112" y="384.674"/>
      <point x="57.6112" y="383.004" type="curve"/>
      <point x="57.6112" y="360.401"/>
      <point x="42.5001" y="336.923"/>
      <point x="42.5001" y="312.8" type="curve"/>
      <point x="42.5001" y="310.066"/>
      <point x="43.5389" y="306.121"/>
      <point x="45.9001" y="304.3" type="curve"/>
      <point x="52.9161" y="302.158"/>
      <point x="52.7001" y="287.424"/>
      <point x="52.7001" y="282.979" type="curve" smooth="yes"/>
      <point x="52.7001" y="241.648"/>
      <point x="34.0288" y="250.532"/>
      <point x="33.8584" y="241.093" type="curve"/>
      <point x="39.4334" y="228.699"/>
      <point x="45.9001" y="227.293"/>
      <point x="45.9001" y="214.784" type="curve" smooth="yes"/>
      <point x="45.9001" y="167.183"/>
      <point x="139.545" y="136"/>
      <point x="176.41" y="136" type="curve" smooth="yes"/>
      <point x="214.222" y="136"/>
      <point x="256.502" y="168.805"/>
      <point x="294.579" y="203.542" type="curve" smooth="yes"/>
      <point x="363.878" y="266.762"/>
      <point x="462.4" y="375.74"/>
      <point x="462.4" y="483.314" type="curve" smooth="yes"/>
      <point x="462.4" y="691.472"/>
      <point x="93.5001" y="467.018"/>
      <point x="93.5001" y="699.743" type="curve" smooth="yes"/>
      <point x="93.5001" y="813.668"/>
      <point x="181.9" y="951.196"/>
      <point x="181.9" y="984.592" type="curve" smooth="yes"/>
      <point x="181.9" y="1009.1"/>
      <point x="134.3" y="1000.52"/>
      <point x="134.3" y="1021.93" type="curve" smooth="yes"/>
      <point x="134.3" y="1031.2"/>
      <point x="143.208" y="1034.4"/>
      <point x="152.829" y="1034.4" type="curve" smooth="yes"/>
      <point x="165.112" y="1034.4"/>
      <point x="176.469" y="1029.18"/>
      <point x="187.563" y="1029.18" type="curve" smooth="yes"/>
      <point x="208.072" y="1029.18"/>
      <point x="211.142" y="1047.02"/>
    </contour>
  </outline>
</glyph>
<glyph name="six" format="1">
  <advance width="1089.74"/>
  <unicode hex="0036"/>
  <outline>
    <contour>
      <point x="858.739" y="2127.26" type="curve" smooth="yes"/>
      <point x="884.888" y="2127.26"/>
      <point x="923.427" y="2075.42"/>
      <point x="923.427" y="2039.07" type="curve" smooth="yes"/>
      <point x="923.427" y="2016.2"/>
      <point x="908.168" y="1924.84"/>
      <point x="880.063" y="1923.34" type="curve"/>
      <point x="871.231" y="1928.48"/>
      <point x="869.529" y="1940.58"/>
      <point x="869.529" y="1948.54" type="curve" smooth="yes"/>
      <point x="869.529" y="1977"/>
      <point x="891.289" y="1992.64"/>
      <point x="891.289" y="2017.36" type="curve" smooth="yes"/>
      <point x="891.289" y="2046.91"/>
      <point x="860.177" y="2050.66"/>
      <point x="841.793" y="2050.66" type="curve" smooth="yes"/>
      <point x="827.735" y="2050.66"/>
      <point x="815.513" y="2048.47"/>
      <point x="793.38" y="2045.94" type="curve" smooth="yes"/>
      <point x="268.97" y="1986.07"/>
      <point x="111.411" y="1518.72"/>
      <point x="111.411" y="1147.3" type="curve" smooth="yes"/>
      <point x="111.411" y="982.023"/>
      <point x="142.612" y="602.776"/>
      <point x="205.414" y="602.317" type="curve"/>
      <point x="213.106" y="598.975"/>
      <point x="219.341" y="589.856"/>
      <point x="219.341" y="574.933" type="curve" smooth="yes"/>
      <point x="219.341" y="496.236"/>
      <point x="392.713" y="424.755"/>
      <point x="482.879" y="424.755" type="curve" smooth="yes"/>
      <point x="674.695" y="424.755"/>
      <point x="981.811" y="748.261"/>
      <point x="981.811" y="979.243" type="curve" smooth="yes"/>
      <point x="981.811" y="1143.27"/>
      <point x="826.943" y="1218.56"/>
      <point x="682.712" y="1218.56" type="curve" smooth="yes"/>
      <point x="628.992" y="1218.56"/>
      <point x="595.692" y="1208.12"/>
      <point x="542.332" y="1208.12" type="curve" smooth="yes"/>
      <point x="426.067" y="1208.12"/>
      <point x="338.483" y="1158.53"/>
      <point x="267.981" y="1044.32" type="curve" smooth="yes"/>
      <point x="251.216" y="1017.16"/>
      <point x="233.613" y="983.42"/>
      <point x="233.216" y="945.656" type="curve" smooth="yes"/>
      <point x="232.953" y="920.595"/>
      <point x="240.23" y="890.207"/>
      <point x="240.23" y="865.562" type="curve" smooth="yes"/>
      <point x="240.23" y="850.367"/>
      <point x="237.464" y="835.858"/>
      <point x="229.785" y="828.621" type="curve"/>
      <point x="195.936" y="846.651"/>
      <point x="163.635" y="886.304"/>
      <point x="163.635" y="944.787" type="curve" smooth="yes"/>
      <point x="163.635" y="1108.05"/>
      <point x="415.377" y="1288.19"/>
      <point x="614.707" y="1288.19" type="curve" smooth="yes"/>
      <point x="720.391" y="1288.19"/>
      <point x="921.126" y="1237.55"/>
      <point x="991.604" y="1133.19" type="curve" smooth="yes"/>
      <point x="1020.21" y="1090.82"/>
      <point x="1051.44" y="1003.94"/>
      <point x="1051.44" y="937.057" type="curve" smooth="yes"/>
      <point x="1051.44" y="718.468"/>
      <point x="717.901" y="362.086"/>
      <point x="441.778" y="362.086" type="curve" smooth="yes"/>
      <point x="138.173" y="362.086"/>
      <point x="38.2974" y="792.939"/>
      <point x="38.2974" y="1082.78" type="curve" smooth="yes"/>
      <point x="38.2974" y="1472.28"/>
      <point x="218.659" y="1977.93"/>
      <point x="625.242" y="2063.71" type="curve" smooth="yes"/>
      <point x="708.234" y="2081.22"/>
      <point x="834.095" y="2127.26"/>
    </contour>
  </outline>
</glyph>
<glyph name="seven" format="1">
  <advance width="1675.47"/>
  <unicode hex="0037"/>
  <outline>
    <contour>
      <point x="1219.46" y="1788.59" type="curve" smooth="yes"/>
      <point x="1269.09" y="1788.59"/>
      <point x="1422.72" y="1772.47"/>
      <point x="1422.72" y="1704.24" type="curve" smooth="yes"/>
      <point x="1422.72" y="1630.31"/>
      <point x="1300.37" y="1489.76"/>
      <point x="1256.31" y="1425.07" type="curve" smooth="yes"/>
      <point x="1201.23" y="1344.19"/>
      <point x="976.935" y="940.663"/>
      <point x="969.225" y="873.822" type="curve"/>
      <point x="1001.94" y="849.875"/>
      <point x="1360.77" y="882.621"/>
      <point x="1363.59" y="832.527" type="curve"/>
      <point x="1352.2" y="822.705" type="line"/>
      <point x="1285.79" y="801.592"/>
      <point x="1215.21" y="797.113"/>
      <point x="1145.43" y="797.113" type="curve" smooth="yes"/>
      <point x="1074.39" y="797.113"/>
      <point x="1005.11" y="802.581"/>
      <point x="934.409" y="807.594" type="curve"/>
      <point x="879.86" y="666.062"/>
      <point x="792.38" y="521.878"/>
      <point x="772.82" y="370.21" type="curve" smooth="yes"/>
      <point x="763.809" y="300.337"/>
      <point x="712.694" y="-45.6116"/>
      <point x="630.151" y="-45.6116" type="curve" smooth="yes"/>
      <point x="600.885" y="-45.6116"/>
      <point x="596.693" y="-1.73354"/>
      <point x="596.693" y="19.4842" type="curve" smooth="yes"/>
      <point x="596.693" y="46.3579"/>
      <point x="610.228" y="184.387"/>
      <point x="645.38" y="184.387" type="curve" smooth="yes"/>
      <point x="690.949" y="184.387"/>
      <point x="721.764" y="439.527"/>
      <point x="734.256" y="483.942" type="curve" smooth="yes"/>
      <point x="749.187" y="537.031"/>
      <point x="847.369" y="756.536"/>
      <point x="847.369" y="781.644" type="curve" smooth="yes"/>
      <point x="847.369" y="805.373"/>
      <point x="715.93" y="806.565"/>
      <point x="693.748" y="807.451" type="curve" smooth="yes"/>
      <point x="645.494" y="809.377"/>
      <point x="412.169" y="861.492"/>
      <point x="412.169" y="918.063" type="curve" smooth="yes"/>
      <point x="412.169" y="945.717"/>
      <point x="471.565" y="946.858"/>
      <point x="490.289" y="946.858" type="curve" smooth="yes"/>
      <point x="538.301" y="946.858"/>
      <point x="582.617" y="937.288"/>
      <point x="628.028" y="922.487" type="curve"/>
      <point x="615.153" y="915.319"/>
      <point x="597.164" y="912.087"/>
      <point x="587.796" y="900.436" type="curve"/>
      <point x="605.165" y="876.683"/>
      <point x="700.29" y="877.145"/>
      <point x="728.935" y="877.145" type="curve"/>
      <point x="864.476" y="877.226" type="line"/>
      <point x="934.637" y="971.059"/>
      <point x="981.215" y="1072.98"/>
      <point x="1048.94" y="1199.17" type="curve" smooth="yes"/>
      <point x="1062.06" y="1223.6"/>
      <point x="1117.74" y="1308.11"/>
      <point x="1123.3" y="1325.54" type="curve"/>
      <point x="1152.17" y="1374.71"/>
      <point x="1339.16" y="1670.31"/>
      <point x="1339.16" y="1695.16" type="curve" smooth="yes"/>
      <point x="1339.16" y="1713.25"/>
      <point x="1232.69" y="1712.01"/>
      <point x="1216.27" y="1712.01" type="curve" smooth="yes"/>
      <point x="1096.6" y="1712.01"/>
      <point x="976.565" y="1704.33"/>
      <point x="860.455" y="1673.6" type="curve" smooth="yes"/>
      <point x="814.411" y="1661.41"/>
      <point x="768.111" y="1652.81"/>
      <point x="720.335" y="1652.81" type="curve" smooth="yes"/>
      <point x="650.343" y="1652.81"/>
      <point x="582.179" y="1634.96"/>
      <point x="516.548" y="1612.02" type="curve" smooth="yes"/>
      <point x="490.557" y="1602.93"/>
      <point x="426.739" y="1576.21"/>
      <point x="401.31" y="1576.21" type="curve" smooth="yes"/>
      <point x="365.512" y="1576.21"/>
      <point x="280.758" y="1633.75"/>
      <point x="280.758" y="1663.25" type="curve" smooth="yes"/>
      <point x="280.758" y="1680.32"/>
      <point x="304.437" y="1680.45"/>
      <point x="315.394" y="1680.45" type="curve" smooth="yes"/>
      <point x="342.765" y="1680.45"/>
      <point x="369.743" y="1673.7"/>
      <point x="396.985" y="1673.7" type="curve" smooth="yes"/>
      <point x="426.643" y="1673.7"/>
      <point x="457.732" y="1681.95"/>
      <point x="486.849" y="1687.12" type="curve" smooth="yes"/>
      <point x="546.839" y="1697.78"/>
      <point x="607.188" y="1704.45"/>
      <point x="667.573" y="1712.21" type="curve" smooth="yes"/>
      <point x="780.432" y="1726.73"/>
      <point x="904.953" y="1761.9"/>
      <point x="1017.43" y="1761.9" type="curve" smooth="yes"/>
      <point x="1086.49" y="1761.9"/>
      <point x="1151.56" y="1788.59"/>
    </contour>
  </outline>
</glyph>
<glyph name="eight" format="1">
  <advance width="1068.85"/>
  <unicode hex="0038"/>
  <outline>
    <contour>
      <point x="628.209" y="1218.56" type="curve" smooth="yes"/>
      <point x="525.724" y="1218.56"/>
      <point x="155.247" y="829.661"/>
      <point x="143.878" y="731.807" type="curve" smooth="yes"/>
      <point x="139.914" y="697.68"/>
      <point x="87.04" y="583.116"/>
      <point x="87.04" y="545.667" type="curve" smooth="yes"/>
      <point x="87.04" y="498.694"/>
      <point x="170.223" y="473.498"/>
      <point x="220.67" y="473.498" type="curve" smooth="yes"/>
      <point x="361.969" y="473.498"/>
      <point x="974.848" y="671.17"/>
      <point x="974.848" y="843.662" type="curve" smooth="yes"/>
      <point x="974.848" y="956.555"/>
      <point x="712.328" y="1218.56"/>
    </contour>
    <contour>
      <point x="745.062" y="1667.69" type="curve"/>
      <point x="696.874" y="1674.26"/>
      <point x="647.352" y="1674.65"/>
      <point x="637.603" y="1674.65" type="curve" smooth="yes"/>
      <point x="582.417" y="1674.65"/>
      <point x="384.813" y="1687.17"/>
      <point x="410.925" y="1543.56" type="curve" smooth="yes"/>
      <point x="418.459" y="1502.12"/>
      <point x="443.847" y="1451.95"/>
      <point x="529.964" y="1380.81" type="curve" smooth="yes"/>
      <point x="566.047" y="1351"/>
      <point x="579.86" y="1344.72"/>
      <point x="597.644" y="1344.72" type="curve" smooth="yes"/>
      <point x="686.599" y="1344.72"/>
      <point x="828.319" y="1501.97"/>
      <point x="904.88" y="1537.11" type="curve" smooth="yes"/>
      <point x="926.127" y="1546.87"/>
      <point x="940.032" y="1560.35"/>
      <point x="940.032" y="1582.6" type="curve" smooth="yes"/>
      <point x="940.032" y="1663.37"/>
      <point x="756.772" y="1645.16"/>
    </contour>
    <contour>
      <point x="1006.18" y="1609.27" type="curve" smooth="yes"/>
      <point x="1006.18" y="1472.24"/>
      <point x="664.986" y="1305.76"/>
      <point x="664.986" y="1278.39" type="curve" smooth="yes"/>
      <point x="664.986" y="1250.07"/>
      <point x="1030.55" y="1101.12"/>
      <point x="1030.55" y="902.61" type="curve" smooth="yes"/>
      <point x="1030.55" y="674.571"/>
      <point x="548.116" y="491.298"/>
      <point x="376.55" y="454.604" type="curve" smooth="yes"/>
      <point x="345.92" y="448.054"/>
      <point x="273.887" y="435.2"/>
      <point x="219.486" y="435.2" type="curve" smooth="yes"/>
      <point x="87.1683" y="435.2"/>
      <point x="38.2976" y="511.238"/>
      <point x="38.2976" y="593.821" type="curve" smooth="yes"/>
      <point x="38.2976" y="814.485"/>
      <point x="387.22" y="1162.69"/>
      <point x="543.13" y="1270.78" type="curve"/>
      <point x="439.788" y="1393.52"/>
      <point x="330.752" y="1463.75"/>
      <point x="330.752" y="1635.74" type="curve" smooth="yes"/>
      <point x="330.752" y="1826.14"/>
      <point x="464.393" y="1925.42"/>
      <point x="629.781" y="2016.72" type="curve" smooth="yes"/>
      <point x="669.733" y="2038.78"/>
      <point x="750.72" y="2082"/>
      <point x="836.079" y="2082" type="curve" smooth="yes"/>
      <point x="885.537" y="2082"/>
      <point x="943.309" y="2067.49"/>
      <point x="943.309" y="2004.19" type="curve" smooth="yes"/>
      <point x="943.309" y="1946.53"/>
      <point x="895.377" y="1910.28"/>
      <point x="859.955" y="1897.47" type="curve"/>
      <point x="846.029" y="1911.4" type="line"/>
      <point x="846.142" y="1941.85"/>
      <point x="884.326" y="1954.18"/>
      <point x="884.326" y="1984.81" type="curve" smooth="yes"/>
      <point x="884.326" y="2015.92"/>
      <point x="844.945" y="2019.33"/>
      <point x="825.595" y="2019.33" type="curve" smooth="yes"/>
      <point x="773.854" y="2019.33"/>
      <point x="759.945" y="1994.96"/>
      <point x="732.701" y="1994.96" type="curve" smooth="yes"/>
      <point x="663.456" y="1994.96"/>
      <point x="411.065" y="1837.52"/>
      <point x="410.829" y="1747.76" type="curve"/>
      <point x="542.211" y="1724.97"/>
      <point x="687.89" y="1723.39"/>
      <point x="738.627" y="1723.39" type="curve" smooth="yes"/>
      <point x="836.773" y="1723.39"/>
      <point x="849.287" y="1717.48"/>
      <point x="858.515" y="1711.52" type="curve" smooth="yes"/>
      <point x="909.426" y="1678.64"/>
      <point x="1006.18" y="1682.25"/>
    </contour>
  </outline>
</glyph>
<glyph name="nine" format="1">
  <advance width="1645.75"/>
  <unicode hex="0039"/>
  <outline>
    <contour>
      <point x="1305.16" y="1513" type="curve" smooth="yes"/>
      <point x="1305.16" y="1533"/>
      <point x="1300.16" y="1544"/>
      <point x="1280.16" y="1552" type="curve"/>
      <point x="1242.16" y="1552"/>
      <point x="1242.16" y="1439"/>
      <point x="1242.16" y="1413" type="curve" smooth="yes"/>
      <point x="1242.16" y="1385"/>
      <point x="1242.16" y="1355"/>
      <point x="1252.16" y="1329" type="curve"/>
      <point x="1288.16" y="1351"/>
      <point x="1305.16" y="1473"/>
    </contour>
    <contour>
      <point x="1046.16" y="1857" type="curve" smooth="yes"/>
      <point x="1081.16" y="1857"/>
      <point x="1120.16" y="1821"/>
      <point x="1120.16" y="1785" type="curve" smooth="yes"/>
      <point x="1120.16" y="1773"/>
      <point x="1113.16" y="1728"/>
      <point x="1095.16" y="1728" type="curve" smooth="yes"/>
      <point x="1091.16" y="1728"/>
      <point x="1087.16" y="1729"/>
      <point x="1084.16" y="1730" type="curve"/>
      <point x="1073.16" y="1756"/>
      <point x="1081.16" y="1798"/>
      <point x="1041.16" y="1798" type="curve" smooth="yes"/>
      <point x="1014.16" y="1798"/>
      <point x="969.133" y="1781.07"/>
      <point x="943.159" y="1771" type="curve" smooth="yes"/>
      <point x="680.133" y="1669.07"/>
      <point x="449.159" y="1391"/>
      <point x="449.159" y="1100" type="curve" smooth="yes"/>
      <point x="449.159" y="974"/>
      <point x="507.159" y="754"/>
      <point x="667.159" y="754" type="curve" smooth="yes"/>
      <point x="845.159" y="754"/>
      <point x="1121.29" y="1032.96"/>
      <point x="1168.16" y="1197" type="curve" smooth="yes"/>
      <point x="1191.29" y="1277.96"/>
      <point x="1181.66" y="1389.01"/>
      <point x="1184.16" y="1474" type="curve" smooth="yes"/>
      <point x="1185.66" y="1525.02"/>
      <point x="1193.16" y="1603"/>
      <point x="1260.16" y="1603" type="curve" smooth="yes"/>
      <point x="1334.16" y="1603"/>
      <point x="1350.16" y="1509"/>
      <point x="1350.16" y="1452" type="curve" smooth="yes"/>
      <point x="1350.16" y="1346"/>
      <point x="1283.08" y="1235.03"/>
      <point x="1243.16" y="1138" type="curve" smooth="yes"/>
      <point x="1211.08" y="1060.03"/>
      <point x="1189.78" y="981.058"/>
      <point x="1177.16" y="897" type="curve" smooth="yes"/>
      <point x="1139.78" y="648.057"/>
      <point x="1071.18" y="425.215"/>
      <point x="1071.18" y="199.062" type="curve" smooth="yes"/>
      <point x="1071.18" y="163.374"/>
      <point x="1072.04" y="-18.7653"/>
      <point x="1014.88" y="-18.7653" type="curve" smooth="yes"/>
      <point x="989.94" y="-18.7653"/>
      <point x="987.595" y="15.2066"/>
      <point x="987.595" y="30.0718" type="curve" smooth="yes"/>
      <point x="987.595" y="43.6723"/>
      <point x="989.584" y="55.2093"/>
      <point x="994.045" y="67.9116" type="curve" smooth="yes"/>
      <point x="1008.99" y="110.47"/>
      <point x="1009.67" y="162.014"/>
      <point x="1013.04" y="206.567" type="curve" smooth="yes"/>
      <point x="1019.55" y="292.868"/>
      <point x="1021.06" y="380.927"/>
      <point x="1033.65" y="466.599" type="curve" smooth="yes"/>
      <point x="1051.4" y="587.345"/>
      <point x="1103.16" y="702"/>
      <point x="1103.16" y="840" type="curve" smooth="yes"/>
      <point x="1103.16" y="881"/>
      <point x="1111.16" y="919"/>
      <point x="1117.16" y="959" type="curve"/>
      <point x="1114.16" y="966" type="line"/>
      <point x="992.159" y="873"/>
      <point x="856.159" y="695"/>
      <point x="691.159" y="695" type="curve" smooth="yes"/>
      <point x="648.159" y="695"/>
      <point x="606.132" y="707.952"/>
      <point x="568.159" y="729" type="curve" smooth="yes"/>
      <point x="431.132" y="804.952"/>
      <point x="389.159" y="929"/>
      <point x="389.159" y="1078" type="curve" smooth="yes"/>
      <point x="389.159" y="1281"/>
      <point x="465.34" y="1465.81"/>
      <point x="610.159" y="1608" type="curve" smooth="yes"/>
      <point x="630.341" y="1627.82"/>
      <point x="733.159" y="1725"/>
      <point x="753.159" y="1725" type="curve" smooth="yes"/>
      <point x="764.159" y="1725"/>
      <point x="790.219" y="1748.92"/>
      <point x="799.159" y="1756" type="curve" smooth="yes"/>
      <point x="838.22" y="1786.92"/>
      <point x="997.159" y="1857"/>
    </contour>
  </outline>
</glyph>
<glyph name="colon" format="1">
  <advance width="248.2"/>
  <unicode hex="003A"/>
  <outline>
    <contour>
      <point x="137.7" y="348.5" type="curve"/>
      <point x="150.722" y="332.556"/>
      <point x="162.287" y="312.8"/>
      <point x="186.701" y="312.8" type="curve" smooth="yes"/>
      <point x="194.41" y="312.8"/>
      <point x="207.4" y="310.83"/>
      <point x="207.4" y="298.042" type="curve" smooth="yes"/>
      <point x="207.4" y="286.566"/>
      <point x="196.94" y="279.222"/>
      <point x="189.789" y="275.249" type="curve" smooth="yes"/>
      <point x="153.725" y="255.216"/>
      <point x="147.045" y="212.5"/>
      <point x="98.6" y="212.5" type="curve"/>
      <point x="95.948" y="212.5"/>
      <point x="92.7067" y="213.679"/>
      <point x="90.1" y="214.2" type="curve"/>
      <point x="85.9578" y="218.355"/>
      <point x="80.2923" y="221.272"/>
      <point x="72.6441" y="221.272" type="curve" smooth="yes"/>
      <point x="48.1844" y="221.272"/>
      <point x="47.1594" y="191.439"/>
      <point x="29.6556" y="191.439" type="curve"/>
      <point x="27.481" y="191.439"/>
      <point x="24.1886" y="193.147"/>
      <point x="22.1" y="193.8" type="curve"/>
      <point x="20.1331" y="196.027"/>
      <point x="18.7" y="199.316"/>
      <point x="18.7" y="202.3" type="curve"/>
      <point x="18.7" y="247.147"/>
      <point x="109.513" y="318.203"/>
    </contour>
    <contour>
      <point x="229.5" y="791.487" type="curve" smooth="yes"/>
      <point x="229.5" y="780.989"/>
      <point x="199.398" y="754.782"/>
      <point x="193.8" y="749.7" type="curve" smooth="yes"/>
      <point x="188.202" y="744.618"/>
      <point x="158.1" y="718.411"/>
      <point x="158.1" y="705.94" type="curve" smooth="yes"/>
      <point x="158.1" y="701.172"/>
      <point x="153.7" y="691.115"/>
      <point x="143.062" y="691.115" type="curve"/>
      <point x="133.988" y="691.115"/>
      <point x="128.35" y="703.424"/>
      <point x="119" y="698.7" type="curve"/>
      <point x="117.993" y="698.684" type="line"/>
      <point x="81.3437" y="698.684"/>
      <point x="67.1" y="705.503"/>
      <point x="67.1" y="729.511" type="curve" smooth="yes"/>
      <point x="67.1" y="757.601"/>
      <point x="47.6" y="760.294"/>
      <point x="47.6" y="773.071" type="curve" smooth="yes"/>
      <point x="47.6" y="789.059"/>
      <point x="78.1334" y="788.8"/>
      <point x="82.3989" y="788.8" type="curve" smooth="yes"/>
      <point x="105.836" y="788.8"/>
      <point x="127.793" y="780.98"/>
      <point x="142.053" y="780.98" type="curve" smooth="yes"/>
      <point x="163.701" y="780.98"/>
      <point x="186.17" y="799"/>
      <point x="211.831" y="799" type="curve" smooth="yes"/>
      <point x="217.636" y="799"/>
      <point x="229.5" y="798.078"/>
    </contour>
  </outline>
</glyph>
<glyph name="question" format="1">
  <advance width="1518.13"/>
  <unicode hex="003F"/>
  <outline>
    <contour>
      <point x="623.231" y="141.427" type="curve" smooth="yes"/>
      <point x="671.377" y="141.427"/>
      <point x="809.175" y="115.692"/>
      <point x="809.175" y="51.5388" type="curve" smooth="yes"/>
      <point x="809.175" y="3.79561"/>
      <point x="729.875" y="-25.6896"/>
      <point x="690.481" y="-25.6896" type="curve" smooth="yes"/>
      <point x="637.258" y="-25.6896"/>
      <point x="527.165" y="21.3992"/>
      <point x="527.165" y="84.3219" type="curve" smooth="yes"/>
      <point x="527.165" y="131.565"/>
      <point x="586.861" y="141.427"/>
    </contour>
    <contour>
      <point x="172.31" y="1382.51" type="curve" smooth="yes"/>
      <point x="172.31" y="1398.7"/>
      <point x="201.512" y="1420.55"/>
      <point x="216.735" y="1420.67" type="curve"/>
      <point x="231.229" y="1413.95" type="line"/>
      <point x="234.311" y="1410.51"/>
      <point x="236.294" y="1406.07"/>
      <point x="236.294" y="1401.41" type="curve" smooth="yes"/>
      <point x="236.294" y="1386.47"/>
      <point x="211.573" y="1360.91"/>
      <point x="196.558" y="1360.79" type="curve"/>
      <point x="187.894" y="1365.2"/>
      <point x="172.31" y="1370.72"/>
    </contour>
    <contour>
      <point x="943.618" y="1548.19" type="curve" smooth="yes"/>
      <point x="1025.05" y="1548.19"/>
      <point x="1390.6" y="1547.09"/>
      <point x="1390.6" y="1428.59" type="curve" smooth="yes"/>
      <point x="1390.6" y="1267.03"/>
      <point x="722.135" y="830.912"/>
      <point x="722.135" y="499.169" type="curve" smooth="yes"/>
      <point x="722.135" y="407.815"/>
      <point x="763.603" y="416.46"/>
      <point x="831.428" y="416.46" type="curve" smooth="yes"/>
      <point x="846.094" y="416.46"/>
      <point x="861.832" y="414.767"/>
      <point x="871.844" y="402.547" type="curve"/>
      <point x="862.454" y="370.523"/>
      <point x="807.957" y="362.291"/>
      <point x="779.988" y="362.291" type="curve" smooth="yes"/>
      <point x="682.025" y="362.291"/>
      <point x="662.948" y="472.293"/>
      <point x="662.948" y="548.878" type="curve" smooth="yes"/>
      <point x="662.948" y="689.323"/>
      <point x="763.52" y="795.313"/>
      <point x="850.296" y="895.472" type="curve" smooth="yes"/>
      <point x="934.917" y="993.145"/>
      <point x="1024.52" y="1087.43"/>
      <point x="1118.73" y="1175.87" type="curve" smooth="yes"/>
      <point x="1161" y="1215.56"/>
      <point x="1327.86" y="1366.82"/>
      <point x="1331.42" y="1415.69" type="curve"/>
      <point x="1324.45" y="1433.1" type="line"/>
      <point x="1275.88" y="1476.47"/>
      <point x="1063.36" y="1481.84"/>
      <point x="995.594" y="1481.84" type="curve" smooth="yes"/>
      <point x="853.749" y="1481.84"/>
      <point x="707.435" y="1468.12"/>
      <point x="568.389" y="1439.96" type="curve" smooth="yes"/>
      <point x="505.475" y="1427.22"/>
      <point x="394.397" y="1391.32"/>
      <point x="335.027" y="1391.32" type="curve" smooth="yes"/>
      <point x="313.627" y="1391.32"/>
      <point x="286.935" y="1399.66"/>
      <point x="286.935" y="1425.31" type="curve" smooth="yes"/>
      <point x="286.935" y="1510.44"/>
      <point x="843.389" y="1548.19"/>
    </contour>
  </outline>
</glyph>
<glyph name="A" format="1">
  <advance width="1828.58"/>
  <unicode hex="0041"/>
  <outline>
    <contour>
      <point x="1160.87" y="1650.28" type="curve"/>
      <point x="1119.96" y="1585.03"/>
      <point x="1086.26" y="1515.97"/>
      <point x="1053.62" y="1446.51" type="curve" smooth="yes"/>
      <point x="1049.87" y="1438.53"/>
      <point x="1046.13" y="1430.55"/>
      <point x="1042.4" y="1422.56" type="curve" smooth="yes"/>
      <point x="994.039" y="1319.07"/>
      <point x="945.801" y="1215.61"/>
      <point x="875.376" y="1124.56" type="curve" smooth="yes"/>
      <point x="833.762" y="1070.76"/>
      <point x="635.366" y="729.5"/>
      <point x="628.182" y="678.912" type="curve"/>
      <point x="652.553" y="678.912" type="line" smooth="yes"/>
      <point x="798.646" y="678.912"/>
      <point x="944.337" y="689.88"/>
      <point x="1089.92" y="701.267" type="curve" smooth="yes"/>
      <point x="1101.12" y="702.142"/>
      <point x="1112.32" y="703.021"/>
      <point x="1123.52" y="703.897" type="curve" smooth="yes"/>
      <point x="1151.06" y="706.051"/>
      <point x="1178.59" y="708.192"/>
      <point x="1206.13" y="710.246" type="curve"/>
      <point x="1219.58" y="795.435"/>
      <point x="1221.76" y="883.014"/>
      <point x="1221.72" y="970.175" type="curve" smooth="yes"/>
      <point x="1221.7" y="1013.75"/>
      <point x="1221.12" y="1057.23"/>
      <point x="1221.12" y="1100.25" type="curve" smooth="yes"/>
      <point x="1221.12" y="1253.08"/>
      <point x="1218.67" y="1510.61"/>
    </contour>
    <contour>
      <point x="1174.79" y="1914.88" type="curve" smooth="yes"/>
      <point x="1215.37" y="1914.88"/>
      <point x="1240.1" y="1633.14"/>
      <point x="1247.91" y="1584.13" type="curve" smooth="yes"/>
      <point x="1294.55" y="1291.24"/>
      <point x="1286.2" y="995.125"/>
      <point x="1286.2" y="699.802" type="curve"/>
      <point x="1381.24" y="707.298"/>
      <point x="1476.27" y="717.21"/>
      <point x="1563.63" y="717.21" type="curve" smooth="yes"/>
      <point x="1595.45" y="717.21"/>
      <point x="1619.04" y="715.895"/>
      <point x="1641.33" y="706.765" type="curve"/>
      <point x="1639.3" y="655.387"/>
      <point x="1349.76" y="640.568"/>
      <point x="1281.75" y="640.568" type="curve"/>
      <point x="1256.79" y="640.568"/>
      <point x="1257.02" y="455.828"/>
      <point x="1257.24" y="394.933" type="curve" smooth="yes"/>
      <point x="1257.38" y="335.503" type="line" smooth="yes"/>
      <point x="1257.38" y="270.236"/>
      <point x="1265.37" y="205.617"/>
      <point x="1274" y="141.053" type="curve" smooth="yes"/>
      <point x="1274.75" y="135.433"/>
      <point x="1275.51" y="129.814"/>
      <point x="1276.27" y="124.194" type="curve" smooth="yes"/>
      <point x="1285.71" y="54.0158"/>
      <point x="1295.15" y="-16.1598"/>
      <point x="1295.15" y="-87.0959" type="curve" smooth="yes"/>
      <point x="1295.15" y="-94.6999"/>
      <point x="1294.11" y="-102.315"/>
      <point x="1292.2" y="-109.67" type="curve"/>
      <point x="1283.5" y="-120.115" type="line"/>
      <point x="1278.54" y="-120.666"/>
      <point x="1272.77" y="-121.856"/>
      <point x="1267.83" y="-121.856" type="curve" smooth="yes"/>
      <point x="1207.21" y="-121.856"/>
      <point x="1201.14" y="142.993"/>
      <point x="1200.57" y="244.684" type="curve" smooth="yes"/>
      <point x="1200.53" y="278.88" type="line" smooth="yes"/>
      <point x="1200.53" y="395.03"/>
      <point x="1206.13" y="512.724"/>
      <point x="1206.13" y="630.17" type="curve"/>
      <point x="1025.05" y="622.926"/>
      <point x="841.451" y="621.384"/>
      <point x="661.258" y="600.576" type="curve" smooth="yes"/>
      <point x="641.658" y="598.313"/>
      <point x="584.666" y="594.315"/>
      <point x="579.44" y="570.983" type="curve"/>
      <point x="530.856" y="483.85"/>
      <point x="287.435" y="46.0414"/>
      <point x="243.466" y="8.70397" type="curve"/>
      <point x="234.762" y="10.4448" type="line"/>
      <point x="232.552" y="16.7793"/>
      <point x="229.827" y="23.6316"/>
      <point x="224.317" y="27.8527" type="curve"/>
      <point x="224.317" y="38.2975" type="line" smooth="yes"/>
      <point x="224.317" y="77.3786"/>
      <point x="388.221" y="368.949"/>
      <point x="455.914" y="489.091" type="curve" smooth="yes"/>
      <point x="456.879" y="490.803"/>
      <point x="457.824" y="492.481"/>
      <point x="458.749" y="494.122" type="curve" smooth="yes"/>
      <point x="467.219" y="509.153"/>
      <point x="473.986" y="521.16"/>
      <point x="478.474" y="529.203" type="curve"/>
      <point x="476.732" y="532.278"/>
      <point x="474.619" y="535.953"/>
      <point x="472.276" y="540.045" type="curve" smooth="yes"/>
      <point x="472.02" y="540.493"/>
      <point x="471.761" y="540.945"/>
      <point x="471.499" y="541.402" type="curve" smooth="yes"/>
      <point x="457.373" y="566.1"/>
      <point x="435.766" y="604.659"/>
      <point x="435.766" y="619.468" type="curve" smooth="yes"/>
      <point x="435.766" y="639.098"/>
      <point x="473.736" y="653.766"/>
      <point x="501.996" y="664.726" type="curve" smooth="yes"/>
      <point x="502.44" y="664.898"/>
      <point x="502.882" y="665.07"/>
      <point x="503.322" y="665.24" type="curve" smooth="yes"/>
      <point x="514.097" y="669.422"/>
      <point x="523.317" y="673.056"/>
      <point x="528.248" y="676.213" type="curve" smooth="yes"/>
      <point x="543.848" y="686.202"/>
      <point x="550.714" y="693.02"/>
      <point x="559.322" y="703.199" type="curve" smooth="yes"/>
      <point x="559.675" y="703.616"/>
      <point x="560.031" y="704.039"/>
      <point x="560.391" y="704.469" type="curve" smooth="yes"/>
      <point x="600.676" y="752.55"/>
      <point x="629.973" y="809.411"/>
      <point x="658.078" y="863.794" type="curve" smooth="yes"/>
      <point x="695.899" y="936.178"/>
      <point x="737.267" y="1006.4"/>
      <point x="778.642" y="1076.63" type="curve" smooth="yes"/>
      <point x="914.874" y="1307.86"/>
      <point x="1105.9" y="1631.51"/>
      <point x="1125.77" y="1801.11" type="curve" smooth="yes"/>
      <point x="1126.34" y="1806.38" type="line" smooth="yes"/>
      <point x="1126.49" y="1807.85"/>
      <point x="1126.62" y="1809.29"/>
      <point x="1126.74" y="1810.71" type="curve" smooth="yes"/>
      <point x="1127.05" y="1814.31"/>
      <point x="1127.29" y="1817.8"/>
      <point x="1127.55" y="1821.47" type="curve" smooth="yes"/>
      <point x="1130.15" y="1858.68"/>
      <point x="1134.18" y="1914.88"/>
    </contour>
  </outline>
</glyph>
<glyph name="B" format="1">
  <advance width="1952.63"/>
  <unicode hex="0042"/>
  <outline>
    <contour>
      <point x="244.213" y="90.5216" type="curve" smooth="yes"/>
      <point x="244.213" y="104.235"/>
      <point x="240.362" y="121.856"/>
      <point x="223.323" y="121.856" type="curve" smooth="yes"/>
      <point x="210.061" y="121.856"/>
      <point x="198.952" y="115.442"/>
      <point x="198.952" y="100.966" type="curve" smooth="yes"/>
      <point x="198.952" y="85.744"/>
      <point x="210.167" y="75.2452"/>
      <point x="223.323" y="69.632" type="curve"/>
      <point x="233.103" y="71.5899"/>
      <point x="244.213" y="79.6066"/>
    </contour>
    <contour>
      <point x="432.219" y="1511.01" type="curve" smooth="yes"/>
      <point x="432.219" y="1520.4"/>
      <point x="431.925" y="1529.93"/>
      <point x="428.738" y="1538.87" type="curve"/>
      <point x="397.67" y="1510.18"/>
      <point x="397.322" y="1425.8"/>
      <point x="397.322" y="1385.77" type="curve" smooth="yes"/>
      <point x="397.322" y="1364.21"/>
      <point x="395.341" y="1335.84"/>
      <point x="404.366" y="1316.04" type="curve"/>
      <point x="428.627" y="1316.49"/>
      <point x="432.219" y="1482.05"/>
    </contour>
    <contour>
      <point x="964.904" y="1712.95" type="curve" smooth="yes"/>
      <point x="897.255" y="1712.95"/>
      <point x="501.851" y="1679.86"/>
      <point x="501.851" y="1622.43" type="curve" smooth="yes"/>
      <point x="501.851" y="1576.73"/>
      <point x="571.483" y="1596.57"/>
      <point x="571.483" y="1568.46" type="curve" smooth="yes"/>
      <point x="571.483" y="1540.5"/>
      <point x="527.19" y="1563.42"/>
      <point x="507.074" y="1516.24" type="curve" smooth="yes"/>
      <point x="482.571" y="1458.76"/>
      <point x="489.009" y="1216.2"/>
      <point x="477.48" y="1131.52" type="curve" smooth="yes"/>
      <point x="435.769" y="825.142"/>
      <point x="320.808" y="523.507"/>
      <point x="320.808" y="212.378" type="curve" smooth="yes"/>
      <point x="320.808" y="205.261"/>
      <point x="321.35" y="198.078"/>
      <point x="324.29" y="191.488" type="curve"/>
      <point x="350.95" y="227.843"/>
      <point x="337.386" y="324.67"/>
      <point x="379.995" y="358.605" type="curve"/>
      <point x="390.194" y="359.313"/>
      <point x="393.922" y="349.463"/>
      <point x="393.922" y="341.197" type="curve" smooth="yes"/>
      <point x="393.922" y="233.288"/>
      <point x="362.778" y="128.243"/>
      <point x="355.624" y="20.8898" type="curve"/>
      <point x="420.374" y="14.011"/>
      <point x="485.556" y="13.9265"/>
      <point x="550.594" y="13.9265" type="curve" smooth="yes"/>
      <point x="746.514" y="13.9265"/>
      <point x="897.352" y="43.7701"/>
      <point x="1074.57" y="128.819" type="curve" smooth="yes"/>
      <point x="1160.59" y="170.098"/>
      <point x="1569.18" y="394.807"/>
      <point x="1569.18" y="481.671" type="curve" smooth="yes"/>
      <point x="1569.18" y="585.814"/>
      <point x="1143.75" y="748.544"/>
      <point x="1048.46" y="748.544" type="curve" smooth="yes"/>
      <point x="875.032" y="748.544"/>
      <point x="714.103" y="661.504"/>
      <point x="540.149" y="661.504" type="curve" smooth="yes"/>
      <point x="506.567" y="661.504"/>
      <point x="467.035" y="672.745"/>
      <point x="467.035" y="713.728" type="curve" smooth="yes"/>
      <point x="467.035" y="746.405"/>
      <point x="611.376" y="793.805"/>
      <point x="641.115" y="793.805" type="curve" smooth="yes"/>
      <point x="654.309" y="793.805"/>
      <point x="676.07" y="793.349"/>
      <point x="676.07" y="774.169" type="curve" smooth="yes"/>
      <point x="676.07" y="760.255"/>
      <point x="643.163" y="747.004"/>
      <point x="634.152" y="731.136" type="curve"/>
      <point x="644.597" y="731.136" type="line" smooth="yes"/>
      <point x="695.428" y="731.136"/>
      <point x="816.99" y="759.149"/>
      <point x="863.937" y="779.879" type="curve"/>
      <point x="856.735" y="782.848"/>
      <point x="849" y="783.36"/>
      <point x="841.306" y="783.36" type="curve" smooth="yes"/>
      <point x="807.261" y="783.36"/>
      <point x="775.311" y="768.563"/>
      <point x="741.265" y="768.563" type="curve" smooth="yes"/>
      <point x="727.553" y="768.563"/>
      <point x="707.265" y="771.869"/>
      <point x="707.265" y="790.323" type="curve" smooth="yes"/>
      <point x="707.265" y="830.687"/>
      <point x="918.872" y="828.213"/>
      <point x="954.458" y="828.621" type="curve" smooth="yes"/>
      <point x="1045.19" y="829.66"/>
      <point x="1140.09" y="835.719"/>
      <point x="1226.02" y="866.918" type="curve" smooth="yes"/>
      <point x="1391.97" y="927.166"/>
      <point x="1755.23" y="1103.31"/>
      <point x="1755.23" y="1309.08" type="curve" smooth="yes"/>
      <point x="1755.23" y="1396.54"/>
      <point x="1697.06" y="1473.76"/>
      <point x="1636.85" y="1531.9" type="curve" smooth="yes"/>
      <point x="1471.62" y="1691.48"/>
      <point x="1183.35" y="1712.95"/>
    </contour>
    <contour>
      <point x="418.293" y="1810.43" type="curve" smooth="yes"/>
      <point x="443.63" y="1810.43"/>
      <point x="485.456" y="1743.66"/>
      <point x="498.37" y="1723.39" type="curve"/>
      <point x="659.465" y="1752.94"/>
      <point x="821.972" y="1768.65"/>
      <point x="985.794" y="1768.65" type="curve" smooth="yes"/>
      <point x="1218.9" y="1768.65"/>
      <point x="1516.69" y="1742.12"/>
      <point x="1689.08" y="1566.72" type="curve" smooth="yes"/>
      <point x="1755.67" y="1498.96"/>
      <point x="1814.41" y="1410.95"/>
      <point x="1814.41" y="1312.56" type="curve" smooth="yes"/>
      <point x="1814.41" y="1260.87"/>
      <point x="1800.69" y="1214.88"/>
      <point x="1772.64" y="1171.56" type="curve" smooth="yes"/>
      <point x="1697.42" y="1055.41"/>
      <point x="1364.04" y="846.841"/>
      <point x="1229.51" y="804.25" type="curve"/>
      <point x="1226.02" y="800.768" type="line"/>
      <point x="1315.74" y="735.127"/>
      <point x="1633.37" y="594.941"/>
      <point x="1633.37" y="476.979" type="curve" smooth="yes"/>
      <point x="1633.37" y="338.742"/>
      <point x="1037.17" y="27.8051"/>
      <point x="902.236" y="-0" type="curve" smooth="yes"/>
      <point x="749.298" y="-31.516"/>
      <point x="636.161" y="-42.453"/>
      <point x="479.896" y="-42.453" type="curve" smooth="yes"/>
      <point x="354.691" y="-42.453"/>
      <point x="204.811" y="-31.7035"/>
      <point x="139.765" y="94.0032" type="curve"/>
      <point x="154.83" y="124.713"/>
      <point x="193.95" y="170.901"/>
      <point x="230.287" y="174.08" type="curve"/>
      <point x="276.338" y="259.142"/>
      <point x="399.817" y="1082.73"/>
      <point x="425.256" y="1246.41" type="curve"/>
      <point x="374.236" y="1285.59"/>
      <point x="348.661" y="1306.71"/>
      <point x="348.661" y="1375.23" type="curve" smooth="yes"/>
      <point x="348.661" y="1429.53"/>
      <point x="355.711" y="1483.37"/>
      <point x="362.588" y="1537.13" type="curve"/>
      <point x="357.365" y="1551.05" type="line"/>
      <point x="330.846" y="1560.37"/>
      <point x="279.029" y="1559.07"/>
      <point x="279.029" y="1598.05" type="curve" smooth="yes"/>
      <point x="279.029" y="1626.65"/>
      <point x="349.978" y="1653.73"/>
      <point x="369.551" y="1667.69" type="curve" smooth="yes"/>
      <point x="413.899" y="1699.31"/>
      <point x="376.317" y="1810.43"/>
    </contour>
  </outline>
</glyph>
<glyph name="C" format="1">
  <advance width="1901.36"/>
  <unicode hex="0043"/>
  <outline>
    <contour>
      <point x="1536.22" y="1742.85" type="curve" smooth="yes"/>
      <point x="1560.34" y="1742.85"/>
      <point x="1601.75" y="1741.11"/>
      <point x="1601.75" y="1705.98" type="curve" smooth="yes"/>
      <point x="1601.75" y="1682.14"/>
      <point x="1569.34" y="1662.98"/>
      <point x="1548.5" y="1662.98" type="curve" smooth="yes"/>
      <point x="1520.16" y="1662.98"/>
      <point x="1490.18" y="1675.69"/>
      <point x="1462.49" y="1681.41" type="curve"/>
      <point x="1383.53" y="1661.52"/>
      <point x="1301.63" y="1657.16"/>
      <point x="1222.87" y="1636.35" type="curve" smooth="yes"/>
      <point x="1172.71" y="1623.1"/>
      <point x="1124" y="1605.23"/>
      <point x="1075.42" y="1587.2" type="curve" smooth="yes"/>
      <point x="1031.97" y="1571.08"/>
      <point x="988.434" y="1556.36"/>
      <point x="944.343" y="1542.14" type="curve" smooth="yes"/>
      <point x="514.278" y="1403.48"/>
      <point x="317.655" y="1082.23"/>
      <point x="317.655" y="638.976" type="curve" smooth="yes"/>
      <point x="317.655" y="226.401"/>
      <point x="446.271" y="-10.4447"/>
      <point x="891.73" y="-10.4447" type="curve" smooth="yes"/>
      <point x="1210.42" y="-10.4447"/>
      <point x="1501.34" y="110.937"/>
      <point x="1803.29" y="194.97" type="curve"/>
      <point x="1810.25" y="184.525" type="line"/>
      <point x="1797.33" y="151.827"/>
      <point x="1665.93" y="98.9031"/>
      <point x="1629.28" y="83.5585" type="curve" smooth="yes"/>
      <point x="1372.76" y="-23.85"/>
      <point x="1124.71" y="-76.5951"/>
      <point x="846.225" y="-76.5951" type="curve" smooth="yes"/>
      <point x="759.31" y="-76.5951"/>
      <point x="672.181" y="-61.4357"/>
      <point x="592.167" y="-26.8741" type="curve" smooth="yes"/>
      <point x="270.768" y="111.952"/>
      <point x="268.498" y="381.253"/>
      <point x="268.498" y="685.93" type="curve" smooth="yes"/>
      <point x="268.498" y="765.641"/>
      <point x="268.495" y="847.019"/>
      <point x="282.839" y="925.696" type="curve" smooth="yes"/>
      <point x="370.401" y="1405.98"/>
      <point x="842.279" y="1617.85"/>
      <point x="1274.07" y="1701.89" type="curve" smooth="yes"/>
      <point x="1360.21" y="1718.65"/>
      <point x="1447.97" y="1742.85"/>
    </contour>
  </outline>
</glyph>
<glyph name="D" format="1">
  <advance width="938.542"/>
  <unicode hex="0044"/>
  <outline>
    <contour>
      <point x="122.211" y="6.8" type="curve"/>
      <point x="121.712" y="14.0713"/>
      <point x="118.811" y="21.8669"/>
      <point x="118.811" y="28.9" type="curve" smooth="yes"/>
      <point x="118.811" y="37.7441"/>
      <point x="141.073" y="37.4"/>
      <point x="146.011" y="37.4" type="curve" smooth="yes"/>
      <point x="153.526" y="37.4"/>
      <point x="162.703" y="37.0707"/>
      <point x="169.811" y="34" type="curve"/>
      <point x="166.161" y="30.3175"/>
      <point x="161.672" y="26.9962"/>
      <point x="159.611" y="22.1" type="curve"/>
      <point x="160.092" y="2.22454"/>
      <point x="258.081" y="-1.7"/>
      <point x="275.211" y="-1.7" type="curve" smooth="yes"/>
      <point x="314.203" y="-1.7"/>
      <point x="415.064" y="-1.7369"/>
      <point x="446.911" y="23.8" type="curve" smooth="yes"/>
      <point x="486.46" y="55.5132"/>
      <point x="537.311" y="65.2063"/>
      <point x="576.111" y="102" type="curve" smooth="yes"/>
      <point x="582.154" y="107.731"/>
      <point x="605.021" y="132.03"/>
      <point x="613.511" y="132.6" type="curve"/>
      <point x="633.3" y="145.538"/>
      <point x="654.29" y="177.958"/>
      <point x="666.211" y="198.9" type="curve" smooth="yes"/>
      <point x="677.107" y="218.043"/>
      <point x="689.731" y="236.187"/>
      <point x="703.611" y="253.3" type="curve" smooth="yes"/>
      <point x="763.955" y="327.703"/>
      <point x="844.711" y="491.07"/>
      <point x="844.711" y="588.2" type="curve" smooth="yes"/>
      <point x="844.711" y="623.823"/>
      <point x="830.666" y="656.51"/>
      <point x="805.611" y="681.7" type="curve" smooth="yes"/>
      <point x="730.8" y="756.913"/>
      <point x="425.113" y="843.2"/>
      <point x="324.511" y="843.2" type="curve" smooth="yes"/>
      <point x="298.371" y="843.2"/>
      <point x="237.703" y="834.482"/>
      <point x="225.911" y="807.5" type="curve" smooth="yes"/>
      <point x="218.476" y="790.487"/>
      <point x="219.111" y="723.197"/>
      <point x="219.111" y="703.8" type="curve" smooth="yes"/>
      <point x="219.111" y="623.851"/>
      <point x="220.151" y="506.5"/>
      <point x="195.311" y="430.1" type="curve" smooth="yes"/>
      <point x="190.33" y="414.779"/>
      <point x="187.003" y="398.487"/>
      <point x="185.111" y="382.5" type="curve" smooth="yes"/>
      <point x="179.758" y="337.27"/>
      <point x="168.008" y="295.04"/>
      <point x="154.511" y="251.6" type="curve" smooth="yes"/>
      <point x="128.371" y="167.471"/>
      <point x="108.884" y="78.7891"/>
      <point x="88.2111" y="-6.79997" type="curve" smooth="yes"/>
      <point x="85.3422" y="-18.6782"/>
      <point x="81.6937" y="-35.7"/>
      <point x="66.1113" y="-35.7" type="curve" smooth="yes"/>
      <point x="58.3218" y="-35.7"/>
      <point x="57.6112" y="-25.7666"/>
      <point x="57.6112" y="-20.4" type="curve" smooth="yes"/>
      <point x="57.6112" y="22.7009"/>
      <point x="101.666" y="176.699"/>
      <point x="115.411" y="227.8" type="curve" smooth="yes"/>
      <point x="149.669" y="355.162"/>
      <point x="188.511" y="502.406"/>
      <point x="188.511" y="634.1" type="curve" smooth="yes"/>
      <point x="188.511" y="655.704"/>
      <point x="189.703" y="734.693"/>
      <point x="180.011" y="753.1" type="curve" smooth="yes"/>
      <point x="175.664" y="761.356"/>
      <point x="176.611" y="770.447"/>
      <point x="176.611" y="779.45" type="curve"/>
      <point x="171.511" y="785.4" type="line"/>
      <point x="161.221" y="780.364"/>
      <point x="148.084" y="763.698"/>
      <point x="137.511" y="763.3" type="curve"/>
      <point x="132.547" y="765.218"/>
      <point x="126.514" y="769.879"/>
      <point x="126.514" y="775.678" type="curve" smooth="yes"/>
      <point x="126.514" y="785.96"/>
      <point x="144.108" y="807.5"/>
      <point x="154.511" y="807.5" type="curve" smooth="yes"/>
      <point x="173.222" y="807.5"/>
      <point x="192.223" y="859.921"/>
      <point x="200.411" y="872.95" type="curve"/>
      <point x="207.211" y="876.35" type="line"/>
      <point x="216.902" y="871.151"/>
      <point x="222.951" y="863.181"/>
      <point x="234.411" y="860.2" type="curve"/>
      <point x="265.726" y="866.403"/>
      <point x="289.736" y="878.9"/>
      <point x="322.811" y="878.9" type="curve" smooth="yes"/>
      <point x="410.838" y="878.9"/>
      <point x="486.172" y="850"/>
      <point x="569.311" y="826.2" type="curve" smooth="yes"/>
      <point x="695.132" y="790.182"/>
      <point x="871.911" y="736.495"/>
      <point x="871.911" y="579.7" type="curve" smooth="yes"/>
      <point x="871.911" y="454.518"/>
      <point x="776.21" y="316.22"/>
      <point x="710.411" y="215.9" type="curve" smooth="yes"/>
      <point x="658.694" y="137.05"/>
      <point x="584.178" y="61.0728"/>
      <point x="498.761" y="19.55" type="curve" smooth="yes"/>
      <point x="474.708" y="7.85705"/>
      <point x="446.608" y="3.57509"/>
      <point x="424.811" y="-10.2" type="curve" smooth="yes"/>
      <point x="392.773" y="-30.4473"/>
      <point x="292.094" y="-30.6"/>
      <point x="254.811" y="-30.6" type="curve" smooth="yes"/>
      <point x="219.482" y="-30.6"/>
      <point x="146.23" y="-21.1529"/>
    </contour>
  </outline>
</glyph>
<glyph name="E" format="1">
  <advance width="1499.02"/>
  <unicode hex="0045"/>
  <outline>
    <contour>
      <point x="358.4" y="1724.42" type="curve" smooth="yes"/>
      <point x="395.264" y="1724.42"/>
      <point x="403.456" y="1636.35"/>
      <point x="407.552" y="1611.78" type="curve"/>
      <point x="587.776" y="1630.21"/>
      <point x="763.904" y="1654.78"/>
      <point x="944.128" y="1654.78" type="curve" smooth="yes"/>
      <point x="993.28" y="1654.78"/>
      <point x="1349.63" y="1636.35"/>
      <point x="1351.68" y="1564.67" type="curve"/>
      <point x="1349.63" y="1558.53"/>
      <point x="1343.49" y="1556.48"/>
      <point x="1337.34" y="1556.48" type="curve"/>
      <point x="1325.06" y="1556.48"/>
      <point x="1310.68" y="1562.4"/>
      <point x="1298.43" y="1564.67" type="curve" smooth="yes"/>
      <point x="1167.32" y="1589.02"/>
      <point x="1015.81" y="1581.06"/>
      <point x="880.64" y="1581.06" type="curve" smooth="yes"/>
      <point x="716.8" y="1581.06"/>
      <point x="565.494" y="1580.21"/>
      <point x="405.504" y="1533.95" type="curve" smooth="yes"/>
      <point x="395.472" y="1531.05"/>
      <point x="327.68" y="1513.47"/>
      <point x="327.68" y="1497.09" type="curve" smooth="yes"/>
      <point x="327.68" y="1466.37"/>
      <point x="318.256" y="1431.38"/>
      <point x="311.296" y="1400.83" type="curve" smooth="yes"/>
      <point x="281.389" y="1269.57"/>
      <point x="273.993" y="1083.18"/>
      <point x="266.24" y="907.264" type="curve"/>
      <point x="288.768" y="909.312"/>
      <point x="311.296" y="911.36"/>
      <point x="333.824" y="911.36" type="curve"/>
      <point x="354.304" y="911.36" type="line"/>
      <point x="362.496" y="903.168"/>
      <point x="358.4" y="890.88"/>
      <point x="358.4" y="880.64" type="curve" smooth="yes"/>
      <point x="358.4" y="862.208"/>
      <point x="391.168" y="864.256"/>
      <point x="401.408" y="864.256" type="curve" smooth="yes"/>
      <point x="608.256" y="864.256"/>
      <point x="915.456" y="1046.53"/>
      <point x="1097.73" y="1046.53" type="curve"/>
      <point x="1103.87" y="1036.29" type="line"/>
      <point x="1103.87" y="985.088"/>
      <point x="802.816" y="915.456"/>
      <point x="745.472" y="886.784" type="curve" smooth="yes"/>
      <point x="720.896" y="874.496"/>
      <point x="696.32" y="864.256"/>
      <point x="669.696" y="856.064" type="curve"/>
      <point x="661.504" y="856.064" type="line"/>
      <point x="573.44" y="825.344"/>
      <point x="524.288" y="802.816"/>
      <point x="425.984" y="802.816" type="curve" smooth="yes"/>
      <point x="366.592" y="802.816"/>
      <point x="313.344" y="811.008"/>
      <point x="253.952" y="821.248" type="curve"/>
      <point x="225.28" y="618.496"/>
      <point x="233.359" y="388.752"/>
      <point x="230.463" y="161.094" type="curve"/>
      <point x="266.1" y="128.885"/>
      <point x="300.236" y="93.2666"/>
      <point x="331.429" y="55.7056" type="curve"/>
      <point x="500.999" y="60.4361"/>
      <point x="691.997" y="53.6132"/>
      <point x="862.373" y="80.0768" type="curve" smooth="yes"/>
      <point x="892.995" y="84.8333"/>
      <point x="929.697" y="90.2197"/>
      <point x="951.154" y="114.893" type="curve" smooth="yes"/>
      <point x="957.227" y="121.877"/>
      <point x="963.585" y="130.493"/>
      <point x="973.891" y="130.809" type="curve"/>
      <point x="989.451" y="121.856" type="line"/>
      <point x="993.704" y="114.788"/>
      <point x="995.718" y="106.679"/>
      <point x="995.718" y="98.46" type="curve" smooth="yes"/>
      <point x="995.718" y="-22.9526"/>
      <point x="590.814" y="-10.4448"/>
      <point x="519.435" y="-10.4448" type="curve" smooth="yes"/>
      <point x="282.687" y="-10.4448" type="line"/>
      <point x="165.147" y="146.078"/>
      <point x="167.794" y="199.509"/>
      <point x="167.794" y="400.825" type="curve" smooth="yes"/>
      <point x="167.794" y="760.697"/>
      <point x="243.712" y="1116.16"/>
      <point x="243.712" y="1400.83" type="curve" smooth="yes"/>
      <point x="243.712" y="1456.13"/>
      <point x="196.608" y="1460.22"/>
      <point x="196.608" y="1488.9" type="curve"/>
      <point x="196.608" y="1490.94"/>
      <point x="200.704" y="1501.18"/>
      <point x="202.752" y="1505.28" type="curve"/>
      <point x="243.712" y="1540.1" type="line" smooth="yes"/>
      <point x="299.008" y="1585.15"/>
      <point x="272.384" y="1724.42"/>
    </contour>
  </outline>
</glyph>
<glyph name="F" format="1">
  <advance width="1390.22"/>
  <unicode hex="0046"/>
  <outline>
    <contour>
      <point x="967.885" y="1719.91" type="curve" smooth="yes"/>
      <point x="1012.92" y="1719.91"/>
      <point x="1159.37" y="1732.22"/>
      <point x="1159.37" y="1664.2" type="curve" smooth="yes"/>
      <point x="1159.37" y="1646.22"/>
      <point x="1143" y="1620.39"/>
      <point x="1123.03" y="1620.39" type="curve"/>
      <point x="1116.26" y="1620.39"/>
      <point x="1116.67" y="1624.64"/>
      <point x="1114.11" y="1629.39" type="curve"/>
      <point x="1104.18" y="1647.81"/>
      <point x="926.072" y="1646.8"/>
      <point x="905.216" y="1646.8" type="curve" smooth="yes"/>
      <point x="798.45" y="1646.8"/>
      <point x="401.328" y="1621.02"/>
      <point x="328.724" y="1563.49" type="curve"/>
      <point x="327.887" y="1546.33" type="line"/>
      <point x="327.887" y="1462.71"/>
      <point x="341.21" y="1376.94"/>
      <point x="341.21" y="1291.72" type="curve" smooth="yes"/>
      <point x="341.21" y="1179.93"/>
      <point x="323.789" y="1067.75"/>
      <point x="323.789" y="957.44" type="curve" smooth="yes"/>
      <point x="323.789" y="922.464"/>
      <point x="334.055" y="915.661"/>
      <point x="365.568" y="915.661" type="curve" smooth="yes"/>
      <point x="541.549" y="915.661"/>
      <point x="781.887" y="1048"/>
      <point x="1054.5" y="1048" type="curve" smooth="yes"/>
      <point x="1081.73" y="1048"/>
      <point x="1261.56" y="1046.46"/>
      <point x="1265.15" y="1001.38" type="curve"/>
      <point x="1256.31" y="987.203"/>
      <point x="1219.49" y="992.256"/>
      <point x="1204.63" y="992.256" type="curve" smooth="yes"/>
      <point x="1020.47" y="992.256"/>
      <point x="832.824" y="972.535"/>
      <point x="658.022" y="912.179" type="curve" smooth="yes"/>
      <point x="528.02" y="867.292"/>
      <point x="426.315" y="857.175"/>
      <point x="292.454" y="852.992" type="curve"/>
      <point x="292.472" y="793.164" type="line"/>
      <point x="292.472" y="758.201"/>
      <point x="286.278" y="723.327"/>
      <point x="278.528" y="689.357" type="curve" smooth="yes"/>
      <point x="235.388" y="500.255"/>
      <point x="206.478" y="285.6"/>
      <point x="206.478" y="91.5637" type="curve" smooth="yes"/>
      <point x="206.478" y="76.7907"/>
      <point x="207.172" y="59.0786"/>
      <point x="213.441" y="45.2609" type="curve"/>
      <point x="216.923" y="45.2609" type="line"/>
      <point x="238.342" y="67.214"/>
      <point x="253.884" y="169.8"/>
      <point x="276.11" y="170.598" type="curve"/>
      <point x="283.189" y="165.542"/>
      <point x="286.555" y="154.255"/>
      <point x="286.555" y="146.227" type="curve" smooth="yes"/>
      <point x="286.555" y="98.2475"/>
      <point x="240.868" y="-21.547"/>
      <point x="207.436" y="-51.1837" type="curve"/>
      <point x="151.843" y="-29.7563"/>
      <point x="147.291" y="-0.458563"/>
      <point x="147.291" y="54.2379" type="curve" smooth="yes"/>
      <point x="147.291" y="355.638"/>
      <point x="203.757" y="668.269"/>
      <point x="254.157" y="964.403" type="curve" smooth="yes"/>
      <point x="268.666" y="1049.65"/>
      <point x="285.491" y="1138.74"/>
      <point x="285.491" y="1225.52" type="curve" smooth="yes"/>
      <point x="285.491" y="1328.68"/>
      <point x="219.341" y="1411.02"/>
      <point x="219.341" y="1507.53" type="curve" smooth="yes"/>
      <point x="219.341" y="1523.92"/>
      <point x="214.989" y="1544.99"/>
      <point x="194.688" y="1544.99" type="curve" smooth="yes"/>
      <point x="172.89" y="1544.99"/>
      <point x="160.987" y="1517.11"/>
      <point x="145.184" y="1517.11" type="curve" smooth="yes"/>
      <point x="132.187" y="1517.11"/>
      <point x="119.276" y="1541.87"/>
      <point x="119.276" y="1553.09" type="curve" smooth="yes"/>
      <point x="119.276" y="1576.62"/>
      <point x="149.756" y="1583.07"/>
      <point x="167.117" y="1587.61" type="curve" smooth="yes"/>
      <point x="234.292" y="1605.19"/>
      <point x="201.169" y="1653.18"/>
      <point x="230.903" y="1691.73" type="curve"/>
      <point x="267.322" y="1679.29"/>
      <point x="267.617" y="1645.14"/>
      <point x="313.408" y="1645.14" type="curve" smooth="yes"/>
      <point x="371.959" y="1645.14"/>
      <point x="563.847" y="1698.01"/>
      <point x="658.022" y="1705.98" type="curve" smooth="yes"/>
      <point x="761.073" y="1714.71"/>
      <point x="864.459" y="1719.91"/>
    </contour>
  </outline>
</glyph>
<glyph name="G" format="1">
  <advance width="2001.7"/>
  <unicode hex="0047"/>
  <outline>
    <contour>
      <point x="1513.53" y="776.192" type="curve"/>
      <point x="1508.7" y="769.513"/>
      <point x="1504.45" y="755.806"/>
      <point x="1505.34" y="747.52" type="curve" smooth="yes"/>
      <point x="1533.65" y="483.942" type="line"/>
      <point x="1553.35" y="509.881"/>
      <point x="1562.71" y="537.289"/>
      <point x="1562.71" y="569.753" type="curve" smooth="yes"/>
      <point x="1562.71" y="604.743"/>
      <point x="1551.25" y="776.009"/>
    </contour>
    <contour>
      <point x="1239.1" y="940.032" type="curve" smooth="yes"/>
      <point x="1239.1" y="956.704"/>
      <point x="1207.28" y="956.416"/>
      <point x="1196.09" y="956.416" type="curve" smooth="yes"/>
      <point x="1163.37" y="956.416"/>
      <point x="1128.44" y="952.089"/>
      <point x="1105.98" y="925.696" type="curve" smooth="yes"/>
      <point x="1071.79" y="885.523"/>
      <point x="1022.3" y="872.614"/>
      <point x="983.101" y="839.68" type="curve"/>
      <point x="990.852" y="825.098"/>
      <point x="1023.92" y="825.262"/>
      <point x="1038.15" y="825.262" type="curve" smooth="yes"/>
      <point x="1165.39" y="825.262"/>
      <point x="1239.32" y="837.285"/>
      <point x="1357.88" y="884.736" type="curve"/>
      <point x="1339.94" y="897.788"/>
      <point x="1303.54" y="933.411"/>
      <point x="1282.11" y="933.888" type="curve"/>
      <point x="1265.72" y="925.696" type="line"/>
      <point x="1259.88" y="914.798"/>
      <point x="1252.56" y="868.352"/>
      <point x="1239.1" y="868.352" type="curve" smooth="yes"/>
      <point x="1220.38" y="868.352"/>
      <point x="1196.49" y="888.425"/>
      <point x="1183.8" y="901.12" type="curve"/>
      <point x="1183.8" y="919.552" type="line"/>
      <point x="1195.12" y="924.553"/>
      <point x="1239.1" y="924.37"/>
    </contour>
    <contour>
      <point x="1429.56" y="1669.12" type="curve" smooth="yes"/>
      <point x="1461.94" y="1669.12"/>
      <point x="1603.64" y="1652.86"/>
      <point x="1603.64" y="1609.73" type="curve" smooth="yes"/>
      <point x="1603.64" y="1581.38"/>
      <point x="1517.65" y="1573.49"/>
      <point x="1497.15" y="1570.82" type="curve" smooth="yes"/>
      <point x="1402.34" y="1558.45"/>
      <point x="1318.85" y="1524.21"/>
      <point x="1230.91" y="1488.9" type="curve"/>
      <point x="1228.86" y="1490.94" type="line"/>
      <point x="1262.27" y="1526.47"/>
      <point x="1296.86" y="1560.92"/>
      <point x="1333.31" y="1593.34" type="curve"/>
      <point x="1007.26" y="1560.69"/>
      <point x="771.152" y="1548.54"/>
      <point x="518.205" y="1312.77" type="curve" smooth="yes"/>
      <point x="500.824" y="1296.57"/>
      <point x="417.853" y="1218.34"/>
      <point x="417.853" y="1200.13" type="curve" smooth="yes"/>
      <point x="417.853" y="1182.94"/>
      <point x="388.44" y="1133.18"/>
      <point x="378.941" y="1116.16" type="curve" smooth="yes"/>
      <point x="315.638" y="1002.75"/>
      <point x="311.314" y="946.459"/>
      <point x="311.314" y="819.309" type="curve" smooth="yes"/>
      <point x="311.314" y="459.818"/>
      <point x="351.677" y="-6.96331"/>
      <point x="819.78" y="-6.96331" type="curve" smooth="yes"/>
      <point x="983.014" y="-6.96331"/>
      <point x="1474.46" y="224.171"/>
      <point x="1474.46" y="411.367" type="curve" smooth="yes"/>
      <point x="1474.46" y="494.309"/>
      <point x="1461.86" y="796.672"/>
      <point x="1343.55" y="796.672" type="curve" smooth="yes"/>
      <point x="1199.45" y="796.672"/>
      <point x="1059.59" y="751.616"/>
      <point x="915.517" y="751.616" type="curve" smooth="yes"/>
      <point x="872.706" y="751.616"/>
      <point x="835.096" y="768.623"/>
      <point x="823.357" y="813.056" type="curve"/>
      <point x="882.645" y="892.929"/>
      <point x="1039.12" y="999.424"/>
      <point x="1140.8" y="999.424" type="curve" smooth="yes"/>
      <point x="1234.41" y="999.424"/>
      <point x="1318.98" y="973.821"/>
      <point x="1398.85" y="925.696" type="curve" smooth="yes"/>
      <point x="1465.2" y="885.716"/>
      <point x="1588.49" y="827.691"/>
      <point x="1611.84" y="749.568" type="curve" smooth="yes"/>
      <point x="1624.67" y="706.644"/>
      <point x="1624.13" y="645.629"/>
      <point x="1624.13" y="600.594" type="curve" smooth="yes"/>
      <point x="1624.13" y="494.662"/>
      <point x="1561.5" y="422.192"/>
      <point x="1561.5" y="326.713" type="curve" smooth="yes"/>
      <point x="1561.5" y="296.273"/>
      <point x="1573" y="111.411"/>
      <point x="1603.28" y="111.411" type="curve" smooth="yes"/>
      <point x="1621.6" y="111.411"/>
      <point x="1621.19" y="71.5512"/>
      <point x="1621.19" y="60.2527" type="curve" smooth="yes"/>
      <point x="1621.19" y="37.1212"/>
      <point x="1620.95" y="-31.3346"/>
      <point x="1585.91" y="-31.3346" type="curve" smooth="yes"/>
      <point x="1515.94" y="-31.3346"/>
      <point x="1536.12" y="229.785"/>
      <point x="1474.63" y="229.785" type="curve" smooth="yes"/>
      <point x="1441.81" y="229.785"/>
      <point x="1400.44" y="188.001"/>
      <point x="1377.26" y="167.117" type="curve" smooth="yes"/>
      <point x="1294.92" y="92.9217"/>
      <point x="1188.17" y="40.293"/>
      <point x="1088.63" y="-6.96336" type="curve" smooth="yes"/>
      <point x="981.997" y="-57.5843"/>
      <point x="895.419" y="-66.1506"/>
      <point x="779.124" y="-66.1506" type="curve" smooth="yes"/>
      <point x="315.818" y="-66.1506"/>
      <point x="254.012" y="452.714"/>
      <point x="254.012" y="807.91" type="curve" smooth="yes"/>
      <point x="254.012" y="917.736"/>
      <point x="259.904" y="1058.76"/>
      <point x="325.692" y="1150.98" type="curve" smooth="yes"/>
      <point x="339.618" y="1170.49"/>
      <point x="358.46" y="1190.65"/>
      <point x="358.46" y="1216.51" type="curve" smooth="yes"/>
      <point x="358.46" y="1242.84"/>
      <point x="446.957" y="1324.56"/>
      <point x="469.052" y="1345.54" type="curve" smooth="yes"/>
      <point x="676.63" y="1542.55"/>
      <point x="893.016" y="1599.84"/>
      <point x="1169.47" y="1634.3" type="curve" smooth="yes"/>
      <point x="1255.83" y="1645.07"/>
      <point x="1342.23" y="1669.12"/>
    </contour>
  </outline>
</glyph>
<glyph name="H" format="1">
  <advance width="1831.88"/>
  <unicode hex="0048"/>
  <outline>
    <contour>
      <point x="1504.46" y="1682" type="curve" smooth="yes"/>
      <point x="1513.6" y="1682"/>
      <point x="1522.89" y="1678.48"/>
      <point x="1522.89" y="1667.66" type="curve" smooth="yes"/>
      <point x="1522.89" y="1650.16"/>
      <point x="1510.78" y="1638.96"/>
      <point x="1500.36" y="1626.7" type="curve" smooth="yes"/>
      <point x="1441.04" y="1556.89"/>
      <point x="1438.85" y="1243.51"/>
      <point x="1438.85" y="1142.56" type="curve" smooth="yes"/>
      <point x="1438.85" y="1122.16"/>
      <point x="1434.49" y="1069.7"/>
      <point x="1462.81" y="1069.7" type="curve" smooth="yes"/>
      <point x="1477.81" y="1069.7"/>
      <point x="1488.07" y="1067.13"/>
      <point x="1488.07" y="1049.17" type="curve" smooth="yes"/>
      <point x="1488.07" y="1023.81"/>
      <point x="1473.69" y="1001.76"/>
      <point x="1463.5" y="979.536" type="curve" smooth="yes"/>
      <point x="1438.73" y="925.505"/>
      <point x="1438.92" y="809.702"/>
      <point x="1438.92" y="748.405" type="curve" smooth="yes"/>
      <point x="1438.92" y="517.613"/>
      <point x="1483.77" y="289.452"/>
      <point x="1483.77" y="58.57" type="curve" smooth="yes"/>
      <point x="1483.77" y="30.2212"/>
      <point x="1483.19" y="-5.55194"/>
      <point x="1445.48" y="-5.55194" type="curve" smooth="yes"/>
      <point x="1412.73" y="-5.55194"/>
      <point x="1405.23" y="163.941"/>
      <point x="1403.7" y="193.156" type="curve" smooth="yes"/>
      <point x="1394.1" y="376.073"/>
      <point x="1369.29" y="558.655"/>
      <point x="1369.29" y="741.968" type="curve" smooth="yes"/>
      <point x="1369.29" y="771.891"/>
      <point x="1372.36" y="801.827"/>
      <point x="1372.36" y="831.824" type="curve" smooth="yes"/>
      <point x="1372.36" y="841.638"/>
      <point x="1373.15" y="901.712"/>
      <point x="1357" y="901.712" type="curve" smooth="yes"/>
      <point x="1337.4" y="901.712"/>
      <point x="1319.43" y="892.456"/>
      <point x="1301.71" y="885.328" type="curve" smooth="yes"/>
      <point x="1245.38" y="862.679"/>
      <point x="1177.36" y="854.809"/>
      <point x="1117.39" y="846.416" type="curve" smooth="yes"/>
      <point x="906.338" y="816.881"/>
      <point x="666.303" y="790.458"/>
      <point x="464.073" y="725.584" type="curve"/>
      <point x="445.496" y="699.256"/>
      <point x="380.105" y="149.035"/>
      <point x="380.105" y="81.5883" type="curve" smooth="yes"/>
      <point x="380.105" y="61.6886"/>
      <point x="380.578" y="41.3323"/>
      <point x="387.068" y="22.3009" type="curve"/>
      <point x="402.332" y="17.8687"/>
      <point x="400.995" y="-23.8973"/>
      <point x="400.995" y="-36.8863" type="curve" smooth="yes"/>
      <point x="400.995" y="-62.5693"/>
      <point x="398.171" y="-110"/>
      <point x="362.697" y="-110" type="curve" smooth="yes"/>
      <point x="316.526" y="-110"/>
      <point x="316.668" y="-8.94036"/>
      <point x="316.668" y="21.4625" type="curve" smooth="yes"/>
      <point x="316.668" y="37.334"/>
      <point x="317.436" y="53.1923"/>
      <point x="317.436" y="69.0603" type="curve" smooth="yes"/>
      <point x="317.436" y="285.31"/>
      <point x="392.393" y="492.72"/>
      <point x="392.393" y="709.2" type="curve"/>
      <point x="351.043" y="730.056"/>
      <point x="206.025" y="734.09"/>
      <point x="206.025" y="795.216" type="curve" smooth="yes"/>
      <point x="206.025" y="824.623"/>
      <point x="259.97" y="854.608"/>
      <point x="285.897" y="854.608" type="curve" smooth="yes"/>
      <point x="312.681" y="854.608"/>
      <point x="306.377" y="822.849"/>
      <point x="306.377" y="805.456" type="curve" smooth="yes"/>
      <point x="306.377" y="802.538"/>
      <point x="308.935" y="795.692"/>
      <point x="310.473" y="793.168" type="curve"/>
      <point x="317.933" y="791.444"/>
      <point x="325.383" y="791.12"/>
      <point x="333.001" y="791.12" type="curve" smooth="yes"/>
      <point x="351.043" y="791.12"/>
      <point x="385.494" y="795.474"/>
      <point x="400.585" y="805.456" type="curve" smooth="yes"/>
      <point x="416.38" y="815.903"/>
      <point x="414.921" y="973.267"/>
      <point x="414.921" y="1000.02" type="curve" smooth="yes"/>
      <point x="414.921" y="1067.2"/>
      <point x="418.71" y="1171.79"/>
      <point x="394.441" y="1233.49" type="curve" smooth="yes"/>
      <point x="375.529" y="1281.57"/>
      <point x="355.529" y="1429.85"/>
      <point x="355.529" y="1483.34" type="curve" smooth="yes"/>
      <point x="355.529" y="1495.29"/>
      <point x="355.833" y="1536.59"/>
      <point x="373.961" y="1536.59" type="curve" smooth="yes"/>
      <point x="416.951" y="1536.59"/>
      <point x="429.257" y="1499.31"/>
      <point x="429.257" y="1462.86" type="curve" smooth="yes"/>
      <point x="429.257" y="1441.18"/>
      <point x="447.144" y="1382.18"/>
      <point x="453.833" y="1358.42" type="curve" smooth="yes"/>
      <point x="484.654" y="1248.94"/>
      <point x="478.297" y="1132.31"/>
      <point x="478.297" y="1019.73" type="curve" smooth="yes"/>
      <point x="478.297" y="996.09"/>
      <point x="477.827" y="830.87"/>
      <point x="490.697" y="821.84" type="curve" smooth="yes"/>
      <point x="496.798" y="817.559"/>
      <point x="504.1" y="817.744"/>
      <point x="511.177" y="817.744" type="curve" smooth="yes"/>
      <point x="530.58" y="817.744"/>
      <point x="549.626" y="822.07"/>
      <point x="568.521" y="825.936" type="curve" smooth="yes"/>
      <point x="828.639" y="879.151"/>
      <point x="1115.05" y="869.545"/>
      <point x="1361.1" y="975.44" type="curve"/>
      <point x="1369.33" y="1083.02"/>
      <point x="1371.41" y="1682"/>
    </contour>
  </outline>
</glyph>
<glyph name="I" format="1">
  <advance width="246.605"/>
  <unicode hex="0049"/>
  <outline>
    <contour>
      <point x="170.138" y="748" type="curve" smooth="yes"/>
      <point x="170.138" y="680.775"/>
      <point x="158.82" y="611.775"/>
      <point x="156.538" y="544" type="curve" smooth="yes"/>
      <point x="152.671" y="429.136"/>
      <point x="137.838" y="315.745"/>
      <point x="137.838" y="200.6" type="curve" smooth="yes"/>
      <point x="137.838" y="151.01"/>
      <point x="137.631" y="97.8589"/>
      <point x="148.038" y="49.3" type="curve"/>
      <point x="153.528" y="51.975"/>
      <point x="163.111" y="62.9"/>
      <point x="168.438" y="62.9" type="curve" smooth="yes"/>
      <point x="173.498" y="62.9"/>
      <point x="175.238" y="58.8559"/>
      <point x="175.238" y="54.4" type="curve" smooth="yes"/>
      <point x="175.238" y="36.9581"/>
      <point x="156.335" y="-5.09995"/>
      <point x="136.138" y="-5.09995" type="curve" smooth="yes"/>
      <point x="98.3702" y="-5.09995"/>
      <point x="107.238" y="143.564"/>
      <point x="107.238" y="164.9" type="curve" smooth="yes"/>
      <point x="107.238" y="391.884"/>
      <point x="131.038" y="613.588"/>
      <point x="131.038" y="838.1" type="curve"/>
      <point x="131.038" y="841.009"/>
      <point x="130.967" y="849.528"/>
      <point x="136.117" y="849.528" type="curve" smooth="yes"/>
      <point x="163.577" y="849.528"/>
      <point x="170.138" y="765.549"/>
    </contour>
  </outline>
</glyph>
<glyph name="J" format="1">
  <advance width="1230.43"/>
  <unicode hex="004A"/>
  <outline>
    <contour>
      <point x="567.528" y="1806.95" type="curve"/>
      <point x="636.106" y="1775.37"/>
      <point x="715.034" y="1733.04"/>
      <point x="752.053" y="1664.2" type="curve" smooth="yes"/>
      <point x="758.791" y="1651.67"/>
      <point x="781.17" y="1607.64"/>
      <point x="776.424" y="1594.57" type="curve"/>
      <point x="832.841" y="1415.87"/>
      <point x="870.427" y="1236.1"/>
      <point x="870.427" y="1047.96" type="curve" smooth="yes"/>
      <point x="870.427" y="843.223"/>
      <point x="830.774" y="520.324"/>
      <point x="765.979" y="327.27" type="curve" smooth="yes"/>
      <point x="729.567" y="218.784"/>
      <point x="670.583" y="120.977"/>
      <point x="623.233" y="17.4079" type="curve" smooth="yes"/>
      <point x="616.16" y="1.93678"/>
      <point x="609.307" y="-13.9406"/>
      <point x="609.307" y="-31.3345" type="curve" smooth="yes"/>
      <point x="609.307" y="-43.5009"/>
      <point x="575.464" y="-80.6795"/>
      <point x="567.528" y="-94.0033" type="curve" smooth="yes"/>
      <point x="543.033" y="-135.125"/>
      <point x="522.234" y="-177.827"/>
      <point x="495.954" y="-218.092" type="curve" smooth="yes"/>
      <point x="385.323" y="-387.591"/>
      <point x="270.896" y="-419.838"/>
      <point x="76.6222" y="-442.163" type="curve" smooth="yes"/>
      <point x="-6.9465" y="-451.767"/>
      <point x="-91.0635" y="-461.981"/>
      <point x="-170.571" y="-490.906" type="curve" smooth="yes"/>
      <point x="-194.097" y="-499.464"/>
      <point x="-237.336" y="-518.758"/>
      <point x="-261.093" y="-518.758" type="curve" smooth="yes"/>
      <point x="-274.18" y="-518.758"/>
      <point x="-281.983" y="-510.956"/>
      <point x="-281.983" y="-497.869" type="curve" smooth="yes"/>
      <point x="-281.983" y="-447.476"/>
      <point x="49.3931" y="-379.494"/>
      <point x="104.475" y="-379.494" type="curve" smooth="yes"/>
      <point x="210.11" y="-379.494"/>
      <point x="305.188" y="-344.216"/>
      <point x="379.521" y="-268.083" type="curve" smooth="yes"/>
      <point x="420.793" y="-225.814"/>
      <point x="581.454" y="16.015"/>
      <point x="581.454" y="66.1503" type="curve" smooth="yes"/>
      <point x="581.454" y="90.3757"/>
      <point x="611.027" y="137.923"/>
      <point x="623.233" y="160.154" type="curve" smooth="yes"/>
      <point x="746.701" y="385.021"/>
      <point x="818.203" y="777.488"/>
      <point x="818.203" y="1034.04" type="curve" smooth="yes"/>
      <point x="818.203" y="1243.3"/>
      <point x="813.529" y="1494.99"/>
      <point x="633.678" y="1636.35" type="curve" smooth="yes"/>
      <point x="616.011" y="1650.24"/>
      <point x="581.454" y="1673.65"/>
      <point x="581.454" y="1699.02" type="curve" smooth="yes"/>
      <point x="581.454" y="1707.82"/>
      <point x="575.323" y="1716.26"/>
      <point x="567.528" y="1719.91" type="curve"/>
      <point x="549.344" y="1723.6"/>
      <point x="550.12" y="1747.85"/>
      <point x="550.12" y="1761.69" type="curve" smooth="yes"/>
      <point x="550.12" y="1776.37"/>
      <point x="548.867" y="1802.13"/>
    </contour>
  </outline>
</glyph>
<glyph name="K" format="1">
  <advance width="766.496"/>
  <unicode hex="004B"/>
  <outline>
    <contour>
      <point x="563.861" y="-538.9" type="curve"/>
      <point x="555.361" y="-538.9" type="line"/>
      <point x="553.661" y="-535.5" type="line"/>
      <point x="555.04" y="-535.04"/>
      <point x="557.318" y="-533.8"/>
      <point x="558.761" y="-533.8" type="curve"/>
      <point x="561.595" y="-533.8"/>
      <point x="563.568" y="-536.218"/>
    </contour>
    <contour>
      <point x="372" y="552" type="curve"/>
      <point x="359" y="551"/>
      <point x="255.858" y="487.186"/>
      <point x="244" y="478" type="curve" smooth="yes"/>
      <point x="184.857" y="432.185"/>
      <point x="108" y="349"/>
      <point x="108" y="268" type="curve" smooth="yes"/>
      <point x="108" y="248"/>
      <point x="168" y="259"/>
      <point x="183" y="259" type="curve" smooth="yes"/>
      <point x="289" y="259"/>
      <point x="380.114" y="222.166"/>
      <point x="466" y="163" type="curve" smooth="yes"/>
      <point x="470.118" y="160.164"/>
      <point x="506" y="130"/>
      <point x="509" y="130" type="curve" smooth="yes"/>
      <point x="517" y="130"/>
      <point x="627" y="46"/>
      <point x="639" y="35" type="curve"/>
      <point x="646" y="20"/>
      <point x="668" y="-13"/>
      <point x="668" y="-28" type="curve"/>
      <point x="668" y="-29"/>
      <point x="666" y="-32"/>
      <point x="666" y="-33" type="curve"/>
      <point x="664" y="-35"/>
      <point x="663" y="-34"/>
      <point x="661" y="-34" type="curve"/>
      <point x="655" y="-34"/>
      <point x="643.545" y="-20.4079"/>
      <point x="640" y="-16" type="curve" smooth="yes"/>
      <point x="606.523" y="25.6205"/>
      <point x="562.184" y="57.2631"/>
      <point x="518" y="88" type="curve" smooth="yes"/>
      <point x="401.183" y="169.264"/>
      <point x="324" y="225"/>
      <point x="176" y="225" type="curve" smooth="yes"/>
      <point x="162" y="225"/>
      <point x="147.957" y="224.279"/>
      <point x="134" y="222" type="curve" smooth="yes"/>
      <point x="98.9535" y="216.278"/>
      <point x="101" y="221"/>
      <point x="101.461" y="139.4" type="curve" smooth="yes"/>
      <point x="101.603" y="114.272"/>
      <point x="112.984" y="94.4928"/>
      <point x="112.984" y="88.1691" type="curve" smooth="yes"/>
      <point x="112.984" y="74.6646"/>
      <point x="99.5848" y="11.9"/>
      <point x="82.7613" y="11.9" type="curve"/>
      <point x="79.7635" y="11.9"/>
      <point x="78.1788" y="32.6175"/>
      <point x="77.9847" y="35.214" type="curve"/>
      <point x="75.8612" y="63.6053"/>
      <point x="75.9466" y="92.2098"/>
      <point x="75.9615" y="120.661" type="curve" smooth="yes"/>
      <point x="76" y="194"/>
      <point x="74.6709" y="289.097"/>
      <point x="84" y="320" type="curve" smooth="yes"/>
      <point x="106.672" y="395.1"/>
      <point x="129" y="568"/>
      <point x="129" y="645" type="curve" smooth="yes"/>
      <point x="129" y="671"/>
      <point x="117" y="693"/>
      <point x="117" y="720" type="curve" smooth="yes"/>
      <point x="117" y="736"/>
      <point x="118" y="824"/>
      <point x="144" y="824" type="curve" smooth="yes"/>
      <point x="167" y="824"/>
      <point x="169" y="783"/>
      <point x="169" y="768" type="curve" smooth="yes"/>
      <point x="169" y="648"/>
      <point x="149" y="529"/>
      <point x="135" y="411" type="curve"/>
      <point x="158" y="443"/>
      <point x="173.726" y="462.417"/>
      <point x="207" y="484" type="curve" smooth="yes"/>
      <point x="210.752" y="486.434"/>
      <point x="543" y="696"/>
      <point x="545" y="696" type="curve"/>
      <point x="556" y="696"/>
      <point x="588" y="771"/>
      <point x="588" y="786" type="curve" smooth="yes"/>
      <point x="588" y="794"/>
      <point x="592" y="798"/>
      <point x="600" y="798" type="curve"/>
      <point x="602" y="798"/>
      <point x="606" y="796"/>
      <point x="607" y="794" type="curve"/>
      <point x="605" y="692"/>
      <point x="497.076" y="620.842"/>
      <point x="414" y="581" type="curve" smooth="yes"/>
      <point x="399.075" y="573.842"/>
      <point x="388" y="559"/>
    </contour>
  </outline>
</glyph>
<glyph name="L" format="1">
  <advance width="1511.89"/>
  <unicode hex="004C"/>
  <outline>
    <contour>
      <point x="419.362" y="1675.26" type="curve" smooth="yes"/>
      <point x="462.256" y="1675.26"/>
      <point x="484.898" y="1592.14"/>
      <point x="484.898" y="1558.53" type="curve" smooth="yes"/>
      <point x="484.898" y="1519.19"/>
      <point x="476.831" y="1480.45"/>
      <point x="470.562" y="1441.79" type="curve" smooth="yes"/>
      <point x="416.801" y="1110.29"/>
      <point x="369.125" y="774.778"/>
      <point x="369.125" y="438.284" type="curve" smooth="yes"/>
      <point x="369.125" y="352.706"/>
      <point x="371.612" y="267.075"/>
      <point x="373.113" y="181.514" type="curve"/>
      <point x="448.454" y="138.957"/>
      <point x="525.934" y="96.1127"/>
      <point x="611.603" y="78.7564" type="curve" smooth="yes"/>
      <point x="771.2" y="46.4224"/>
      <point x="1269.14" y="71.6053"/>
      <point x="1361.89" y="-45.2608" type="curve"/>
      <point x="1358.86" y="-49.7403"/>
      <point x="1353.28" y="-52.2241"/>
      <point x="1347.96" y="-52.2241" type="curve" smooth="yes"/>
      <point x="1339.68" y="-52.2241"/>
      <point x="1331.67" y="-50.146"/>
      <point x="1323.59" y="-48.6737" type="curve" smooth="yes"/>
      <point x="1190.71" y="-24.4665"/>
      <point x="1054.2" y="-28.7528"/>
      <point x="919.725" y="-23.8207" type="curve" smooth="yes"/>
      <point x="820.352" y="-20.1761"/>
      <point x="654.903" y="-31.6086"/>
      <point x="564.601" y="-6.0687" type="curve" smooth="yes"/>
      <point x="529.911" y="3.74294"/>
      <point x="502.69" y="31.4253"/>
      <point x="470.598" y="47.1876" type="curve" smooth="yes"/>
      <point x="373.755" y="94.7538"/>
      <point x="374.648" y="99.6928"/>
      <point x="300" y="175.003" type="curve"/>
      <point x="303.436" y="444.834" type="line" smooth="yes"/>
      <point x="306.999" y="716.21"/>
      <point x="345.999" y="985.238"/>
      <point x="384.546" y="1253.38" type="curve" smooth="yes"/>
      <point x="395.469" y="1329.36"/>
      <point x="405.026" y="1405.86"/>
      <point x="405.026" y="1482.75" type="curve" smooth="yes"/>
      <point x="405.026" y="1529.32"/>
      <point x="396.834" y="1575.44"/>
      <point x="396.834" y="1622.02" type="curve" smooth="yes"/>
      <point x="396.834" y="1639.41"/>
      <point x="393.941" y="1675.26"/>
    </contour>
  </outline>
</glyph>
<glyph name="M" format="1">
  <advance width="864.764"/>
  <unicode hex="004D"/>
  <outline>
    <contour>
      <point x="389.597" y="22.1" type="curve" smooth="yes"/>
      <point x="344.26" y="22.1"/>
      <point x="254.199" y="322.215"/>
      <point x="245.769" y="363.071" type="curve" smooth="yes"/>
      <point x="219.088" y="492.379"/>
      <point x="231" y="641"/>
      <point x="162" y="749" type="curve"/>
      <point x="140" y="596"/>
      <point x="127.915" y="432.477"/>
      <point x="127.915" y="266.252" type="curve" smooth="yes"/>
      <point x="127.915" y="244.542"/>
      <point x="126.776" y="43.7843"/>
      <point x="134.715" y="30.892" type="curve" smooth="yes"/>
      <point x="136.675" y="27.7091"/>
      <point x="138.342" y="24.8727"/>
      <point x="138.342" y="20.9017" type="curve" smooth="yes"/>
      <point x="138.342" y="9.66249"/>
      <point x="127.285" y="1.69991"/>
      <point x="117.715" y="1.69991" type="curve" smooth="yes"/>
      <point x="94.2174" y="1.69991"/>
      <point x="95.615" y="114.309"/>
      <point x="95.615" y="128.797" type="curve" smooth="yes"/>
      <point x="95.615" y="321.272"/>
      <point x="104.953" y="517.003"/>
      <point x="118" y="695" type="curve" smooth="yes"/>
      <point x="118.953" y="708.004"/>
      <point x="125" y="817"/>
      <point x="145" y="817" type="curve" smooth="yes"/>
      <point x="155" y="817"/>
      <point x="170.872" y="796.907"/>
      <point x="176" y="790" type="curve" smooth="yes"/>
      <point x="219.873" y="730.906"/>
      <point x="239.312" y="631.043"/>
      <point x="249" y="560" type="curve" smooth="yes"/>
      <point x="260.312" y="477.042"/>
      <point x="270.296" y="378.956"/>
      <point x="298.925" y="290.535" type="curve" smooth="yes"/>
      <point x="303.279" y="277.089"/>
      <point x="344.242" y="148.093"/>
      <point x="353.742" y="147.326" type="curve"/>
      <point x="362.963" y="131.187"/>
      <point x="368.23" y="66.2667"/>
      <point x="389.715" y="66.3001" type="curve"/>
      <point x="402.478" y="92.3076"/>
      <point x="420.315" y="166.435"/>
      <point x="420.315" y="197.051" type="curve" smooth="yes"/>
      <point x="420.315" y="205.957"/>
      <point x="486.948" y="389.959"/>
      <point x="491.754" y="400.545" type="curve" smooth="yes"/>
      <point x="524.76" y="473.229"/>
      <point x="593.119" y="584.923"/>
      <point x="635" y="650" type="curve" smooth="yes"/>
      <point x="658.119" y="685.924"/>
      <point x="673.391" y="726.743"/>
      <point x="697" y="763" type="curve" smooth="yes"/>
      <point x="701.399" y="769.756"/>
      <point x="716" y="793"/>
      <point x="726" y="793" type="curve"/>
      <point x="728" y="793"/>
      <point x="730" y="792"/>
      <point x="731" y="791" type="curve"/>
      <point x="749" y="773"/>
      <point x="748" y="683"/>
      <point x="748" y="659" type="curve" smooth="yes"/>
      <point x="748" y="598"/>
      <point x="743" y="538"/>
      <point x="743" y="477" type="curve" smooth="yes"/>
      <point x="743" y="391"/>
      <point x="735.998" y="216.508"/>
      <point x="751.815" y="123.873" type="curve" smooth="yes"/>
      <point x="754.335" y="109.114"/>
      <point x="761.274" y="72.4297"/>
      <point x="770.515" y="61.015" type="curve" smooth="yes"/>
      <point x="775.194" y="55.2359"/>
      <point x="777.315" y="52.1934"/>
      <point x="777.315" y="43.8719" type="curve" smooth="yes"/>
      <point x="777.315" y="31.2101"/>
      <point x="767.392" y="15.3"/>
      <point x="755.215" y="15.3" type="curve" smooth="yes"/>
      <point x="741.355" y="15.3"/>
      <point x="735.348" y="49.3281"/>
      <point x="733.115" y="59.5625" type="curve" smooth="yes"/>
      <point x="713.22" y="150.73"/>
      <point x="711.015" y="315.367"/>
      <point x="711.015" y="413.663" type="curve" smooth="yes"/>
      <point x="711.015" y="468.098"/>
      <point x="716" y="523"/>
      <point x="716" y="574" type="curve" smooth="yes"/>
      <point x="716" y="616"/>
      <point x="716" y="659"/>
      <point x="713" y="701" type="curve"/>
      <point x="709" y="705" type="line"/>
      <point x="696" y="704"/>
      <point x="674.709" y="658.156"/>
      <point x="670" y="649" type="curve" smooth="yes"/>
      <point x="638.706" y="588.15"/>
      <point x="604.96" y="528.03"/>
      <point x="563" y="473" type="curve" smooth="yes"/>
      <point x="543.96" y="448.03"/>
      <point x="484.915" y="338.601"/>
      <point x="484.915" y="309.15" type="curve" smooth="yes"/>
      <point x="484.915" y="295.863"/>
      <point x="475.907" y="275.251"/>
      <point x="471.298" y="263.185" type="curve" smooth="yes"/>
      <point x="450.265" y="208.124"/>
      <point x="450.903" y="146.975"/>
      <point x="430.448" y="89.6413" type="curve" smooth="yes"/>
      <point x="425.523" y="75.8376"/>
      <point x="407.1" y="22.1"/>
    </contour>
  </outline>
</glyph>
<glyph name="N" format="1">
  <advance width="839.736"/>
  <unicode hex="004E"/>
  <outline>
    <contour>
      <point x="710.5" y="861.263" type="curve" smooth="yes"/>
      <point x="737.853" y="861.263"/>
      <point x="756.582" y="821.75"/>
      <point x="764.9" y="800.063" type="curve"/>
      <point x="759.8" y="794.963" type="line"/>
      <point x="747.603" y="795.296"/>
      <point x="724.914" y="817.59"/>
      <point x="715.6" y="825.563" type="curve"/>
      <point x="662.054" y="661.057"/>
      <point x="663.087" y="637.16"/>
      <point x="656.1" y="463.463" type="curve" smooth="yes"/>
      <point x="652.394" y="371.339"/>
      <point x="651.563" y="273.997"/>
      <point x="635.7" y="182.963" type="curve" smooth="yes"/>
      <point x="629.021" y="144.63"/>
      <point x="623.123" y="106.025"/>
      <point x="618.7" y="67.3626" type="curve" smooth="yes"/>
      <point x="617.58" y="57.5717"/>
      <point x="611.144" y="-9.67861"/>
      <point x="601.7" y="-14.2375" type="curve"/>
      <point x="600" y="-14.2375" type="line"/>
      <point x="586.189" y="-14.2375"/>
      <point x="566.997" y="3.54189"/>
      <point x="557.5" y="12.1125" type="curve" smooth="yes"/>
      <point x="448.337" y="110.627"/>
      <point x="368.153" y="339.962"/>
      <point x="314.4" y="475.363" type="curve" smooth="yes"/>
      <point x="292.49" y="530.552"/>
      <point x="274.231" y="586.378"/>
      <point x="241.3" y="636.863" type="curve"/>
      <point x="221.461" y="574.538"/>
      <point x="213.46" y="473.613"/>
      <point x="200.5" y="405.663" type="curve" smooth="yes"/>
      <point x="185.736" y="328.25"/>
      <point x="172.867" y="250.658"/>
      <point x="156.3" y="173.613" type="curve" smooth="yes"/>
      <point x="149.587" y="142.394"/>
      <point x="134.398" y="-45.2153"/>
      <point x="107.85" y="-45.2153" type="curve" smooth="yes"/>
      <point x="98.3496" y="-45.2153"/>
      <point x="97.65" y="-32.5529"/>
      <point x="97.65" y="-26.1375" type="curve" smooth="yes"/>
      <point x="97.65" y="-20.0226"/>
      <point x="99.631" y="-13.0657"/>
      <point x="101.9" y="-7.4375" type="curve" smooth="yes"/>
      <point x="112.524" y="18.9143"/>
      <point x="113.589" y="45.9943"/>
      <point x="115.5" y="74.1625" type="curve" smooth="yes"/>
      <point x="120.301" y="144.953"/>
      <point x="135.147" y="217.681"/>
      <point x="151.2" y="286.663" type="curve" smooth="yes"/>
      <point x="168.732" y="362"/>
      <point x="175.955" y="439.259"/>
      <point x="193.7" y="514.462" type="curve" smooth="yes"/>
      <point x="207.051" y="571.042"/>
      <point x="200.5" y="642.17"/>
      <point x="200.5" y="699.762" type="curve" smooth="yes"/>
      <point x="200.5" y="706.907"/>
      <point x="199.867" y="754.162"/>
      <point x="212.4" y="754.162" type="curve" smooth="yes"/>
      <point x="232.395" y="754.162"/>
      <point x="303.029" y="587.239"/>
      <point x="311" y="568.862" type="curve" smooth="yes"/>
      <point x="378.442" y="413.37"/>
      <point x="436.778" y="216.171"/>
      <point x="537.1" y="79.2625" type="curve" smooth="yes"/>
      <point x="541.893" y="72.7218"/>
      <point x="563.596" y="41.8625"/>
      <point x="572.8" y="41.8625" type="curve" smooth="yes"/>
      <point x="583.2" y="41.8625"/>
      <point x="585.38" y="62.3061"/>
      <point x="586.4" y="69.0625" type="curve" smooth="yes"/>
      <point x="607.331" y="207.673"/>
      <point x="627.2" y="351.906"/>
      <point x="627.2" y="492.362" type="curve" smooth="yes"/>
      <point x="627.2" y="576.313"/>
      <point x="631.429" y="701.016"/>
      <point x="662.9" y="779.662" type="curve" smooth="yes"/>
      <point x="668.443" y="793.515"/>
      <point x="690.696" y="861.262"/>
    </contour>
  </outline>
</glyph>
<glyph name="O" format="1">
  <advance width="1918.67"/>
  <unicode hex="004F"/>
  <outline>
    <contour>
      <point x="275.967" y="613.169" type="curve" smooth="yes"/>
      <point x="275.967" y="307.525"/>
      <point x="440.261" y="49.1519"/>
      <point x="767.927" y="49.1519" type="curve" smooth="yes"/>
      <point x="1175.85" y="49.1519"/>
      <point x="1646.08" y="534.761"/>
      <point x="1646.08" y="940.032" type="curve" smooth="yes"/>
      <point x="1646.08" y="1119.41"/>
      <point x="1552.86" y="1276.2"/>
      <point x="1435.13" y="1404.93" type="curve" smooth="yes"/>
      <point x="1402.34" y="1440.79"/>
      <point x="1375.33" y="1470.46"/>
      <point x="1322.49" y="1470.46" type="curve" smooth="yes"/>
      <point x="1274.71" y="1470.46"/>
      <point x="1301.51" y="1493.67"/>
      <point x="1244.67" y="1515.52" type="curve" smooth="yes"/>
      <point x="1228.79" y="1521.63"/>
      <point x="1179.91" y="1522.47"/>
      <point x="1162.64" y="1522.47" type="curve" smooth="yes"/>
      <point x="1135.37" y="1522.47"/>
      <point x="1108.1" y="1521.66"/>
      <point x="1080.83" y="1521.66" type="curve" smooth="yes"/>
      <point x="768.906" y="1521.66"/>
      <point x="602.427" y="1362.19"/>
      <point x="435.711" y="1112.06" type="curve" smooth="yes"/>
      <point x="331.1" y="955.115"/>
      <point x="275.967" y="803.918"/>
    </contour>
    <contour>
      <point x="1031.68" y="1597.44" type="curve" smooth="yes"/>
      <point x="1040.52" y="1597.44"/>
      <point x="1048.06" y="1602.24"/>
      <point x="1048.06" y="1611.78" type="curve" smooth="yes"/>
      <point x="1048.06" y="1621.32"/>
      <point x="1040.52" y="1626.11"/>
      <point x="1031.68" y="1626.11" type="curve" smooth="yes"/>
      <point x="1022.58" y="1626.11"/>
      <point x="1017.34" y="1620.82"/>
      <point x="1017.34" y="1611.78" type="curve" smooth="yes"/>
      <point x="1017.34" y="1602.73"/>
      <point x="1022.58" y="1597.44"/>
    </contour>
    <contour>
      <point x="957.951" y="1576.96" type="curve"/>
      <point x="945.329" y="1600.09"/>
      <point x="931.133" y="1622.32"/>
      <point x="916.991" y="1644.54" type="curve"/>
      <point x="914.246" y="1632.82"/>
      <point x="910.581" y="1591.37"/>
      <point x="894.463" y="1591.3" type="curve"/>
      <point x="884.95" y="1596.21"/>
      <point x="869.295" y="1617.61"/>
      <point x="861.695" y="1617.92" type="curve"/>
      <point x="855.183" y="1611.41"/>
      <point x="853.503" y="1602.22"/>
      <point x="853.503" y="1593.34" type="curve" smooth="yes"/>
      <point x="853.503" y="1583.05"/>
      <point x="855.04" y="1571.94"/>
      <point x="859.647" y="1562.62" type="curve"/>
      <point x="864.764" y="1561.98"/>
      <point x="870.933" y="1560.58"/>
      <point x="876.031" y="1560.58" type="curve" smooth="yes"/>
      <point x="903.813" y="1560.58"/>
      <point x="932.304" y="1566.28"/>
    </contour>
    <contour>
      <point x="1705.47" y="917.504" type="curve" smooth="yes"/>
      <point x="1705.47" y="616.366"/>
      <point x="1564.29" y="455.45"/>
      <point x="1358.89" y="254.379" type="curve" smooth="yes"/>
      <point x="1198.09" y="96.9674"/>
      <point x="1035.69" y="-20.48"/>
      <point x="800.013" y="-20.48" type="curve" smooth="yes"/>
      <point x="702.594" y="-20.48"/>
      <point x="609.981" y="1.88886"/>
      <point x="521.599" y="42.2727" type="curve" smooth="yes"/>
      <point x="290.106" y="148.048"/>
      <point x="212.479" y="301.566"/>
      <point x="212.479" y="550.569" type="curve" smooth="yes"/>
      <point x="212.479" y="776.106"/>
      <point x="274.489" y="968.709"/>
      <point x="396.799" y="1157.12" type="curve" smooth="yes"/>
      <point x="422.512" y="1196.73"/>
      <point x="444.131" y="1240.44"/>
      <point x="472.727" y="1277.94" type="curve" smooth="yes"/>
      <point x="506.48" y="1322.2"/>
      <point x="548.907" y="1360.79"/>
      <point x="589.311" y="1398.78" type="curve" smooth="yes"/>
      <point x="633.596" y="1440.42"/>
      <point x="682.554" y="1477.6"/>
      <point x="736.767" y="1505.28" type="curve" smooth="yes"/>
      <point x="754.417" y="1514.29"/>
      <point x="791.392" y="1531.57"/>
      <point x="798.207" y="1552.38" type="curve"/>
      <point x="796.158" y="1559.69"/>
      <point x="794.111" y="1567.26"/>
      <point x="794.111" y="1574.91" type="curve" smooth="yes"/>
      <point x="794.111" y="1682.91"/>
      <point x="856.41" y="1691.65"/>
      <point x="949.759" y="1691.65" type="curve" smooth="yes"/>
      <point x="1007.6" y="1691.65"/>
      <point x="1073.65" y="1689.82"/>
      <point x="1125.89" y="1662.98" type="curve" smooth="yes"/>
      <point x="1157.99" y="1646.47"/>
      <point x="1251.58" y="1597.44"/>
      <point x="1283.58" y="1597.44" type="curve" smooth="yes"/>
      <point x="1315.02" y="1597.44"/>
      <point x="1391.99" y="1528.21"/>
      <point x="1416.7" y="1505.28" type="curve" smooth="yes"/>
      <point x="1605.45" y="1330.17"/>
      <point x="1705.47" y="1182.34"/>
    </contour>
  </outline>
</glyph>
<glyph name="P" format="1">
  <advance width="1381.95"/>
  <unicode hex="0050"/>
  <outline>
    <contour>
      <point x="784.384" y="1638.4" type="curve" smooth="yes"/>
      <point x="641.024" y="1638.4"/>
      <point x="647.503" y="1614"/>
      <point x="526.336" y="1578.71" type="curve" smooth="yes"/>
      <point x="454.979" y="1557.92"/>
      <point x="417.792" y="1522.63"/>
      <point x="417.792" y="1453.89" type="curve" smooth="yes"/>
      <point x="417.792" y="1314.6"/>
      <point x="436.224" y="1173.5"/>
      <point x="436.224" y="1013.76" type="curve" smooth="yes"/>
      <point x="436.224" y="927.744"/>
      <point x="441.439" y="833.712"/>
      <point x="425.984" y="749.568" type="curve" smooth="yes"/>
      <point x="423.001" y="733.328"/>
      <point x="419.84" y="716.8"/>
      <point x="419.84" y="698.368" type="curve"/>
      <point x="419.84" y="694.272" type="line"/>
      <point x="442.368" y="684.032"/>
      <point x="464.896" y="681.984"/>
      <point x="487.424" y="681.984" type="curve" smooth="yes"/>
      <point x="817.152" y="681.984"/>
      <point x="1208.32" y="1039.92"/>
      <point x="1208.32" y="1349.74" type="curve" smooth="yes"/>
      <point x="1208.32" y="1578.74"/>
      <point x="983.04" y="1638.4"/>
    </contour>
    <contour>
      <point x="839.68" y="1708.03" type="curve" smooth="yes"/>
      <point x="1058.82" y="1708.03"/>
      <point x="1267.71" y="1572.27"/>
      <point x="1267.71" y="1351.17" type="curve" smooth="yes"/>
      <point x="1267.71" y="980.739"/>
      <point x="833.536" y="610.304"/>
      <point x="446.464" y="610.304" type="curve" smooth="yes"/>
      <point x="421.888" y="610.304"/>
      <point x="408.782" y="598.37"/>
      <point x="399.36" y="575.488" type="curve" smooth="yes"/>
      <point x="380.101" y="528.716"/>
      <point x="237.683" y="-105.777"/>
      <point x="237.683" y="-150.813" type="curve" smooth="yes"/>
      <point x="237.683" y="-161.645"/>
      <point x="238.459" y="-184.525"/>
      <point x="255.091" y="-184.525" type="curve" smooth="yes"/>
      <point x="285.809" y="-184.525"/>
      <point x="298.319" y="-137.67"/>
      <point x="317.76" y="-118.374" type="curve"/>
      <point x="318.783" y="-122.467"/>
      <point x="321.242" y="-128.098"/>
      <point x="321.242" y="-132.301" type="curve"/>
      <point x="321.242" y="-169.315"/>
      <point x="294.785" y="-264.602"/>
      <point x="248.128" y="-264.602" type="curve" smooth="yes"/>
      <point x="193.724" y="-264.602"/>
      <point x="195.904" y="-181.356"/>
      <point x="195.904" y="-147.626" type="curve" smooth="yes"/>
      <point x="195.904" y="37.1265"/>
      <point x="252.596" y="194.417"/>
      <point x="290.816" y="380.928" type="curve" smooth="yes"/>
      <point x="303.798" y="444.278"/>
      <point x="327.68" y="522.24"/>
      <point x="327.68" y="589.824" type="curve" smooth="yes"/>
      <point x="327.68" y="638.976"/>
      <point x="186.368" y="630.784"/>
      <point x="186.368" y="753.664" type="curve" smooth="yes"/>
      <point x="186.368" y="794.624"/>
      <point x="219.136" y="878.592"/>
      <point x="268.288" y="878.592" type="curve" smooth="yes"/>
      <point x="292.864" y="878.592"/>
      <point x="296.96" y="858.112"/>
      <point x="296.96" y="839.68" type="curve" smooth="yes"/>
      <point x="296.96" y="802.816"/>
      <point x="256" y="786.432"/>
      <point x="256" y="751.616" type="curve" smooth="yes"/>
      <point x="256" y="724.992"/>
      <point x="288.768" y="690.176"/>
      <point x="315.392" y="690.176" type="curve" smooth="yes"/>
      <point x="385.024" y="690.176"/>
      <point x="372.736" y="1060.86"/>
      <point x="372.736" y="1093.63" type="curve" smooth="yes"/>
      <point x="372.736" y="1142.78"/>
      <point x="385.024" y="1447.94"/>
      <point x="317.44" y="1447.94" type="curve" smooth="yes"/>
      <point x="266.24" y="1447.94"/>
      <point x="172.032" y="1351.68"/>
      <point x="172.032" y="1296.38" type="curve" smooth="yes"/>
      <point x="172.032" y="1257.47"/>
      <point x="188.416" y="1222.66"/>
      <point x="188.416" y="1183.74" type="curve"/>
      <point x="188.416" y="1181.7" type="line"/>
      <point x="141.312" y="1189.89"/>
      <point x="102.4" y="1243.14"/>
      <point x="102.4" y="1290.24" type="curve" smooth="yes"/>
      <point x="102.4" y="1495.04"/>
      <point x="551.032" y="1662.49"/>
      <point x="708.608" y="1701.89" type="curve" smooth="yes"/>
      <point x="747.643" y="1711.65"/>
      <point x="798.72" y="1708.03"/>
    </contour>
  </outline>
</glyph>
<glyph name="Q" format="1">
  <advance width="2247.42"/>
  <unicode hex="0051"/>
  <outline>
    <contour>
      <point x="1122.44" y="1531.24" type="curve" smooth="yes"/>
      <point x="1017.75" y="1531.24"/>
      <point x="474.416" y="1224.78"/>
      <point x="474.416" y="1124.81" type="curve" smooth="yes"/>
      <point x="474.416" y="1114.86"/>
      <point x="468.69" y="1104.88"/>
      <point x="458.61" y="1102.23" type="curve"/>
      <point x="365.104" y="973.229"/>
      <point x="293.782" y="829.106"/>
      <point x="293.782" y="666.452" type="curve" smooth="yes"/>
      <point x="293.782" y="392.869"/>
      <point x="419.537" y="207.981"/>
      <point x="662.444" y="87.8392" type="curve" smooth="yes"/>
      <point x="718.576" y="60.076"/>
      <point x="779.534" y="37.8473"/>
      <point x="842.935" y="37.8473" type="curve" smooth="yes"/>
      <point x="971.791" y="37.8473"/>
      <point x="1164.91" y="45.413"/>
      <point x="1261.52" y="141.486" type="curve"/>
      <point x="1232.33" y="191.898"/>
      <point x="1033.8" y="440.341"/>
      <point x="1033.8" y="463.603" type="curve" smooth="yes"/>
      <point x="1033.8" y="481.37"/>
      <point x="1048.46" y="500.382"/>
      <point x="1067.37" y="500.382" type="curve" smooth="yes"/>
      <point x="1089.54" y="500.382"/>
      <point x="1090.84" y="492.392"/>
      <point x="1099.69" y="475.432" type="curve" smooth="yes"/>
      <point x="1121.54" y="433.596"/>
      <point x="1326.36" y="187.547"/>
      <point x="1358.31" y="187.547" type="curve" smooth="yes"/>
      <point x="1397.99" y="187.547"/>
      <point x="1466.71" y="238.666"/>
      <point x="1499.03" y="262.276" type="curve" smooth="yes"/>
      <point x="1718.54" y="422.649"/>
      <point x="1914.97" y="635.118"/>
      <point x="1914.97" y="923.855" type="curve" smooth="yes"/>
      <point x="1914.97" y="1142.65"/>
      <point x="1683.08" y="1341.84"/>
      <point x="1504.03" y="1434.14" type="curve" smooth="yes"/>
      <point x="1444.81" y="1464.67"/>
      <point x="1329.73" y="1519.95"/>
      <point x="1264.69" y="1519.95" type="curve" smooth="yes"/>
      <point x="1200.6" y="1519.95"/>
      <point x="1221.07" y="1420.95"/>
      <point x="1176.63" y="1384.47" type="curve"/>
      <point x="1128.76" y="1386.08"/>
      <point x="1172.31" y="1531.24"/>
    </contour>
    <contour>
      <point x="1507.18" y="-31.2453" type="curve"/>
      <point x="1513.13" y="-110.452"/>
      <point x="1834.92" y="-434.284"/>
      <point x="1917.9" y="-434.284" type="curve" smooth="yes"/>
      <point x="1949.05" y="-434.284"/>
      <point x="2048.4" y="-513.47"/>
      <point x="2048.4" y="-545.599" type="curve" smooth="yes"/>
      <point x="2048.4" y="-563.115"/>
      <point x="2040.8" y="-576.307"/>
      <point x="2021.54" y="-576.307" type="curve" smooth="yes"/>
      <point x="1992.75" y="-576.307"/>
      <point x="1929.78" y="-547.457"/>
      <point x="1902.54" y="-534.084" type="curve" smooth="yes"/>
      <point x="1650.34" y="-410.261"/>
      <point x="1484.49" y="-128.182"/>
      <point x="1311.42" y="83.9086" type="curve"/>
      <point x="1079.84" y="-36.1963"/>
      <point x="1107.01" y="-31.6921"/>
      <point x="839.065" y="-31.6921" type="curve" smooth="yes"/>
      <point x="803.944" y="-31.6921"/>
      <point x="768.499" y="-30.941"/>
      <point x="733.73" y="-25.4875" type="curve" smooth="yes"/>
      <point x="461.153" y="17.2668"/>
      <point x="217.013" y="379.354"/>
      <point x="217.013" y="643.873" type="curve" smooth="yes"/>
      <point x="217.013" y="912.358"/>
      <point x="418.253" y="1214.75"/>
      <point x="630.212" y="1368.67" type="curve" smooth="yes"/>
      <point x="801.56" y="1493.09"/>
      <point x="1164.8" y="1663.62"/>
      <point x="1375.33" y="1675.74" type="curve" smooth="yes"/>
      <point x="1380.2" y="1676.02"/>
      <point x="1386.66" y="1678.42"/>
      <point x="1391.13" y="1680.26" type="curve"/>
      <point x="1397.18" y="1697.31"/>
      <point x="1421.89" y="1696.06"/>
      <point x="1436.29" y="1696.06" type="curve" smooth="yes"/>
      <point x="1463.97" y="1696.06"/>
      <point x="1522.09" y="1689.97"/>
      <point x="1522.09" y="1650.9" type="curve" smooth="yes"/>
      <point x="1522.09" y="1598.03"/>
      <point x="1455.22" y="1592.1"/>
      <point x="1420.48" y="1569.62" type="curve"/>
      <point x="1427.11" y="1554.29"/>
      <point x="1502.97" y="1507.9"/>
      <point x="1518.51" y="1497.68" type="curve" smooth="yes"/>
      <point x="1720.63" y="1364.78"/>
      <point x="1978.19" y="1168.34"/>
      <point x="1978.19" y="901.276" type="curve" smooth="yes"/>
      <point x="1978.19" y="766.134"/>
      <point x="1870.48" y="495.524"/>
      <point x="1771.31" y="403.066" type="curve" smooth="yes"/>
      <point x="1656.27" y="295.818"/>
      <point x="1528.77" y="196.433"/>
      <point x="1392.03" y="118.455" type="curve"/>
      <point x="1432.76" y="70.4694"/>
      <point x="1474.54" y="22.8191"/>
    </contour>
  </outline>
</glyph>
<glyph name="R" format="1">
  <advance width="890.969"/>
  <unicode hex="0052"/>
  <outline>
    <contour>
      <point x="64.0228" y="670.51" type="curve" smooth="yes"/>
      <point x="64.0228" y="788.481"/>
      <point x="199.771" y="836.855"/>
      <point x="298.198" y="836.855" type="curve" smooth="yes"/>
      <point x="318.239" y="836.855"/>
      <point x="374.893" y="821.495"/>
      <point x="396.713" y="815.86" type="curve" smooth="yes"/>
      <point x="461.4" y="799.153"/>
      <point x="642.193" y="770.275"/>
      <point x="642.193" y="680.2" type="curve" smooth="yes"/>
      <point x="642.193" y="653.202"/>
      <point x="637.789" y="621.364"/>
      <point x="627.658" y="596.22" type="curve" smooth="yes"/>
      <point x="602.235" y="533.126"/>
      <point x="491.663" y="417.724"/>
      <point x="425.783" y="377.388" type="curve" smooth="yes"/>
      <point x="421.14" y="374.545"/>
      <point x="374.858" y="351.261"/>
      <point x="374.103" y="349.125" type="curve"/>
      <point x="373.727" y="334.838"/>
      <point x="304.821" y="330.308"/>
      <point x="304.658" y="310.365" type="curve"/>
      <point x="306.896" y="307.99"/>
      <point x="311.383" y="307.135"/>
      <point x="314.348" y="307.135" type="curve"/>
      <point x="357.301" y="307.135"/>
      <point x="560.143" y="100.167"/>
      <point x="592.128" y="68.115" type="curve" smooth="yes"/>
      <point x="610.105" y="50.1006"/>
      <point x="760.08" y="-101.63"/>
      <point x="776.238" y="-109.535" type="curve" smooth="yes"/>
      <point x="780.596" y="-111.667"/>
      <point x="784.759" y="-113.447"/>
      <point x="788.35" y="-116.802" type="curve"/>
      <point x="789.871" y="-126.18"/>
      <point x="775.849" y="-127.3"/>
      <point x="769.778" y="-127.3" type="curve" smooth="yes"/>
      <point x="734.293" y="-127.3"/>
      <point x="494.655" y="117.109"/>
      <point x="458.083" y="160.17" type="curve" smooth="yes"/>
      <point x="417.705" y="207.712"/>
      <point x="309.231" y="292.6"/>
      <point x="246.518" y="292.6" type="curve" smooth="yes"/>
      <point x="216.52" y="292.6"/>
      <point x="222.293" y="246.79"/>
      <point x="222.293" y="226.385" type="curve" smooth="yes"/>
      <point x="222.293" y="216.319"/>
      <point x="221.214" y="166.489"/>
      <point x="230.368" y="160.17" type="curve" smooth="yes"/>
      <point x="239.02" y="154.198"/>
      <point x="238.443" y="140.456"/>
      <point x="238.443" y="131.1" type="curve" smooth="yes"/>
      <point x="238.443" y="107.24"/>
      <point x="223.908" y="91.0255"/>
      <point x="223.908" y="71.3449" type="curve" smooth="yes"/>
      <point x="223.908" y="49.8488"/>
      <point x="235.322" y="-5.91958"/>
      <point x="244.903" y="-23.9401" type="curve"/>
      <point x="247.992" y="-25.7967"/>
      <point x="249.748" y="-30.2345"/>
      <point x="249.748" y="-33.6301" type="curve" smooth="yes"/>
      <point x="249.748" y="-43.3782"/>
      <point x="235.461" y="-47.5778"/>
      <point x="227.458" y="-47.5778" type="curve" smooth="yes"/>
      <point x="193.847" y="-47.5778"/>
      <point x="189.993" y="146.667"/>
      <point x="189.993" y="182.78" type="curve" smooth="yes"/>
      <point x="189.993" y="217.045"/>
      <point x="194.018" y="252.049"/>
      <point x="196.453" y="286.14" type="curve"/>
      <point x="172.959" y="281.636"/>
      <point x="149.497" y="274.835"/>
      <point x="125.393" y="274.835" type="curve" smooth="yes"/>
      <point x="113.367" y="274.835"/>
      <point x="97.9381" y="277.473"/>
      <point x="97.9381" y="292.6" type="curve" smooth="yes"/>
      <point x="97.9381" y="310.708"/>
      <point x="167.602" y="334.59"/>
      <point x="181.918" y="334.59" type="curve" smooth="yes"/>
      <point x="211.271" y="334.59"/>
      <point x="201.298" y="423.807"/>
      <point x="201.298" y="441.18" type="curve" smooth="yes"/>
      <point x="201.298" y="454.972"/>
      <point x="202.795" y="583.32"/>
      <point x="180.303" y="583.3" type="curve"/>
      <point x="174.65" y="588.145" type="line"/>
      <point x="174.534" y="596.005"/>
      <point x="176.486" y="601.769"/>
      <point x="183.533" y="605.91" type="curve"/>
      <point x="186.763" y="613.985" type="line"/>
      <point x="186.441" y="653.808"/>
      <point x="160.923" y="693.176"/>
      <point x="160.923" y="735.11" type="curve" smooth="yes"/>
      <point x="160.923" y="744.106"/>
      <point x="165.44" y="770.796"/>
      <point x="177.391" y="771.061" type="curve"/>
      <point x="190.564" y="765.95"/>
      <point x="194.838" y="752.902"/>
      <point x="194.838" y="739.955" type="curve" smooth="yes"/>
      <point x="194.838" y="687.348"/>
      <point x="209.306" y="632.287"/>
      <point x="222.293" y="581.685" type="curve" smooth="yes"/>
      <point x="241.384" y="507.302"/>
      <point x="218.777" y="424.04"/>
      <point x="234.406" y="349.932" type="curve" smooth="yes"/>
      <point x="237.176" y="336.796"/>
      <point x="241.133" y="331.36"/>
      <point x="254.593" y="331.36" type="curve" smooth="yes"/>
      <point x="367.975" y="331.36"/>
      <point x="613.123" y="546.013"/>
      <point x="613.123" y="662.435" type="curve" smooth="yes"/>
      <point x="613.123" y="766.875"/>
      <point x="354.458" y="801.325"/>
      <point x="277.203" y="801.325" type="curve" smooth="yes"/>
      <point x="191.895" y="801.325"/>
      <point x="83.4031" y="753.428"/>
      <point x="83.4031" y="655.975" type="curve" smooth="yes"/>
      <point x="83.4031" y="619.576"/>
      <point x="108.483" y="596.301"/>
      <point x="108.897" y="573.832" type="curve"/>
      <point x="106.013" y="568.765" type="line"/>
      <point x="94.7242" y="568.033"/>
      <point x="100.884" y="585.077"/>
      <point x="93.0931" y="589.76" type="curve"/>
      <point x="77.0784" y="590.168"/>
      <point x="64.0231" y="655.92"/>
    </contour>
  </outline>
</glyph>
<glyph name="S" format="1">
  <advance width="1839.61"/>
  <unicode hex="0053"/>
  <outline>
    <contour>
      <point x="1434.29" y="1702.5" type="curve" smooth="yes"/>
      <point x="1434.29" y="1721.09"/>
      <point x="1426.22" y="1733.84"/>
      <point x="1406.44" y="1733.84" type="curve" smooth="yes"/>
      <point x="1390.44" y="1733.84"/>
      <point x="1364.68" y="1727.75"/>
      <point x="1364.68" y="1707.2" type="curve" smooth="yes"/>
      <point x="1364.68" y="1690.82"/>
      <point x="1400.88" y="1674.07"/>
      <point x="1415.34" y="1674.07" type="curve" smooth="yes"/>
      <point x="1430.84" y="1674.07"/>
      <point x="1434.29" y="1689.85"/>
    </contour>
    <contour>
      <point x="1395.99" y="1789.54" type="curve" smooth="yes"/>
      <point x="1462.74" y="1789.54"/>
      <point x="1496.96" y="1760.3"/>
      <point x="1496.96" y="1692.06" type="curve" smooth="yes"/>
      <point x="1496.96" y="1665.81"/>
      <point x="1481.63" y="1601.54"/>
      <point x="1448.22" y="1601.54" type="curve" smooth="yes"/>
      <point x="1416.34" y="1601.54"/>
      <point x="1316.28" y="1685.09"/>
      <point x="1242.8" y="1685.09" type="curve" smooth="yes"/>
      <point x="1063.01" y="1685.09"/>
      <point x="532.556" y="1470.06"/>
      <point x="532.556" y="1253.38" type="curve" smooth="yes"/>
      <point x="532.556" y="779.46"/>
      <point x="1559.44" y="1065.15"/>
      <point x="1657.11" y="753.766" type="curve" smooth="yes"/>
      <point x="1665.3" y="727.675"/>
      <point x="1664.08" y="692.044"/>
      <point x="1664.08" y="664.986" type="curve" smooth="yes"/>
      <point x="1664.08" y="507.483"/>
      <point x="1623.49" y="467.877"/>
      <point x="1514.37" y="358.605" type="curve" smooth="yes"/>
      <point x="1315.59" y="159.55"/>
      <point x="1053.83" y="28.0522"/>
      <point x="779.75" y="-31.3344" type="curve" smooth="yes"/>
      <point x="714.291" y="-45.5175"/>
      <point x="654.936" y="-74.6375"/>
      <point x="588.262" y="-87.04" type="curve" smooth="yes"/>
      <point x="436.201" y="-115.326"/>
      <point x="276.205" y="-201.933"/>
      <point x="121.728" y="-201.933" type="curve" smooth="yes"/>
      <point x="108.121" y="-201.933"/>
      <point x="83.43" y="-200.192"/>
      <point x="83.43" y="-181.043" type="curve" smooth="yes"/>
      <point x="83.43" y="-148.953"/>
      <point x="131.275" y="-121.856"/>
      <point x="160.025" y="-121.856" type="curve" smooth="yes"/>
      <point x="169.061" y="-121.856"/>
      <point x="186.3" y="-132.301"/>
      <point x="201.804" y="-132.301" type="curve" smooth="yes"/>
      <point x="270.561" y="-132.301"/>
      <point x="491.876" y="-55.6338"/>
      <point x="577.817" y="-31.3344" type="curve" smooth="yes"/>
      <point x="857.629" y="47.7808"/>
      <point x="1147.78" y="125.016"/>
      <point x="1375.1" y="311.603" type="curve" smooth="yes"/>
      <point x="1494.89" y="409.921"/>
      <point x="1608.37" y="500.151"/>
      <point x="1608.37" y="668.467" type="curve" smooth="yes"/>
      <point x="1608.37" y="717.198"/>
      <point x="1592.25" y="763.502"/>
      <point x="1552.67" y="793.805" type="curve" smooth="yes"/>
      <point x="1356.17" y="944.243"/>
      <point x="469.887" y="764.017"/>
      <point x="469.887" y="1232.49" type="curve" smooth="yes"/>
      <point x="469.887" y="1312.99"/>
      <point x="497.167" y="1386.28"/>
      <point x="556.928" y="1441.38" type="curve" smooth="yes"/>
      <point x="717.748" y="1589.68"/>
      <point x="1176.66" y="1789.54"/>
    </contour>
  </outline>
</glyph>
<glyph name="T" format="1">
  <advance width="909.898"/>
  <unicode hex="0054"/>
  <outline>
    <contour>
      <point x="176.698" y="804.5" type="curve" smooth="yes"/>
      <point x="176.698" y="811.475"/>
      <point x="160.554" y="811.3"/>
      <point x="156.298" y="811.3" type="curve" smooth="yes"/>
      <point x="151.892" y="811.3"/>
      <point x="146.895" y="811.175"/>
      <point x="142.698" y="809.6" type="curve"/>
      <point x="146.079" y="803.761"/>
      <point x="162.258" y="795.12"/>
      <point x="169.458" y="795.12" type="curve" smooth="yes"/>
      <point x="174.876" y="795.12"/>
      <point x="176.698" y="799.739"/>
    </contour>
    <contour>
      <point x="320.065" y="862.489" type="curve" smooth="yes"/>
      <point x="363.986" y="862.489"/>
      <point x="331.697" y="819.8"/>
      <point x="372.198" y="819.8" type="curve" smooth="yes"/>
      <point x="473.892" y="819.8"/>
      <point x="574.846" y="848.7"/>
      <point x="678.001" y="848.7" type="curve" smooth="yes"/>
      <point x="702.722" y="848.7"/>
      <point x="836.298" y="850.575"/>
      <point x="836.298" y="807.9" type="curve" smooth="yes"/>
      <point x="836.298" y="796.92"/>
      <point x="826.214" y="789.155"/>
      <point x="815.876" y="789.155" type="curve" smooth="yes"/>
      <point x="803.834" y="789.155"/>
      <point x="792.534" y="794.324"/>
      <point x="781.898" y="799.4" type="curve" smooth="yes"/>
      <point x="756.391" y="811.572"/>
      <point x="706.064" y="811.3"/>
      <point x="678.198" y="811.3" type="curve" smooth="yes"/>
      <point x="574.835" y="811.3"/>
      <point x="465.636" y="792.394"/>
      <point x="363.698" y="779" type="curve"/>
      <point x="368.597" y="736.546"/>
      <point x="373.898" y="693.909"/>
      <point x="373.898" y="651.097" type="curve" smooth="yes"/>
      <point x="373.898" y="623.516"/>
      <point x="364.386" y="598.354"/>
      <point x="361.998" y="570.657" type="curve" smooth="yes"/>
      <point x="353.737" y="474.826"/>
      <point x="334.233" y="378.223"/>
      <point x="319.498" y="283.075" type="curve" smooth="yes"/>
      <point x="309.879" y="220.964"/>
      <point x="293.998" y="151.815"/>
      <point x="293.998" y="88.8" type="curve" smooth="yes"/>
      <point x="293.998" y="81.4765"/>
      <point x="293.988" y="53.8023"/>
      <point x="306.433" y="53.8023" type="curve"/>
      <point x="307.806" y="53.8023"/>
      <point x="307.318" y="55.7804"/>
      <point x="307.598" y="57.1248" type="curve"/>
      <point x="309.909" y="68.2366"/>
      <point x="310.755" y="74.9698"/>
      <point x="317.798" y="84.5767" type="curve"/>
      <point x="324.598" y="88.8" type="line"/>
      <point x="328.915" y="85.5051"/>
      <point x="329.743" y="79.1331"/>
      <point x="329.743" y="74.1407" type="curve" smooth="yes"/>
      <point x="329.743" y="57.5015"/>
      <point x="324.473" y="-25.1"/>
      <point x="305.898" y="-25.1" type="curve" smooth="yes"/>
      <point x="277.773" y="-25.1"/>
      <point x="270.198" y="107.51"/>
      <point x="270.198" y="130.443" type="curve" smooth="yes"/>
      <point x="270.198" y="241.067"/>
      <point x="298.234" y="356.455"/>
      <point x="321.198" y="464.034" type="curve" smooth="yes"/>
      <point x="341.097" y="557.254"/>
      <point x="336.498" y="664.659"/>
      <point x="336.498" y="759.423" type="curve" smooth="yes"/>
      <point x="336.498" y="777.867"/>
      <point x="331.094" y="779"/>
      <point x="316.098" y="779" type="curve" smooth="yes"/>
      <point x="261.94" y="779"/>
      <point x="207.893" y="765.4"/>
      <point x="152.898" y="765.4" type="curve" smooth="yes"/>
      <point x="128.862" y="765.4"/>
      <point x="87.5467" y="764.859"/>
      <point x="73.7657" y="789.354" type="curve"/>
      <point x="86.3766" y="822.875"/>
      <point x="112.908" y="831.811"/>
      <point x="145.565" y="831.811" type="curve" smooth="yes"/>
      <point x="203.38" y="831.811"/>
      <point x="164.849" y="806.495"/>
      <point x="204.759" y="806.495" type="curve" smooth="yes"/>
      <point x="216.296" y="806.495"/>
      <point x="290.888" y="814.328"/>
      <point x="301.631" y="818.25" type="curve" smooth="yes"/>
      <point x="327.323" y="827.629"/>
      <point x="304.8" y="862.489"/>
    </contour>
  </outline>
</glyph>
<glyph name="U" format="1">
  <advance width="1317.69"/>
  <unicode hex="0055"/>
  <outline>
    <contour>
      <point x="218.18" y="1368.27" type="curve" smooth="yes"/>
      <point x="218.18" y="1422.8"/>
      <point x="204.254" y="1477.02"/>
      <point x="204.254" y="1531.9" type="curve" smooth="yes"/>
      <point x="204.254" y="1557.33"/>
      <point x="207.079" y="1605.02"/>
      <point x="242.552" y="1605.02" type="curve" smooth="yes"/>
      <point x="288.01" y="1605.02"/>
      <point x="287.816" y="1495.86"/>
      <point x="287.816" y="1468.19" type="curve" smooth="yes"/>
      <point x="287.816" y="1275.03"/>
      <point x="270.405" y="1081.49"/>
      <point x="270.405" y="887.808" type="curve" smooth="yes"/>
      <point x="270.405" y="688.117"/>
      <point x="271.474" y="263.282"/>
      <point x="395.742" y="97.9646" type="curve" smooth="yes"/>
      <point x="410.585" y="78.2188"/>
      <point x="447.498" y="27.8528"/>
      <point x="475.819" y="27.8528" type="curve" smooth="yes"/>
      <point x="819.722" y="27.8528"/>
      <point x="993.062" y="515.743"/>
      <point x="1053.76" y="782.631" type="curve" smooth="yes"/>
      <point x="1075.52" y="878.266"/>
      <point x="1102.51" y="984.091"/>
      <point x="1102.51" y="1082.78" type="curve" smooth="yes"/>
      <point x="1102.51" y="1189.78"/>
      <point x="1059.01" y="1366.51"/>
      <point x="1008.5" y="1462.27" type="curve" smooth="yes"/>
      <point x="987.532" y="1502.04"/>
      <point x="935.39" y="1608.37"/>
      <point x="935.39" y="1653.76" type="curve" smooth="yes"/>
      <point x="935.39" y="1688.39"/>
      <point x="1000.6" y="1681.61"/>
      <point x="1022.43" y="1681.61" type="curve" smooth="yes"/>
      <point x="1035.14" y="1681.61"/>
      <point x="1136.38" y="1682.8"/>
      <point x="1137.32" y="1664.2" type="curve"/>
      <point x="1109.41" y="1641.35"/>
      <point x="1022.43" y="1661.84"/>
      <point x="1022.43" y="1622.43" type="curve" smooth="yes"/>
      <point x="1022.43" y="1527.17"/>
      <point x="1161.69" y="1283.54"/>
      <point x="1161.69" y="1054.92" type="curve" smooth="yes"/>
      <point x="1161.69" y="875.312"/>
      <point x="1082.22" y="738.468"/>
      <point x="1078.14" y="629.72" type="curve" smooth="yes"/>
      <point x="1072.5" y="479.827"/>
      <point x="805.425" y="101.318"/>
      <point x="674.345" y="15.2772" type="curve" smooth="yes"/>
      <point x="624.995" y="-17.1158"/>
      <point x="566.26" y="-34.816"/>
      <point x="507.153" y="-34.816" type="curve" smooth="yes"/>
      <point x="232.508" y="-34.816"/>
      <point x="197.271" y="485.587"/>
      <point x="197.271" y="683.236" type="curve" smooth="yes"/>
      <point x="197.271" y="911.609"/>
      <point x="218.18" y="1140.17"/>
    </contour>
  </outline>
</glyph>
<glyph name="V" format="1">
  <advance width="1661.31"/>
  <unicode hex="0056"/>
  <outline>
    <contour>
      <point x="167.408" y="1751.24" type="curve" smooth="yes"/>
      <point x="232.414" y="1751.24"/>
      <point x="414.286" y="1411.64"/>
      <point x="445.936" y="1343.9" type="curve" smooth="yes"/>
      <point x="554.439" y="1111.68"/>
      <point x="600.202" y="787.45"/>
      <point x="633.943" y="532.685" type="curve" smooth="yes"/>
      <point x="651.88" y="397.25"/>
      <point x="688.449" y="159.731"/>
      <point x="811.504" y="80.0768" type="curve"/>
      <point x="818.468" y="85.2992" type="line"/>
      <point x="833.573" y="122.573"/>
      <point x="825.614" y="194.202"/>
      <point x="825.614" y="235.511" type="curve" smooth="yes"/>
      <point x="825.614" y="278.149"/>
      <point x="827.821" y="310.936"/>
      <point x="849.802" y="348.16" type="curve" smooth="yes"/>
      <point x="884.232" y="406.465"/>
      <point x="893.475" y="483.986"/>
      <point x="914.211" y="548.352" type="curve" smooth="yes"/>
      <point x="934.128" y="610.173"/>
      <point x="955.599" y="671.804"/>
      <point x="982.103" y="731.136" type="curve" smooth="yes"/>
      <point x="1084.17" y="959.631"/>
      <point x="1176.99" y="1191.42"/>
      <point x="1250.19" y="1430.94" type="curve" smooth="yes"/>
      <point x="1271.25" y="1499.88"/>
      <point x="1286.37" y="1574.87"/>
      <point x="1318.08" y="1639.83" type="curve" smooth="yes"/>
      <point x="1330.78" y="1665.86"/>
      <point x="1341.99" y="1688.58"/>
      <point x="1375.52" y="1688.58" type="curve" smooth="yes"/>
      <point x="1398.13" y="1688.58"/>
      <point x="1511.31" y="1667.54"/>
      <point x="1511.31" y="1639.83" type="curve" smooth="yes"/>
      <point x="1511.31" y="1631.85"/>
      <point x="1507.58" y="1623.49"/>
      <point x="1500.86" y="1618.94" type="curve"/>
      <point x="1385.97" y="1618.94" type="line"/>
      <point x="1328.6" y="1446.81"/>
      <point x="1284.64" y="1270.07"/>
      <point x="1220.59" y="1100.19" type="curve" smooth="yes"/>
      <point x="1125.58" y="848.199"/>
      <point x="895.063" y="430.473"/>
      <point x="895.063" y="174.08" type="curve" smooth="yes"/>
      <point x="895.063" y="132.27"/>
      <point x="898.544" y="90.5523"/>
      <point x="898.544" y="48.7424" type="curve" smooth="yes"/>
      <point x="898.544" y="30.6675"/>
      <point x="899.167" y="-34.816"/>
      <point x="870.691" y="-34.816" type="curve" smooth="yes"/>
      <point x="845.174" y="-34.816"/>
      <point x="821.14" y="-16.9979"/>
      <point x="801.059" y="-3.48159" type="curve" smooth="yes"/>
      <point x="634.408" y="108.688"/>
      <point x="596.612" y="362.502"/>
      <point x="567.792" y="546.611" type="curve" smooth="yes"/>
      <point x="533.92" y="762.996"/>
      <point x="506.879" y="983.395"/>
      <point x="438.973" y="1192.45" type="curve" smooth="yes"/>
      <point x="393.862" y="1331.32"/>
      <point x="321.524" y="1459.78"/>
      <point x="240.522" y="1580.65" type="curve" smooth="yes"/>
      <point x="221.734" y="1608.68"/>
      <point x="150" y="1710.02"/>
      <point x="150" y="1737.32" type="curve" smooth="yes"/>
      <point x="150" y="1747.7"/>
      <point x="158.537" y="1751.24"/>
    </contour>
  </outline>
</glyph>
<glyph name="W" format="1">
  <advance width="2520.89"/>
  <unicode hex="0057"/>
  <outline>
    <contour>
      <point x="130" y="1604.61" type="curve" smooth="yes"/>
      <point x="130" y="1618.34"/>
      <point x="133.889" y="1632.99"/>
      <point x="143.926" y="1642.91" type="curve"/>
      <point x="191.908" y="1640.9"/>
      <point x="236.503" y="1587.4"/>
      <point x="264.042" y="1552.38" type="curve" smooth="yes"/>
      <point x="487.467" y="1268.27"/>
      <point x="525.14" y="894.895"/>
      <point x="540.829" y="546.202" type="curve" smooth="yes"/>
      <point x="543.895" y="478.053"/>
      <point x="546.371" y="337.031"/>
      <point x="568.682" y="278.118" type="curve" smooth="yes"/>
      <point x="578.861" y="251.24"/>
      <point x="622.764" y="115.473"/>
      <point x="645.277" y="111.002" type="curve"/>
      <point x="649.725" y="116.898"/>
      <point x="652.24" y="124.504"/>
      <point x="652.24" y="131.891" type="curve" smooth="yes"/>
      <point x="652.24" y="153.258"/>
      <point x="695.974" y="236.759"/>
      <point x="707.946" y="260.71" type="curve" smooth="yes"/>
      <point x="756.816" y="358.481"/>
      <point x="1031.73" y="942.203"/>
      <point x="1031.73" y="1002.29" type="curve" smooth="yes"/>
      <point x="1031.73" y="1113.16"/>
      <point x="917.632" y="1406.13"/>
      <point x="854.173" y="1500.16" type="curve" smooth="yes"/>
      <point x="836.325" y="1526.61"/>
      <point x="809.035" y="1560.42"/>
      <point x="805.108" y="1592.62" type="curve"/>
      <point x="808.912" y="1594.16" type="line"/>
      <point x="839.942" y="1585.52"/>
      <point x="875.635" y="1539.01"/>
      <point x="895.952" y="1514.09" type="curve" smooth="yes"/>
      <point x="966.732" y="1427.25"/>
      <point x="1013.45" y="1332.09"/>
      <point x="1045.66" y="1225.11" type="curve" smooth="yes"/>
      <point x="1053.89" y="1197.8"/>
      <point x="1063.92" y="1150.94"/>
      <point x="1083.96" y="1131.11" type="curve"/>
      <point x="1087.44" y="1131.11" type="line" smooth="yes"/>
      <point x="1167.66" y="1131.11"/>
      <point x="1173.38" y="1527.57"/>
      <point x="1400.78" y="1545.42" type="curve"/>
      <point x="1406.82" y="1542.1"/>
      <point x="1414.83" y="1535.78"/>
      <point x="1414.83" y="1528.02" type="curve" smooth="yes"/>
      <point x="1414.83" y="1511.72"/>
      <point x="1383.52" y="1505.21"/>
      <point x="1372.93" y="1500.16" type="curve" smooth="yes"/>
      <point x="1333.63" y="1481.41"/>
      <point x="1326.42" y="1461.65"/>
      <point x="1310.26" y="1423.56" type="curve" smooth="yes"/>
      <point x="1266.56" y="1320.54"/>
      <point x="1111.81" y="1059.28"/>
      <point x="1111.81" y="967.475" type="curve" smooth="yes"/>
      <point x="1111.81" y="838.834"/>
      <point x="1361.87" y="143.582"/>
      <point x="1435.6" y="16.9985" type="curve" smooth="yes"/>
      <point x="1470.42" y="-42.1887" type="line"/>
      <point x="1705.53" y="403.823"/>
      <point x="1834.45" y="893.983"/>
      <point x="2044.88" y="1350.45" type="curve" smooth="yes"/>
      <point x="2105" y="1480.86"/>
      <point x="2249.68" y="1611.57"/>
      <point x="2400" y="1611.57" type="curve" smooth="yes"/>
      <point x="2407.41" y="1611.57"/>
      <point x="2415.29" y="1609.75"/>
      <point x="2420.89" y="1604.61" type="curve"/>
      <point x="2411.48" y="1579.66"/>
      <point x="2367.07" y="1560.96"/>
      <point x="2344.3" y="1548.9" type="curve" smooth="yes"/>
      <point x="2264.63" y="1506.72"/>
      <point x="2201.62" y="1456.85"/>
      <point x="2152.81" y="1380.05" type="curve" smooth="yes"/>
      <point x="2133.88" y="1350.26"/>
      <point x="2120.43" y="1312.69"/>
      <point x="2106.14" y="1280.5" type="curve" smooth="yes"/>
      <point x="2077.07" y="1215.05"/>
      <point x="2048.79" y="1149.25"/>
      <point x="2020.72" y="1083.37" type="curve" smooth="yes"/>
      <point x="1977.3" y="981.463"/>
      <point x="1934.5" y="879.286"/>
      <point x="1892.65" y="776.726" type="curve" smooth="yes"/>
      <point x="1858.76" y="693.676"/>
      <point x="1824.25" y="610.898"/>
      <point x="1797.69" y="525.313" type="curve" smooth="yes"/>
      <point x="1768.51" y="431.296"/>
      <point x="1552.67" y="-74.7984"/>
      <point x="1501.75" y="-129.228" type="curve"/>
      <point x="1484.34" y="-136.191" type="line"/>
      <point x="1374.18" y="-131.256"/>
      <point x="1126.3" y="652.919"/>
      <point x="1090.92" y="786.432" type="curve" smooth="yes"/>
      <point x="1084.84" y="809.389"/>
      <point x="1080.14" y="829.022"/>
      <point x="1066.55" y="849.101" type="curve"/>
      <point x="1034.18" y="832.523"/>
      <point x="835.809" y="382.611"/>
      <point x="805.431" y="316.416" type="curve" smooth="yes"/>
      <point x="775.17" y="250.48"/>
      <point x="747.046" y="183.494"/>
      <point x="717.373" y="117.28" type="curve" smooth="yes"/>
      <point x="704.068" y="87.5923"/>
      <point x="691.454" y="50.9452"/>
      <point x="673.13" y="23.9619" type="curve"/>
      <point x="655.722" y="16.9987" type="line"/>
      <point x="503.219" y="17.4573"/>
      <point x="476.851" y="540.103"/>
      <point x="474.679" y="654.132" type="curve" smooth="yes"/>
      <point x="470.184" y="890.037"/>
      <point x="438.82" y="1112.84"/>
      <point x="331.933" y="1326.08" type="curve" smooth="yes"/>
      <point x="313.846" y="1362.16"/>
      <point x="234.277" y="1519.02"/>
      <point x="203.114" y="1528.01" type="curve"/>
      <point x="201.833" y="1524.84"/>
      <point x="199.632" y="1521.09"/>
      <point x="199.632" y="1517.57" type="curve" smooth="yes"/>
      <point x="199.632" y="1470.86"/>
      <point x="222.79" y="1427.88"/>
      <point x="224.035" y="1380.75" type="curve"/>
      <point x="220.844" y="1378.05" type="line"/>
      <point x="192.088" y="1386.69"/>
      <point x="130" y="1571.13"/>
    </contour>
  </outline>
</glyph>
<glyph name="X" format="1">
  <advance width="1008.89"/>
  <unicode hex="0058"/>
  <outline>
    <contour>
      <point x="667.064" y="792.2" type="curve" smooth="yes"/>
      <point x="671.52" y="792.2"/>
      <point x="675.564" y="790.46"/>
      <point x="675.564" y="785.4" type="curve" smooth="yes"/>
      <point x="675.564" y="735.873"/>
      <point x="627.531" y="682.957"/>
      <point x="607.564" y="640.9" type="curve"/>
      <point x="607.4" y="633.873"/>
      <point x="595.29" y="631.903"/>
      <point x="590.564" y="630.7" type="curve" smooth="yes"/>
      <point x="575.535" y="626.873"/>
      <point x="568.812" y="617.502"/>
      <point x="563.364" y="603.5" type="curve" smooth="yes"/>
      <point x="541.886" y="548.3"/>
      <point x="420.855" y="412.912"/>
      <point x="420.564" y="370.6" type="curve"/>
      <point x="435.806" y="349.917"/>
      <point x="462.658" y="333.431"/>
      <point x="481.764" y="316.2" type="curve" smooth="yes"/>
      <point x="587.189" y="221.117"/>
      <point x="685.107" y="134.035"/>
      <point x="810.714" y="65.45" type="curve" smooth="yes"/>
      <point x="820.5" y="60.1063"/>
      <point x="873.005" y="30.6"/>
      <point x="882.964" y="30.6" type="curve" smooth="yes"/>
      <point x="897.381" y="30.6"/>
      <point x="887.285" y="52.3251"/>
      <point x="895.577" y="53.1408" type="curve"/>
      <point x="909.484" y="45.5678"/>
      <point x="925.464" y="9.92214"/>
      <point x="925.464" y="-5.10001" type="curve" smooth="yes"/>
      <point x="925.464" y="-14.7763"/>
      <point x="919.235" y="-18.7"/>
      <point x="910.164" y="-18.7" type="curve" smooth="yes"/>
      <point x="835.717" y="-18.7"/>
      <point x="513.705" y="215.294"/>
      <point x="468.164" y="277.1" type="curve" smooth="yes"/>
      <point x="450.401" y="301.207"/>
      <point x="418.137" y="323.888"/>
      <point x="395.064" y="341.7" type="curve"/>
      <point x="332.881" y="246.973"/>
      <point x="271.054" y="154.175"/>
      <point x="223.364" y="51" type="curve" smooth="yes"/>
      <point x="210.696" y="23.594"/>
      <point x="198.541" y="-9.72739"/>
      <point x="181.714" y="-34.85" type="curve" smooth="yes"/>
      <point x="175.784" y="-43.7027"/>
      <point x="168.164" y="-49.8667"/>
      <point x="157" y="-49.8667" type="curve"/>
      <point x="156.09" y="-49.8667"/>
      <point x="153.007" y="-48.6209"/>
      <point x="151.963" y="-47.6" type="curve"/>
      <point x="151.908" y="-42.8128" type="line"/>
      <point x="151.908" y="-29.0883"/>
      <point x="176.62" y="66.3"/>
      <point x="194.463" y="66.3" type="curve" smooth="yes"/>
      <point x="200.119" y="66.3"/>
      <point x="201.263" y="72.0555"/>
      <point x="201.263" y="76.5" type="curve" smooth="yes"/>
      <point x="201.263" y="106.725"/>
      <point x="347.122" y="326.695"/>
      <point x="369.563" y="365.5" type="curve"/>
      <point x="285" y="450.035"/>
      <point x="201.739" y="533.167"/>
      <point x="129.862" y="629" type="curve"/>
      <point x="123.404" y="621.713"/>
      <point x="117.478" y="613.502"/>
      <point x="110.312" y="606.9" type="curve"/>
      <point x="104.362" y="609.45" type="line"/>
      <point x="96.4498" y="622.98"/>
      <point x="89.0622" y="640.265"/>
      <point x="89.0622" y="656.2" type="curve" smooth="yes"/>
      <point x="89.0622" y="665.403"/>
      <point x="91.2353" y="676.6"/>
      <point x="102.662" y="676.6" type="curve" smooth="yes"/>
      <point x="142.989" y="676.6"/>
      <point x="245.798" y="551.202"/>
      <point x="276.062" y="515.95" type="curve" smooth="yes"/>
      <point x="310.517" y="475.817"/>
      <point x="345.888" y="440.214"/>
      <point x="384.862" y="404.6" type="curve"/>
      <point x="395.961" y="404.85"/>
      <point x="417.48" y="443.976"/>
      <point x="422.262" y="452.2" type="curve" smooth="yes"/>
      <point x="459.972" y="517.051"/>
      <point x="524.521" y="576.763"/>
      <point x="553.162" y="646" type="curve" smooth="yes"/>
      <point x="559.108" y="660.374"/>
      <point x="585.462" y="684.747"/>
      <point x="585.462" y="691.9" type="curve" smooth="yes"/>
      <point x="585.462" y="707.276"/>
      <point x="648.793" y="792.2"/>
    </contour>
  </outline>
</glyph>
<glyph name="Y" format="1">
  <advance width="1617.24"/>
  <unicode hex="0059"/>
  <outline>
    <contour>
      <point x="440.706" y="-27.8528" type="curve" smooth="yes"/>
      <point x="429.718" y="-27.8528"/>
      <point x="412.853" y="-25.4557"/>
      <point x="412.853" y="-10.4449" type="curve" smooth="yes"/>
      <point x="412.853" y="40.0607"/>
      <point x="460.487" y="166.54"/>
      <point x="489.448" y="208.896" type="curve"/>
      <point x="515.257" y="214.033"/>
      <point x="584.604" y="340.68"/>
      <point x="600.86" y="369.05" type="curve" smooth="yes"/>
      <point x="682.433" y="511.418"/>
      <point x="757.102" y="660.626"/>
      <point x="858.498" y="790.323" type="curve" smooth="yes"/>
      <point x="875.785" y="812.435"/>
      <point x="911.263" y="853.364"/>
      <point x="914.203" y="880.845" type="curve"/>
      <point x="900.277" y="891.29" type="line"/>
      <point x="813.028" y="894.896"/>
      <point x="452.358" y="1259"/>
      <point x="391.963" y="1343.9" type="curve" smooth="yes"/>
      <point x="371.56" y="1372.58"/>
      <point x="286.754" y="1499.18"/>
      <point x="259.663" y="1504.05" type="curve"/>
      <point x="262.058" y="1470.31"/>
      <point x="301.442" y="1443.87"/>
      <point x="301.442" y="1406.57" type="curve" smooth="yes"/>
      <point x="301.442" y="1399.52"/>
      <point x="297.176" y="1392.48"/>
      <point x="290.997" y="1389.16" type="curve"/>
      <point x="218.395" y="1425.1"/>
      <point x="148.251" y="1510.64"/>
      <point x="148.251" y="1594.57" type="curve" smooth="yes"/>
      <point x="148.251" y="1600.54"/>
      <point x="148.87" y="1606.63"/>
      <point x="151.733" y="1611.98" type="curve"/>
      <point x="307.286" y="1557.19"/>
      <point x="391.613" y="1502.01"/>
      <point x="472.04" y="1354.34" type="curve"/>
      <point x="478.429" y="1333.9"/>
      <point x="751.245" y="1080.56"/>
      <point x="788.866" y="1051.44" type="curve" smooth="yes"/>
      <point x="839.365" y="1012.36"/>
      <point x="894.457" y="979.959"/>
      <point x="949.019" y="946.995" type="curve"/>
      <point x="967.648" y="969.865"/>
      <point x="1031.54" y="1041.91"/>
      <point x="1036.06" y="1065.37" type="curve"/>
      <point x="1080.11" y="1148.8"/>
      <point x="1285.96" y="1453.8"/>
      <point x="1285.96" y="1519.4" type="curve" smooth="yes"/>
      <point x="1285.96" y="1548.95"/>
      <point x="1269.33" y="1575.44"/>
      <point x="1269.33" y="1605.02" type="curve" smooth="yes"/>
      <point x="1269.33" y="1627.72"/>
      <point x="1272.46" y="1667.69"/>
      <point x="1304.14" y="1667.69" type="curve" smooth="yes"/>
      <point x="1312.08" y="1667.69"/>
      <point x="1318.89" y="1673.08"/>
      <point x="1318.07" y="1681.61" type="curve"/>
      <point x="1335.69" y="1717.9"/>
      <point x="1425.53" y="1879.54"/>
      <point x="1460.81" y="1883.55" type="curve"/>
      <point x="1467.95" y="1877.73"/>
      <point x="1471.26" y="1868.16"/>
      <point x="1471.26" y="1859.17" type="curve" smooth="yes"/>
      <point x="1471.26" y="1581.03"/>
      <point x="1032.58" y="980.845"/>
      <point x="1032.58" y="926.106" type="curve" smooth="yes"/>
      <point x="1032.58" y="888.386"/>
      <point x="1137.61" y="915.563"/>
      <point x="1137.61" y="835.068" type="curve" smooth="yes"/>
      <point x="1137.61" y="831.149"/>
      <point x="1135.97" y="825.609"/>
      <point x="1135.28" y="821.658" type="curve"/>
      <point x="1128.88" y="821.316"/>
      <point x="1122.36" y="820.626"/>
      <point x="1115.94" y="820.626" type="curve" smooth="yes"/>
      <point x="1078.25" y="820.626"/>
      <point x="1041.81" y="838.898"/>
      <point x="1004.72" y="842.547" type="curve"/>
      <point x="997.761" y="846.029" type="line"/>
      <point x="950.925" y="838.309"/>
      <point x="565.967" y="212.135"/>
      <point x="531.227" y="125.338" type="curve" smooth="yes"/>
      <point x="520.168" y="97.7086"/>
      <point x="511.724" y="69.1139"/>
      <point x="499.893" y="41.7792" type="curve" smooth="yes"/>
      <point x="490.693" y="20.5248"/>
      <point x="468.263" y="-27.8528"/>
    </contour>
  </outline>
</glyph>
<glyph name="Z" format="1">
  <advance width="1054.75"/>
  <unicode hex="005A"/>
  <outline>
    <contour>
      <point x="227.377" y="871.788" type="curve" smooth="yes"/>
      <point x="254.659" y="871.788"/>
      <point x="292.727" y="866.511"/>
      <point x="292.727" y="838.431" type="curve"/>
      <point x="291.946" y="834.303" type="line"/>
      <point x="283.546" y="830.031"/>
      <point x="272.567" y="828.948"/>
      <point x="263.642" y="828.948" type="curve" smooth="yes"/>
      <point x="228.547" y="828.948"/>
      <point x="196.906" y="845.693"/>
      <point x="195.941" y="845.693" type="curve"/>
      <point x="170.269" y="845.693"/>
      <point x="163.426" y="832.762"/>
      <point x="163.426" y="817.149" type="curve" smooth="yes"/>
      <point x="163.426" y="807.212"/>
      <point x="160.654" y="802.129"/>
      <point x="156.286" y="798.603" type="curve"/>
      <point x="146.84" y="797.684"/>
      <point x="145.519" y="805.606"/>
      <point x="138.679" y="805.606" type="curve" smooth="yes"/>
      <point x="129.246" y="805.606"/>
      <point x="117.016" y="790.538"/>
      <point x="117.016" y="779.318" type="curve" smooth="yes"/>
      <point x="117.016" y="745.418"/>
      <point x="228.669" y="746.838"/>
      <point x="255.643" y="746.838" type="curve" smooth="yes"/>
      <point x="444.459" y="746.838"/>
      <point x="635.52" y="816.453"/>
      <point x="794.966" y="816.453" type="curve" smooth="yes"/>
      <point x="838.77" y="816.453"/>
      <point x="859.576" y="811.199"/>
      <point x="859.576" y="802.819" type="curve" smooth="yes"/>
      <point x="859.576" y="773.343"/>
      <point x="602.195" y="450.432"/>
      <point x="568.908" y="423.981" type="curve" smooth="yes"/>
      <point x="541.326" y="402.064"/>
      <point x="373.129" y="187.12"/>
      <point x="351.46" y="138.672" type="curve" smooth="yes"/>
      <point x="346.233" y="126.986"/>
      <point x="335.822" y="113.082"/>
      <point x="331.086" y="106.637" type="curve" smooth="yes"/>
      <point x="303.942" y="69.7001"/>
      <point x="273.881" y="37.4323"/>
      <point x="263.386" y="4.27833" type="curve"/>
      <point x="427.883" y="24.4747"/>
      <point x="587.621" y="59.6133"/>
      <point x="804.855" y="59.6133" type="curve" smooth="yes"/>
      <point x="831.886" y="59.6133"/>
      <point x="913.495" y="59.0692"/>
      <point x="990.774" y="49.7958" type="curve"/>
      <point x="993.338" y="49.488"/>
      <point x="1013.09" y="47.3221"/>
      <point x="1013.09" y="38.605" type="curve" smooth="yes"/>
      <point x="1013.09" y="21.0586"/>
      <point x="933.074" y="22.1282"/>
      <point x="914.927" y="22.1282" type="curve" smooth="yes"/>
      <point x="874.323" y="22.1282"/>
      <point x="828.731" y="27.4832"/>
      <point x="770.654" y="27.4832" type="curve" smooth="yes"/>
      <point x="631.659" y="27.4832"/>
      <point x="479.504" y="-3.18974"/>
      <point x="318.088" y="-22.0361" type="curve" smooth="yes"/>
      <point x="306.617" y="-23.3755"/>
      <point x="242.18" y="-30.8338"/>
      <point x="220.384" y="-41.2801" type="curve" smooth="yes"/>
      <point x="214.361" y="-44.1664"/>
      <point x="206.199" y="-49.8667"/>
      <point x="198.023" y="-49.8667" type="curve" smooth="yes"/>
      <point x="185.229" y="-49.8667"/>
      <point x="182.169" y="-35.9107"/>
      <point x="182.169" y="-31.4976" type="curve" smooth="yes"/>
      <point x="182.169" y="-9.74178"/>
      <point x="256.548" y="27.3024"/>
      <point x="258.031" y="59.6133" type="curve"/>
      <point x="265.69" y="74.9557"/>
      <point x="276.132" y="88.96"/>
      <point x="285.183" y="100.636" type="curve" smooth="yes"/>
      <point x="343.306" y="175.618"/>
      <point x="379.542" y="244.368"/>
      <point x="445.141" y="323.788" type="curve" smooth="yes"/>
      <point x="489.875" y="377.947"/>
      <point x="810.531" y="754.594"/>
      <point x="811.381" y="782.538" type="curve"/>
      <point x="809.933" y="783.021"/>
      <point x="807.542" y="784.323"/>
      <point x="806.026" y="784.323" type="curve"/>
      <point x="758.504" y="784.323"/>
      <point x="707.795" y="774.218"/>
      <point x="676.66" y="767.817" type="curve" smooth="yes"/>
      <point x="520.367" y="735.686"/>
      <point x="379.192" y="714.708"/>
      <point x="250.207" y="714.708" type="curve" smooth="yes"/>
      <point x="211.208" y="714.708"/>
      <point x="75.9612" y="716.626"/>
      <point x="75.9612" y="757.164" type="curve" smooth="yes"/>
      <point x="75.9612" y="773.924"/>
      <point x="99.082" y="799.919"/>
      <point x="105.467" y="807.209" type="curve" smooth="yes"/>
      <point x="145.744" y="853.2"/>
      <point x="176.172" y="871.788"/>
    </contour>
  </outline>
</glyph>
<glyph name="a" format="1">
  <advance width="1538.87"/>
  <unicode hex="0061"/>
  <outline>
    <contour>
      <point x="977.629" y="642.981" type="curve" smooth="yes"/>
      <point x="912.552" y="642.981"/>
      <point x="873.882" y="539.956"/>
      <point x="873.882" y="486" type="curve" smooth="yes"/>
      <point x="873.882" y="479.324"/>
      <point x="873.983" y="465.11"/>
      <point x="884.326" y="465.11" type="curve" smooth="yes"/>
      <point x="917.155" y="465.11"/>
      <point x="1029.78" y="570.973"/>
      <point x="1030.55" y="604.374" type="curve"/>
      <point x="1017.66" y="629.836"/>
      <point x="1008.36" y="642.981"/>
    </contour>
    <contour>
      <point x="1065.37" y="715.785" type="curve"/>
      <point x="1056.95" y="711.53"/>
      <point x="1047.96" y="701.322"/>
      <point x="1047.96" y="691.414" type="curve" smooth="yes"/>
      <point x="1047.96" y="675.259"/>
      <point x="1053.71" y="660.08"/>
      <point x="1072.33" y="660.08" type="curve" smooth="yes"/>
      <point x="1082.1" y="660.08"/>
      <point x="1091.29" y="663.554"/>
      <point x="1091.29" y="674.823" type="curve" smooth="yes"/>
      <point x="1091.29" y="691.497"/>
      <point x="1084.13" y="712.683"/>
    </contour>
    <contour>
      <point x="651.059" y="837.641" type="curve" smooth="yes"/>
      <point x="620.011" y="837.641"/>
      <point x="515.524" y="781.662"/>
      <point x="494.387" y="757.564" type="curve" smooth="yes"/>
      <point x="478.222" y="739.135"/>
      <point x="483.538" y="743.649"/>
      <point x="459.571" y="740.156" type="curve" smooth="yes"/>
      <point x="402.549" y="731.848"/>
      <point x="311.785" y="620.043"/>
      <point x="275.047" y="574.78" type="curve" smooth="yes"/>
      <point x="186.279" y="465.415"/>
      <point x="55.7057" y="290.422"/>
      <point x="55.7057" y="144.803" type="curve" smooth="yes"/>
      <point x="55.7057" y="79.7762"/>
      <point x="88.1492" y="47.3179"/>
      <point x="153.191" y="47.3179" type="curve" smooth="yes"/>
      <point x="292.688" y="47.3179"/>
      <point x="542.451" y="226.172"/>
      <point x="658.023" y="308.438" type="curve" smooth="yes"/>
      <point x="687.942" y="329.735"/>
      <point x="725.93" y="354.356"/>
      <point x="748.544" y="383.292" type="curve" smooth="yes"/>
      <point x="764.275" y="403.422"/>
      <point x="772.499" y="427.066"/>
      <point x="779.879" y="451.183" type="curve" smooth="yes"/>
      <point x="798.704" y="512.705"/>
      <point x="829.658" y="568.833"/>
      <point x="859.955" y="625.263" type="curve" smooth="yes"/>
      <point x="872.317" y="648.288"/>
      <point x="919.143" y="733.621"/>
      <point x="919.143" y="754.083" type="curve" smooth="yes"/>
      <point x="919.143" y="781.178"/>
      <point x="794.136" y="816.751"/>
      <point x="769.434" y="816.751" type="curve" smooth="yes"/>
      <point x="742.752" y="816.751"/>
      <point x="718.971" y="801.243"/>
      <point x="692.349" y="801.243" type="curve" smooth="yes"/>
      <point x="661.79" y="801.243"/>
      <point x="690.243" y="837.641"/>
    </contour>
    <contour>
      <point x="532.685" y="933.385" type="curve" smooth="yes"/>
      <point x="542.691" y="933.385"/>
      <point x="551.253" y="932.754"/>
      <point x="551.253" y="920.039" type="curve" smooth="yes"/>
      <point x="551.253" y="910.252"/>
      <point x="545.352" y="900.961"/>
      <point x="543.13" y="891.606" type="curve"/>
      <point x="550.093" y="884.643" type="line"/>
      <point x="559.893" y="884.127" type="line"/>
      <point x="626.267" y="884.127"/>
      <point x="686.135" y="928.163"/>
      <point x="752.026" y="928.163" type="curve" smooth="yes"/>
      <point x="825.212" y="928.163"/>
      <point x="806" y="851.568"/>
      <point x="846.029" y="851.568" type="curve" smooth="yes"/>
      <point x="872.282" y="851.568"/>
      <point x="895.997" y="837.707"/>
      <point x="919.142" y="827.196" type="curve" smooth="yes"/>
      <point x="1013.01" y="784.569"/>
      <point x="1093.56" y="837.6"/>
      <point x="1148.93" y="719.267" type="curve" smooth="yes"/>
      <point x="1151.97" y="712.763"/>
      <point x="1152.41" y="705.427"/>
      <point x="1152.41" y="698.377" type="curve" smooth="yes"/>
      <point x="1152.41" y="593.73"/>
      <point x="1008.11" y="460.272"/>
      <point x="922.624" y="412.886" type="curve" smooth="yes"/>
      <point x="889.337" y="394.433"/>
      <point x="825.139" y="359.353"/>
      <point x="825.139" y="315.401" type="curve" smooth="yes"/>
      <point x="825.139" y="287.65"/>
      <point x="874.346" y="246.798"/>
      <point x="894.771" y="230.102" type="curve" smooth="yes"/>
      <point x="1034.83" y="115.617"/>
      <point x="1220.99" y="72.8255"/>
      <point x="1396.12" y="47.3179" type="curve" smooth="yes"/>
      <point x="1418.32" y="44.0841"/>
      <point x="1538.87" y="27.1936"/>
      <point x="1538.87" y="2.05709" type="curve" smooth="yes"/>
      <point x="1538.87" y="-19.5639"/>
      <point x="1463.22" y="-18.8325"/>
      <point x="1448.35" y="-18.8325" type="curve" smooth="yes"/>
      <point x="1259.33" y="-18.8325"/>
      <point x="873.763" y="76.7043"/>
      <point x="776.397" y="252.732" type="curve" smooth="yes"/>
      <point x="771.827" y="260.994"/>
      <point x="759.622" y="287.548"/>
      <point x="748.544" y="287.548" type="curve" smooth="yes"/>
      <point x="685.596" y="287.548"/>
      <point x="333.393" y="-25.7957"/>
      <point x="149.709" y="-25.7957" type="curve" smooth="yes"/>
      <point x="52.2687" y="-25.7957"/>
      <point x="-0" y="40.6418"/>
      <point x="-0" y="134.358" type="curve" smooth="yes"/>
      <point x="-0" y="432.508"/>
      <point x="417.792" y="765.427"/>
      <point x="417.792" y="820.233" type="curve" smooth="yes"/>
      <point x="417.792" y="846.123"/>
      <point x="383.324" y="856.449"/>
      <point x="383.324" y="874.233" type="curve" smooth="yes"/>
      <point x="383.324" y="894.971"/>
      <point x="421.354" y="896.828"/>
      <point x="435.2" y="896.828" type="curve" smooth="yes"/>
      <point x="485.448" y="896.828"/>
      <point x="511.611" y="933.385"/>
    </contour>
  </outline>
</glyph>
<glyph name="b" format="1">
  <advance width="1051.44"/>
  <unicode hex="0062"/>
  <outline>
    <contour>
      <point x="752.026" y="846.029" type="curve" smooth="yes"/>
      <point x="612.36" y="846.029"/>
      <point x="493.389" y="789.466"/>
      <point x="407.347" y="678.912" type="curve" smooth="yes"/>
      <point x="395.362" y="663.513"/>
      <point x="352.362" y="608.22"/>
      <point x="351.642" y="588.39" type="curve"/>
      <point x="345.318" y="574.724"/>
      <point x="336.338" y="562.011"/>
      <point x="327.27" y="550.093" type="curve" smooth="yes"/>
      <point x="271.57" y="476.885"/>
      <point x="230.29" y="310.637"/>
      <point x="219.341" y="219.341" type="curve" smooth="yes"/>
      <point x="217.068" y="200.386"/>
      <point x="213.714" y="177.729"/>
      <point x="205.414" y="160.154" type="curve"/>
      <point x="188.834" y="160.154"/>
      <point x="188.006" y="146.114"/>
      <point x="188.006" y="132.301" type="curve" smooth="yes"/>
      <point x="188.006" y="105.07"/>
      <point x="192.117" y="75.9702"/>
      <point x="215.859" y="59.1872" type="curve" smooth="yes"/>
      <point x="248.444" y="36.1533"/>
      <point x="443.228" y="6.96321"/>
      <point x="490.906" y="6.96321" type="curve" smooth="yes"/>
      <point x="604.706" y="6.96321"/>
      <point x="789.351" y="85.7587"/>
      <point x="868.659" y="172.339" type="curve" smooth="yes"/>
      <point x="942.028" y="252.436"/>
      <point x="988.774" y="465.158"/>
      <point x="988.774" y="574.464" type="curve" smooth="yes"/>
      <point x="988.774" y="659.835"/>
      <point x="954.199" y="746.085"/>
      <point x="894.771" y="807.731" type="curve" smooth="yes"/>
      <point x="862.046" y="841.678"/>
      <point x="795.949" y="846.029"/>
    </contour>
    <contour>
      <point x="348.16" y="1705.98" type="curve"/>
      <point x="350.327" y="1708.17"/>
      <point x="353.279" y="1709.12"/>
      <point x="356.307" y="1709.12" type="curve"/>
      <point x="367.793" y="1709.12"/>
      <point x="381.524" y="1698.73"/>
      <point x="389.939" y="1692.06" type="curve" smooth="yes"/>
      <point x="404.554" y="1680.47"/>
      <point x="403.866" y="1391.17"/>
      <point x="403.866" y="1364.79" type="curve" smooth="yes"/>
      <point x="403.866" y="1275.18"/>
      <point x="409.886" y="1174.76"/>
      <point x="393.421" y="1086.26" type="curve" smooth="yes"/>
      <point x="381.342" y="1021.33"/>
      <point x="355.123" y="821.021"/>
      <point x="355.123" y="758.989" type="curve" smooth="yes"/>
      <point x="355.123" y="754.109"/>
      <point x="357.647" y="747.731"/>
      <point x="362.087" y="745.062" type="curve"/>
      <point x="374.904" y="745.857"/>
      <point x="408.372" y="775.235"/>
      <point x="417.792" y="783.36" type="curve" smooth="yes"/>
      <point x="514.963" y="867.175"/>
      <point x="662.318" y="919.142"/>
      <point x="790.323" y="919.142" type="curve" smooth="yes"/>
      <point x="959.998" y="919.142"/>
      <point x="1051.44" y="742.948"/>
      <point x="1051.44" y="591.872" type="curve" smooth="yes"/>
      <point x="1051.44" y="390.911"/>
      <point x="1000.89" y="204.14"/>
      <point x="839.066" y="76.5952" type="curve" smooth="yes"/>
      <point x="734.838" y="-5.55254"/>
      <point x="641.702" y="-45.2608"/>
      <point x="508.314" y="-45.2608" type="curve" smooth="yes"/>
      <point x="430.394" y="-45.2608"/>
      <point x="347.858" y="-41.2371"/>
      <point x="271.565" y="-24.3713" type="curve" smooth="yes"/>
      <point x="244.112" y="-18.3024"/>
      <point x="216.364" y="-10.4448"/>
      <point x="188.006" y="-10.4448" type="curve" smooth="yes"/>
      <point x="147.437" y="-10.4448"/>
      <point x="170.62" y="-62.6688"/>
      <point x="125.338" y="-62.6688" type="curve" smooth="yes"/>
      <point x="98.2822" y="-62.6688"/>
      <point x="97.4849" y="-18.13"/>
      <point x="97.4849" y="-0" type="curve" smooth="yes"/>
      <point x="97.4849" y="104.583"/>
      <point x="-0" y="83.879"/>
      <point x="-0" y="174.08" type="curve" smooth="yes"/>
      <point x="-0" y="210.709"/>
      <point x="37.5882" y="226.304"/>
      <point x="68.8583" y="226.304" type="curve" smooth="yes"/>
      <point x="76.2531" y="226.304"/>
      <point x="105.254" y="221.545"/>
      <point x="105.841" y="210.985" type="curve"/>
      <point x="95.9312" y="197.147"/>
      <point x="56.3508" y="192.733"/>
      <point x="55.7057" y="177.562" type="curve"/>
      <point x="65.7739" y="153.645"/>
      <point x="91.595" y="150.476"/>
      <point x="111.411" y="139.264" type="curve"/>
      <point x="184.351" y="380.966"/>
      <point x="261.168" y="622.391"/>
      <point x="292.454" y="873.882" type="curve" smooth="yes"/>
      <point x="308.25" y="1000.85"/>
      <point x="331.315" y="1135.42"/>
      <point x="331.315" y="1263.62" type="curve" smooth="yes"/>
      <point x="331.315" y="1329.38"/>
      <point x="320.307" y="1396.45"/>
      <point x="320.307" y="1462.27" type="curve" smooth="yes"/>
      <point x="320.307" y="1535.69"/>
      <point x="322.889" y="1636.41"/>
    </contour>
  </outline>
</glyph>
<glyph name="c" format="1">
  <advance width="1426.91"/>
  <unicode hex="0063"/>
  <outline>
    <contour>
      <point x="583.002" y="689.357" type="curve"/>
      <point x="584.937" y="693.232"/>
      <point x="589.013" y="696.304"/>
      <point x="593.447" y="696.32" type="curve"/>
      <point x="600.41" y="689.357" type="line"/>
      <point x="600.395" y="684.923"/>
      <point x="597.322" y="680.846"/>
      <point x="593.447" y="678.912" type="curve"/>
      <point x="587.201" y="678.893"/>
      <point x="582.984" y="683.111"/>
    </contour>
    <contour>
      <point x="865.077" y="930.097" type="curve" smooth="yes"/>
      <point x="904.83" y="930.097"/>
      <point x="940.447" y="923.835"/>
      <point x="940.447" y="875.429" type="curve" smooth="yes"/>
      <point x="940.447" y="869.549"/>
      <point x="939.402" y="859.955"/>
      <point x="931.163" y="859.955" type="curve" smooth="yes"/>
      <point x="910.348" y="859.955"/>
      <point x="893.358" y="783.36"/>
      <point x="858.049" y="783.36" type="curve" smooth="yes"/>
      <point x="851.493" y="783.36"/>
      <point x="844.122" y="785.832"/>
      <point x="844.122" y="793.805" type="curve" smooth="yes"/>
      <point x="844.122" y="810.09"/>
      <point x="868.989" y="851.212"/>
      <point x="875.457" y="870.4" type="curve"/>
      <point x="871.975" y="873.882" type="line"/>
      <point x="830.398" y="873.337"/>
      <point x="597.753" y="831.298"/>
      <point x="572.558" y="811.213" type="curve" smooth="yes"/>
      <point x="563.131" y="803.698"/>
      <point x="554.48" y="793.805"/>
      <point x="541.223" y="793.805" type="curve" smooth="yes"/>
      <point x="518.35" y="793.805"/>
      <point x="496.064" y="780.414"/>
      <point x="476.814" y="769.434" type="curve" smooth="yes"/>
      <point x="357.273" y="701.247"/>
      <point x="294.03" y="566.607"/>
      <point x="294.03" y="431.718" type="curve" smooth="yes"/>
      <point x="294.03" y="378.102"/>
      <point x="320.641" y="167.6"/>
      <point x="391.515" y="167.117" type="curve"/>
      <point x="393.062" y="170.598" type="line"/>
      <point x="403.12" y="166.741"/>
      <point x="404.89" y="154.731"/>
      <point x="408.922" y="146.227" type="curve" smooth="yes"/>
      <point x="423.053" y="116.427"/>
      <point x="473.56" y="84.0064"/>
      <point x="502.926" y="69.632" type="curve" smooth="yes"/>
      <point x="566.857" y="38.3382"/>
      <point x="691.841" y="34.816"/>
      <point x="764.046" y="34.816" type="curve" smooth="yes"/>
      <point x="943.149" y="34.816"/>
      <point x="1113.4" y="64.0835"/>
      <point x="1282.8" y="121.856" type="curve" smooth="yes"/>
      <point x="1308.17" y="130.507"/>
      <point x="1333.67" y="138.724"/>
      <point x="1359.4" y="146.227" type="curve"/>
      <point x="1366.36" y="142.746" type="line"/>
      <point x="1330.37" y="64.3289"/>
      <point x="958.764" y="-19.5948"/>
      <point x="868.494" y="-27.8528" type="curve" smooth="yes"/>
      <point x="844.357" y="-30.0608"/>
      <point x="762.838" y="-32.5093"/>
      <point x="746.638" y="-41.7793" type="curve"/>
      <point x="471.657" y="-41.8551"/>
      <point x="231.361" y="95.5678"/>
      <point x="231.361" y="396.903" type="curve" smooth="yes"/>
      <point x="231.361" y="482.152"/>
      <point x="241.117" y="591.591"/>
      <point x="294.03" y="661.504" type="curve" smooth="yes"/>
      <point x="348.117" y="732.969"/>
      <point x="332.619" y="737.599"/>
      <point x="414.145" y="792.064" type="curve" smooth="yes"/>
      <point x="470.306" y="829.584"/>
      <point x="579.324" y="893.74"/>
      <point x="646.832" y="893.74" type="curve" smooth="yes"/>
      <point x="656.8" y="893.74"/>
      <point x="674.766" y="904.268"/>
      <point x="683.969" y="908.698" type="curve" smooth="yes"/>
      <point x="739.255" y="935.312"/>
      <point x="805.079" y="930.097"/>
    </contour>
  </outline>
</glyph>
